<?xml version="1.0" standalone="no"?><!DOCTYPE svg PUBLIC "-//W3C//DTD SVG 1.1//EN" "http://www.w3.org/Graphics/SVG/1.1/DTD/svg11.dtd"><svg t="1661318665453" class="icon" viewBox="0 0 1024 1024" version="1.1" xmlns="http://www.w3.org/2000/svg" p-id="21279" xmlns:xlink="http://www.w3.org/1999/xlink" width="200" height="200"><defs><style type="text/css">@font-face { font-family: feedback-iconfont; src: url("//at.alicdn.com/t/font_1031158_u69w8yhxdu.woff2?t=1630033759944") format("woff2"), url("//at.alicdn.com/t/font_1031158_u69w8yhxdu.woff?t=1630033759944") format("woff"), url("//at.alicdn.com/t/font_1031158_u69w8yhxdu.ttf?t=1630033759944") format("truetype"); }
</style></defs><path d="M832.57 313.76h59.56v59.56h-59.56zM773.01 790.24h59.55v59.56h-59.55zM773.01 730.68h59.55v59.55h-59.55z" fill="#333333" p-id="21280"></path><path d="M773.01 671.12h59.55v59.56h-59.55zM773.01 611.57h59.55v59.55h-59.55zM773.01 552h59.55v59.56h-59.55zM773.01 492.45h59.55V552h-59.55zM773.01 432.88h59.55v59.56h-59.55z" fill="#333333" p-id="21281"></path><path d="M773.01 313.76h59.55v59.56h-59.55z" fill="#999999" p-id="21282"></path><path d="M773.01 254.21h59.55v59.55h-59.55zM713.45 849.8h59.56v59.56h-59.56z" fill="#333333" p-id="21283"></path><path d="M713.45 790.24h59.56v59.56h-59.56zM713.45 730.68h59.56v59.55h-59.56z" fill="#999999" p-id="21284"></path><path d="M713.45 671.12h59.56v59.56h-59.56zM713.45 611.57h59.56v59.55h-59.56zM713.45 552h59.56v59.56h-59.56zM713.45 492.45h59.56V552h-59.56z" fill="#999999" p-id="21285"></path><path d="M713.45 432.88h59.56v59.56h-59.56z" fill="#CCCCCC" p-id="21286"></path><path d="M713.45 313.76h59.56v59.56h-59.56z" fill="#999999" p-id="21287"></path><path d="M713.45 254.21h59.56v59.55h-59.56zM653.89 849.8h59.55v59.56h-59.55z" fill="#333333" p-id="21288"></path><path d="M653.89 790.24h59.55v59.56h-59.55zM653.89 730.68h59.55v59.55h-59.55z" fill="#999999" p-id="21289"></path><path d="M653.89 671.12h59.55v59.56h-59.55zM653.89 611.57h59.55v59.55h-59.55zM653.89 552h59.55v59.56h-59.55zM653.89 492.45h59.55V552h-59.55zM653.89 432.88h59.55v59.56h-59.55z" fill="#CCCCCC" p-id="21290"></path><path d="M653.89 313.76h59.55v59.56h-59.55z" fill="#999999" p-id="21291"></path><path d="M653.89 254.21h59.55v59.55h-59.55zM594.33 849.8h59.56v59.56h-59.56z" fill="#333333" p-id="21292"></path><path d="M594.33 790.24h59.56v59.56h-59.56z" fill="#999999" p-id="21293"></path><path d="M594.33 730.68h59.56v59.55h-59.56z" fill="#CCCCCC" p-id="21294"></path><path d="M594.33 671.12h59.56v59.56h-59.56z" fill="#CCCCCC" p-id="21295"></path><path d="M594.33 611.57h59.56v59.55h-59.56zM594.33 552h59.56v59.56h-59.56zM594.33 492.45h59.56V552h-59.56z" fill="#333333" p-id="21296"></path><path d="M594.33 432.88h59.56v59.56h-59.56zM594.33 313.76h59.56v59.56h-59.56z" fill="#CCCCCC" p-id="21297"></path><path d="M594.33 254.21h59.56v59.55h-59.56zM594.33 194.64h59.56v59.56h-59.56zM534.77 849.8h59.55v59.56h-59.55z" fill="#333333" p-id="21298"></path><path d="M534.77 790.24h59.55v59.56h-59.55z" fill="#999999" p-id="21299"></path><path d="M534.77 730.68h59.55v59.55h-59.55z" fill="#CCCCCC" p-id="21300"></path><path d="M534.77 671.12h59.55v59.56h-59.55zM534.77 611.57h59.55v59.55h-59.55zM534.77 552h59.55v59.56h-59.55zM534.77 492.45h59.55V552h-59.55zM534.77 432.88h59.55v59.56h-59.55zM534.77 313.76h59.55v59.56h-59.55z" fill="#CCCCCC" p-id="21301"></path><path d="M534.77 254.21h59.55v59.55h-59.55zM534.77 194.64h59.55v59.56h-59.55zM534.77 135.09h59.55v59.55h-59.55zM475.21 849.8h59.56v59.56h-59.56z" fill="#333333" p-id="21302"></path><path d="M475.21 790.24h59.56v59.56h-59.56z" fill="#999999" p-id="21303"></path><path d="M475.21 730.68h59.56v59.55h-59.56z" fill="#CCCCCC" p-id="21304"></path><path d="M475.21 671.12h59.56v59.56h-59.56zM475.21 611.57h59.56v59.55h-59.56zM475.21 552h59.56v59.56h-59.56zM475.21 492.45h59.56V552h-59.56zM475.21 432.88h59.56v59.56h-59.56zM475.21 313.76h59.56v59.56h-59.56z" fill="#CCCCCC" p-id="21305"></path><path d="M475.21 254.21h59.56v59.55h-59.56z" fill="#333333" p-id="21306"></path><path d="M475.21 194.64h59.56v59.56h-59.56z" fill="#CCCCCC" p-id="21307"></path><path d="M475.21 135.09h59.56v59.55h-59.56zM415.65 849.8h59.55v59.56h-59.55z" fill="#333333" p-id="21308"></path><path d="M415.65 790.24h59.55v59.56h-59.55z" fill="#999999" p-id="21309"></path><path d="M415.65 730.68h59.55v59.55h-59.55z" fill="#CCCCCC" p-id="21310"></path><path d="M415.65 671.12h59.55v59.56h-59.55zM415.65 611.57h59.55v59.55h-59.55zM415.65 552h59.55v59.56h-59.55zM415.65 492.45h59.55V552h-59.55zM415.65 432.88h59.55v59.56h-59.55zM415.65 313.76h59.55v59.56h-59.55z" fill="#CCCCCC" p-id="21311"></path><path d="M415.65 254.21h59.55v59.55h-59.55z" fill="#333333" p-id="21312"></path><path d="M415.65 194.64h59.55v59.56h-59.55z" fill="#CCCCCC" p-id="21313"></path><path d="M415.65 135.09h59.55v59.55h-59.55zM356.09 849.8h59.56v59.56h-59.56z" fill="#333333" p-id="21314"></path><path d="M356.09 790.24h59.56v59.56h-59.56z" fill="#E5E5E5" p-id="21315"></path><path d="M356.09 730.68h59.56v59.55h-59.56z" fill="#CCCCCC" p-id="21316"></path><path d="M356.09 671.12h59.56v59.56h-59.56z" fill="#CCCCCC" p-id="21317"></path><path d="M356.09 611.57h59.56v59.55h-59.56zM356.09 552h59.56v59.56h-59.56zM356.09 492.45h59.56V552h-59.56z" fill="#333333" p-id="21318"></path><path d="M356.09 432.88h59.56v59.56h-59.56zM356.09 313.76h59.56v59.56h-59.56z" fill="#CCCCCC" p-id="21319"></path><path d="M356.09 254.21h59.56v59.55h-59.56zM356.09 194.64h59.56v59.56h-59.56zM296.54 849.8h59.55v59.56h-59.55z" fill="#333333" p-id="21320"></path><path d="M296.54 790.24h59.55v59.56h-59.55zM296.54 730.68h59.55v59.55h-59.55z" fill="#E5E5E5" p-id="21321"></path><path d="M296.54 671.12h59.55v59.56h-59.55zM296.54 611.57h59.55v59.55h-59.55zM296.54 552h59.55v59.56h-59.55zM296.54 492.45h59.55V552h-59.55zM296.54 432.88h59.55v59.56h-59.55zM296.54 313.76h59.55v59.56h-59.55z" fill="#CCCCCC" p-id="21322"></path><path d="M296.54 254.21h59.55v59.55h-59.55zM236.97 849.8h59.56v59.56h-59.56z" fill="#333333" p-id="21323"></path><path d="M236.97 790.24h59.56v59.56h-59.56zM236.97 730.68h59.56v59.55h-59.56z" fill="#E5E5E5" p-id="21324"></path><path d="M236.97 671.12h59.56v59.56h-59.56zM236.97 611.57h59.56v59.55h-59.56zM236.97 552h59.56v59.56h-59.56zM236.97 492.45h59.56V552h-59.56zM236.97 432.88h59.56v59.56h-59.56zM236.97 313.76h59.56v59.56h-59.56z" fill="#E5E5E5" p-id="21325"></path><path d="M236.97 254.21h59.56v59.55h-59.56zM177.41 790.24h59.56v59.56h-59.56zM177.41 730.68h59.56v59.55h-59.56z" fill="#333333" p-id="21326"></path><path d="M177.41 671.12h59.56v59.56h-59.56zM177.41 611.57h59.56v59.55h-59.56zM177.41 552h59.56v59.56h-59.56zM177.41 492.45h59.56V552h-59.56zM177.41 432.88h59.56v59.56h-59.56z" fill="#333333" p-id="21327"></path><path d="M177.41 313.76h59.56v59.56h-59.56z" fill="#E5E5E5" p-id="21328"></path><path d="M177.41 254.21h59.56v59.55h-59.56zM117.85 313.76h59.55v59.56h-59.55z" fill="#333333" p-id="21329"></path></svg>