<?xml version="1.0" standalone="no"?><!DOCTYPE svg PUBLIC "-//W3C//DTD SVG 1.1//EN" "http://www.w3.org/Graphics/SVG/1.1/DTD/svg11.dtd"><svg t="1661425214479" class="icon" viewBox="0 0 1024 1024" version="1.1" xmlns="http://www.w3.org/2000/svg" p-id="47472" xmlns:xlink="http://www.w3.org/1999/xlink" width="200" height="200"><defs><style type="text/css">@font-face { font-family: feedback-iconfont; src: url("//at.alicdn.com/t/font_1031158_u69w8yhxdu.woff2?t=1630033759944") format("woff2"), url("//at.alicdn.com/t/font_1031158_u69w8yhxdu.woff?t=1630033759944") format("woff"), url("//at.alicdn.com/t/font_1031158_u69w8yhxdu.ttf?t=1630033759944") format("truetype"); }
</style></defs><path d="M320 608h32v32h-32v-32z m32 0H288v-32h64v32z m-96-64h96v32H256v-32z m128 0H224v-32h160v32z m-192-64h192v32H192v-32z m224 0H160v-32h256v32z m-288-64h320v32H128v-32z m352 0H96v-32h384v32zM96 352h448v32H96v-32z m544 0H64v-32h576v32zM64 288h544v32H64V288z m512 0H64V256h512v32zM64 224h480v32H64V224z m448 0H96V192h416v32zM96 160h384v32H96V160z m352 0H128V128h320v32z m-32-32H160V96h256v32z m-64-32H224V64h128v32z" fill="#EE162D" p-id="47473"></path><path d="M768 960h-96v-32h96v32z m-160-64h256v32h-256v-32z m288 0H576v-32h320v32z m-352-64h384v32H544v-32z m384 0H512v-32h416v32z m-448-64h448v32H480v-32z m480 0H448v-32h512v32z m-544-64h544v32H416v-32z m544 0H384v-32h576v32z m-608-64h576v32H352v-32z m576 0H352v-32h576v32z m-544-64h512v32H384v-32z m480 0H384v-32h480v32z m-480-64h448v32H384v-32z m416 0H416v-32h384v32z m-32-32H448v-32h320v32z m-32-32h-256v-32h256v32z m-64-64h-64v-32h64v32z m32 32h-192v-32h192v32z" fill="#F9C943" p-id="47474"></path><path d="M768 960v-32h32v32h-32z m160-160v-32h32v32h-32zM608 384h-64v-32h64v32z m-128 32v-32h32v32h-32z m-32 32v-32h32v32h-32z m-32 32v-32h32v32h-32z m-64 128v-64h32v64h-32z m32-96v-32h32v32h-32z" fill="#E67726" p-id="47475"></path><path d="M896 864h32v32h-32v-32z m0 64h-32v-32h32v32z m-32 32h-64v-32h64v32z m-192 0h-32v-32h32v32z m-64-32h-32v-32h32v32z m-32-32h-32v-32h32v32z m-32-32h-32v-32h32v32z m-32-32h-32v-32h32v32z m-32-32h-32v-32h32v32z m-64-64h32v32h-32v-32z m0 0h-32v-32h32v32z m-32-32h-32v-32h32v32z m-32-32h-32v-32h32v32z m-32-32H288v-32h32v32z m-32-32H256v-32h32v32z m-32-32H224v-32h32v32z m-32-64v32H192v-32h32z m-64 0v-32h32v32H160z m-32-32v-32h32v32H128z m0-64v32H96v-32h32z m-64-32v-32h32v32H64z m864 512v-96h32v96h-32z m0-224v-32h32v32h-32z m-32-64v-32h32v32h-32z m-32-32v-32h32v32h-32z m-32-32v-32h32v32h-32z m-32-32v-32h32v32h-32z m-32-32v-32h32v32h-32z m-32-32v-32h32v32h-32z m-32-32v-32h32v32h-32z m-32-32v-32h32v32h-32z m-32-32v-32h32v32h-32z m-32-32V288h32v32h-32z m-32-32V256h32v32h-32z m-32-32V224h32v32h-32z m-32-32V192h32v32h-32z m-32-32V160h32v32h-32z m-32-32V128h32v32h-32z m-32-32V96h32v32h-32z m-64-32V64h32v32h-32zM192 96V64h32v32H192zM64 224V192h32v32H64z m32-64V128h32v32H96z m32-32V96h32v32H128z" fill="#642B18" p-id="47476"></path><path d="M960 928h-64v-32h64v32z m-32 32h-64v-32h64v32z m-288 0h-64v-32h64v32z m-96 0v-64h32v64h-32z m-32-32v-64h32v64h-32z m-32-32v-64h32v64h-32z m-32-32v-64h32v64h-32z m-32-32v-64h32v64h-32z m-32-32v-64h32v64h-32z m-32-32v-64h32v64h-32z m-32-32v-64h32v64h-32z m-32-32v-64h32v64H288z m-32-32v-64h32v64H256z m-32-32v-64h32v64H224z m-32-32v-64h32v64H192z m-32-32v-64h32v64H160z m-32-32v-64h32v64H128z m-32-32v-64h32v64H96z m832 64h-32v-32h32v32z m0 64v-96h32v96h-32z m0-96h-64v-32h64v32z m-32-32h-64v-32h64v32z m-32-32h-64v-32h64v32z m-32-32h-64v-32h64v32z m-32-32h-64v-32h64v32z m-32-32h-64v-32h64v32z m-32-32h-64v-32h64v32z m-32-32h-64V288h64v32z m-32-32h-64V256h64v32z m-32-32h-64V224h64v32z m-32-32h-64V192h64v32z m-32-32h-64V160h64v32z m-32-32h-64V128h64v32z m-32-32h-64V96h64v32z m64 832h320v32H576v-32z m256 64h-192v-32h192v32z m128-128V576h32v320h-32z m32-64v-192h32v192h-32zM64 480v-96h32v96H64z m-64-96V192h32v192H0z m32 64V128h32v320H32z m32-256V128h32v64H64z m64-64H64V96h64v32z m352-32h-96V64h96v32zM192 96H96V64h96v32z m256-32H128V32h320v32z m-64-32H192V0h192v32z" fill="#070508" p-id="47477"></path></svg>