<?xml version="1.0" standalone="no"?><!DOCTYPE svg PUBLIC "-//W3C//DTD SVG 1.1//EN" "http://www.w3.org/Graphics/SVG/1.1/DTD/svg11.dtd"><svg t="1661318740189" class="icon" viewBox="0 0 1024 1024" version="1.1" xmlns="http://www.w3.org/2000/svg" p-id="36766" xmlns:xlink="http://www.w3.org/1999/xlink" width="200" height="200"><defs><style type="text/css">@font-face { font-family: feedback-iconfont; src: url("//at.alicdn.com/t/font_1031158_u69w8yhxdu.woff2?t=1630033759944") format("woff2"), url("//at.alicdn.com/t/font_1031158_u69w8yhxdu.woff?t=1630033759944") format("woff"), url("//at.alicdn.com/t/font_1031158_u69w8yhxdu.ttf?t=1630033759944") format("truetype"); }
</style></defs><path d="M924.991518 292.569369h48.528517v48.762763h-48.528517zM924.991518 243.806606h48.528517v48.762763h-48.528517zM924.991518 195.047447h48.528517v48.759159h-48.528517zM876.463001 341.332132h48.528517v48.762763h-48.528517z" p-id="36767"></path><path d="M876.463001 292.569369h48.528517v48.762763h-48.528517zM876.463001 243.806606h48.528517v48.762763h-48.528517zM876.463001 195.047447h48.528517v48.759159h-48.528517z" fill="#5A6989" p-id="36768"></path><path d="M876.463001 146.284685h48.528517v48.762762h-48.528517zM827.934484 877.711712h48.528517v48.762762H827.934484z" p-id="36769"></path><path d="M827.934484 828.952553h48.528517v48.759159H827.934484zM827.934484 780.18979h48.528517v48.762763H827.934484zM827.934484 731.427027h48.528517v48.762763H827.934484zM827.934484 682.664264h48.528517v48.762763H827.934484zM827.934484 633.901501h48.528517v48.762763H827.934484zM827.934484 585.142342h48.528517v48.759159H827.934484zM827.934484 536.37958h48.528517v48.762762H827.934484zM827.934484 487.616817h48.528517v48.762763H827.934484zM827.934484 438.854054h48.528517v48.762763H827.934484zM827.934484 390.094895h48.528517v48.759159H827.934484z" p-id="36770"></path><path d="M827.934484 341.332132h48.528517v48.762763H827.934484zM827.934484 292.569369h48.528517v48.762763H827.934484zM827.934484 243.806606h48.528517v48.762763H827.934484z" fill="#1D2033" p-id="36771"></path><path d="M827.934484 195.047447h48.528517v48.759159H827.934484z" fill="#5A6989" p-id="36772"></path><path d="M827.934484 146.284685h48.528517v48.762762H827.934484zM779.405967 926.474474H827.934484v48.762763h-48.528517z" p-id="36773"></path><path d="M779.405967 877.711712H827.934484v48.762762h-48.528517z" fill="#1D2033" p-id="36774"></path><path d="M779.405967 828.952553H827.934484v48.759159h-48.528517z" fill="#5A6989" p-id="36775"></path><path d="M779.405967 780.18979H827.934484v48.762763h-48.528517z" fill="#1D2033" p-id="36776"></path><path d="M779.405967 731.427027H827.934484v48.762763h-48.528517z" fill="#5A6989" p-id="36777"></path><path d="M779.405967 682.664264H827.934484v48.762763h-48.528517z" fill="#FFFFFF" p-id="36778"></path><path d="M779.405967 633.901501H827.934484v48.762763h-48.528517zM779.405967 585.142342H827.934484v48.759159h-48.528517zM779.405967 536.37958H827.934484v48.762762h-48.528517zM779.405967 487.616817H827.934484v48.762763h-48.528517z" fill="#5A6989" p-id="36779"></path><path d="M779.405967 438.854054H827.934484v48.762763h-48.528517z" fill="#1D2033" p-id="36780"></path><path d="M779.405967 390.094895H827.934484v48.759159h-48.528517z" fill="#5A6989" p-id="36781"></path><path d="M779.405967 341.332132H827.934484v48.762763h-48.528517zM779.405967 292.569369H827.934484v48.762763h-48.528517zM779.405967 243.806606H827.934484v48.762763h-48.528517z" fill="#1D2033" p-id="36782"></path><path d="M779.405967 195.047447H827.934484v48.759159h-48.528517z" fill="#5A6989" p-id="36783"></path><path d="M779.405967 146.284685H827.934484v48.762762h-48.528517zM730.873847 975.237237h48.53212v48.762763h-48.53212z" p-id="36784"></path><path d="M730.873847 926.474474h48.53212v48.762763h-48.53212z" fill="#C8D2DE" p-id="36785"></path><path d="M730.873847 877.711712h48.53212v48.762762h-48.53212z" fill="#1D2033" p-id="36786"></path><path d="M730.873847 828.952553h48.53212v48.759159h-48.53212z" fill="#C8D2DE" p-id="36787"></path><path d="M730.873847 780.18979h48.53212v48.762763h-48.53212zM730.873847 731.427027h48.53212v48.762763h-48.53212zM730.873847 682.664264h48.53212v48.762763h-48.53212zM730.873847 633.901501h48.53212v48.762763h-48.53212zM730.873847 585.142342h48.53212v48.759159h-48.53212zM730.873847 536.37958h48.53212v48.762762h-48.53212zM730.873847 487.616817h48.53212v48.762763h-48.53212zM730.873847 438.854054h48.53212v48.762763h-48.53212z" fill="#1D2033" p-id="36788"></path><path d="M730.873847 390.094895h48.53212v48.759159h-48.53212z" fill="#5A6989" p-id="36789"></path><path d="M730.873847 341.332132h48.53212v48.762763h-48.53212z" fill="#1D2033" p-id="36790"></path><path d="M730.873847 292.569369h48.53212v48.762763h-48.53212zM730.873847 243.806606h48.53212v48.762763h-48.53212z" fill="#5A6989" p-id="36791"></path><path d="M730.873847 195.047447h48.53212v48.759159h-48.53212z" fill="#FFFFFF" p-id="36792"></path><path d="M730.873847 146.284685h48.53212v48.762762h-48.53212zM682.34533 975.237237h48.528517v48.762763h-48.528517z" p-id="36793"></path><path d="M682.34533 926.474474h48.528517v48.762763h-48.528517zM682.34533 877.711712h48.528517v48.762762h-48.528517z" fill="#1D2033" p-id="36794"></path><path d="M682.34533 828.952553h48.528517v48.759159h-48.528517z" fill="#FFFFFF" p-id="36795"></path><path d="M682.34533 780.18979h48.528517v48.762763h-48.528517zM682.34533 731.427027h48.528517v48.762763h-48.528517zM682.34533 682.664264h48.528517v48.762763h-48.528517zM682.34533 633.901501h48.528517v48.762763h-48.528517zM682.34533 585.142342h48.528517v48.759159h-48.528517zM682.34533 536.37958h48.528517v48.762762h-48.528517zM682.34533 487.616817h48.528517v48.762763h-48.528517zM682.34533 438.854054h48.528517v48.762763h-48.528517zM682.34533 390.094895h48.528517v48.759159h-48.528517z" fill="#5A6989" p-id="36796"></path><path d="M682.34533 341.332132h48.528517v48.762763h-48.528517z" fill="#1D2033" p-id="36797"></path><path d="M682.34533 292.569369h48.528517v48.762763h-48.528517zM682.34533 243.806606h48.528517v48.762763h-48.528517zM682.34533 195.047447h48.528517v48.759159h-48.528517z" fill="#FFFFFF" p-id="36798"></path><path d="M682.34533 146.284685h48.528517v48.762762h-48.528517zM633.816812 975.237237h48.528518v48.762763h-48.528518z" p-id="36799"></path><path d="M633.816812 926.474474h48.528518v48.762763h-48.528518z" fill="#C8D2DE" p-id="36800"></path><path d="M633.816812 877.711712h48.528518v48.762762h-48.528518z" fill="#1D2033" p-id="36801"></path><path d="M633.816812 828.952553h48.528518v48.759159h-48.528518z" fill="#FFFFFF" p-id="36802"></path><path d="M633.816812 780.18979h48.528518v48.762763h-48.528518zM633.816812 731.427027h48.528518v48.762763h-48.528518zM633.816812 682.664264h48.528518v48.762763h-48.528518zM633.816812 633.901501h48.528518v48.762763h-48.528518zM633.816812 585.142342h48.528518v48.759159h-48.528518zM633.816812 536.37958h48.528518v48.762762h-48.528518zM633.816812 487.616817h48.528518v48.762763h-48.528518zM633.816812 438.854054h48.528518v48.762763h-48.528518z" fill="#1D2033" p-id="36803"></path><path d="M633.816812 390.094895h48.528518v48.759159h-48.528518z" fill="#5A6989" p-id="36804"></path><path d="M633.816812 341.332132h48.528518v48.762763h-48.528518z" fill="#1D2033" p-id="36805"></path><path d="M633.816812 292.569369h48.528518v48.762763h-48.528518zM633.816812 243.806606h48.528518v48.762763h-48.528518z" fill="#C8D2DE" p-id="36806"></path><path d="M633.816812 195.047447h48.528518v48.759159h-48.528518z" fill="#FFFFFF" p-id="36807"></path><path d="M633.816812 146.284685h48.528518v48.762762h-48.528518zM633.816812 97.521922h48.528518v48.762763h-48.528518zM633.816812 48.759159h48.528518V97.521922h-48.528518zM585.288295 975.237237h48.528517v48.762763h-48.528517z" p-id="36808"></path><path d="M585.288295 926.474474h48.528517v48.762763h-48.528517z" fill="#5A6989" p-id="36809"></path><path d="M585.288295 877.711712h48.528517v48.762762h-48.528517z" fill="#1D2033" p-id="36810"></path><path d="M585.288295 828.952553h48.528517v48.759159h-48.528517z" fill="#C8D2DE" p-id="36811"></path><path d="M585.288295 780.18979h48.528517v48.762763h-48.528517z" fill="#1D2033" p-id="36812"></path><path d="M585.288295 731.427027h48.528517v48.762763h-48.528517z" fill="#5A6989" p-id="36813"></path><path d="M585.288295 682.664264h48.528517v48.762763h-48.528517zM585.288295 633.901501h48.528517v48.762763h-48.528517z" fill="#FFFFFF" p-id="36814"></path><path d="M585.288295 585.142342h48.528517v48.759159h-48.528517zM585.288295 536.37958h48.528517v48.762762h-48.528517zM585.288295 487.616817h48.528517v48.762763h-48.528517z" fill="#5A6989" p-id="36815"></path><path d="M585.288295 438.854054h48.528517v48.762763h-48.528517z" fill="#1D2033" p-id="36816"></path><path d="M585.288295 390.094895h48.528517v48.759159h-48.528517z" fill="#5A6989" p-id="36817"></path><path d="M585.288295 341.332132h48.528517v48.762763h-48.528517z" fill="#1D2033" p-id="36818"></path><path d="M585.288295 292.569369h48.528517v48.762763h-48.528517zM585.288295 243.806606h48.528517v48.762763h-48.528517z" fill="#5A6989" p-id="36819"></path><path d="M585.288295 195.047447h48.528517v48.759159h-48.528517z" fill="#C8D2DE" p-id="36820"></path><path d="M585.288295 146.284685h48.528517v48.762762h-48.528517zM585.288295 97.521922h48.528517v48.762763h-48.528517zM585.288295 48.759159h48.528517V97.521922h-48.528517z" fill="#3A4266" p-id="36821"></path><path d="M585.288295 0h48.528517v48.759159h-48.528517zM536.756175 975.237237h48.53212v48.762763h-48.53212z" p-id="36822"></path><path d="M536.756175 926.474474h48.53212v48.762763h-48.53212z" fill="#5A6989" p-id="36823"></path><path d="M536.756175 877.711712h48.53212v48.762762h-48.53212z" fill="#1D2033" p-id="36824"></path><path d="M536.756175 828.952553h48.53212v48.759159h-48.53212z" fill="#5A6989" p-id="36825"></path><path d="M536.756175 780.18979h48.53212v48.762763h-48.53212z" fill="#1D2033" p-id="36826"></path><path d="M536.756175 731.427027h48.53212v48.762763h-48.53212zM536.756175 682.664264h48.53212v48.762763h-48.53212zM536.756175 633.901501h48.53212v48.762763h-48.53212zM536.756175 585.142342h48.53212v48.759159h-48.53212zM536.756175 536.37958h48.53212v48.762762h-48.53212zM536.756175 487.616817h48.53212v48.762763h-48.53212z" fill="#5A6989" p-id="36827"></path><path d="M536.756175 438.854054h48.53212v48.762763h-48.53212z" fill="#1D2033" p-id="36828"></path><path d="M536.756175 390.094895h48.53212v48.759159h-48.53212z" fill="#5A6989" p-id="36829"></path><path d="M536.756175 341.332132h48.53212v48.762763h-48.53212z" fill="#1D2033" p-id="36830"></path><path d="M536.756175 292.569369h48.53212v48.762763h-48.53212zM536.756175 243.806606h48.53212v48.762763h-48.53212z" fill="#3A4266" p-id="36831"></path><path d="M536.756175 195.047447h48.53212v48.759159h-48.53212z" fill="#5A6989" p-id="36832"></path><path d="M536.756175 146.284685h48.53212v48.762762h-48.53212z" p-id="36833"></path><path d="M536.756175 97.521922h48.53212v48.762763h-48.53212z" fill="#1D2033" p-id="36834"></path><path d="M536.756175 48.759159h48.53212V97.521922h-48.53212z" fill="#3A4266" p-id="36835"></path><path d="M536.756175 0h48.53212v48.759159h-48.53212zM488.227658 975.237237h48.528517v48.762763h-48.528517z" p-id="36836"></path><path d="M488.227658 926.474474h48.528517v48.762763h-48.528517zM488.227658 877.711712h48.528517v48.762762h-48.528517z" fill="#1D2033" p-id="36837"></path><path d="M488.227658 828.952553h48.528517v48.759159h-48.528517z" fill="#5A6989" p-id="36838"></path><path d="M488.227658 780.18979h48.528517v48.762763h-48.528517zM488.227658 731.427027h48.528517v48.762763h-48.528517zM488.227658 682.664264h48.528517v48.762763h-48.528517zM488.227658 633.901501h48.528517v48.762763h-48.528517zM488.227658 585.142342h48.528517v48.759159h-48.528517zM488.227658 536.37958h48.528517v48.762762h-48.528517zM488.227658 487.616817h48.528517v48.762763h-48.528517zM488.227658 438.854054h48.528517v48.762763h-48.528517z" fill="#1D2033" p-id="36839"></path><path d="M488.227658 390.094895h48.528517v48.759159h-48.528517z" fill="#5A6989" p-id="36840"></path><path d="M488.227658 341.332132h48.528517v48.762763h-48.528517z" fill="#1D2033" p-id="36841"></path><path d="M488.227658 292.569369h48.528517v48.762763h-48.528517zM488.227658 243.806606h48.528517v48.762763h-48.528517z" fill="#3A4266" p-id="36842"></path><path d="M488.227658 195.047447h48.528517v48.759159h-48.528517z" fill="#5A6989" p-id="36843"></path><path d="M488.227658 146.284685h48.528517v48.762762h-48.528517z" p-id="36844"></path><path d="M488.227658 97.521922h48.528517v48.762763h-48.528517z" fill="#1D2033" p-id="36845"></path><path d="M488.227658 48.759159h48.528517V97.521922h-48.528517z" fill="#3A4266" p-id="36846"></path><path d="M488.227658 0h48.528517v48.759159h-48.528517zM439.699141 975.237237h48.528517v48.762763H439.699141z" p-id="36847"></path><path d="M439.699141 926.474474h48.528517v48.762763H439.699141zM439.699141 877.711712h48.528517v48.762762H439.699141z" fill="#1D2033" p-id="36848"></path><path d="M439.699141 828.952553h48.528517v48.759159H439.699141zM439.699141 780.18979h48.528517v48.762763H439.699141zM439.699141 731.427027h48.528517v48.762763H439.699141zM439.699141 682.664264h48.528517v48.762763H439.699141zM439.699141 633.901501h48.528517v48.762763H439.699141zM439.699141 585.142342h48.528517v48.759159H439.699141zM439.699141 536.37958h48.528517v48.762762H439.699141zM439.699141 487.616817h48.528517v48.762763H439.699141zM439.699141 438.854054h48.528517v48.762763H439.699141z" fill="#5A6989" p-id="36849"></path><path d="M439.699141 390.094895h48.528517v48.759159H439.699141z" fill="#3A4266" p-id="36850"></path><path d="M439.699141 341.332132h48.528517v48.762763H439.699141z" fill="#1D2033" p-id="36851"></path><path d="M439.699141 292.569369h48.528517v48.762763H439.699141zM439.699141 243.806606h48.528517v48.762763H439.699141zM439.699141 195.047447h48.528517v48.759159H439.699141z" fill="#3A4266" p-id="36852"></path><path d="M439.699141 146.284685h48.528517v48.762762H439.699141z" fill="#1D2033" p-id="36853"></path><path d="M439.699141 97.521922h48.528517v48.762763H439.699141zM439.699141 48.759159h48.528517V97.521922H439.699141z" fill="#FFFFFF" p-id="36854"></path><path d="M439.699141 0h48.528517v48.759159H439.699141zM391.170624 975.237237h48.528517v48.762763h-48.528517z" p-id="36855"></path><path d="M391.170624 926.474474h48.528517v48.762763h-48.528517zM391.170624 877.711712h48.528517v48.762762h-48.528517z" fill="#1D2033" p-id="36856"></path><path d="M391.170624 828.952553h48.528517v48.759159h-48.528517z" fill="#5A6989" p-id="36857"></path><path d="M391.170624 780.18979h48.528517v48.762763h-48.528517zM391.170624 731.427027h48.528517v48.762763h-48.528517z" fill="#1D2033" p-id="36858"></path><path d="M391.170624 682.664264h48.528517v48.762763h-48.528517z" fill="#C8D2DE" p-id="36859"></path><path d="M391.170624 633.901501h48.528517v48.762763h-48.528517zM391.170624 585.142342h48.528517v48.759159h-48.528517zM391.170624 536.37958h48.528517v48.762762h-48.528517zM391.170624 487.616817h48.528517v48.762763h-48.528517zM391.170624 438.854054h48.528517v48.762763h-48.528517z" fill="#1D2033" p-id="36860"></path><path d="M391.170624 390.094895h48.528517v48.759159h-48.528517z" fill="#3A4266" p-id="36861"></path><path d="M391.170624 341.332132h48.528517v48.762763h-48.528517z" fill="#1D2033" p-id="36862"></path><path d="M391.170624 292.569369h48.528517v48.762763h-48.528517zM391.170624 243.806606h48.528517v48.762763h-48.528517zM391.170624 195.047447h48.528517v48.759159h-48.528517z" fill="#3A4266" p-id="36863"></path><path d="M391.170624 146.284685h48.528517v48.762762h-48.528517zM391.170624 97.521922h48.528517v48.762763h-48.528517z" fill="#3A4266" p-id="36864"></path><path d="M391.170624 48.759159h48.528517V97.521922h-48.528517z" fill="#FFFFFF" p-id="36865"></path><path d="M391.170624 0h48.528517v48.759159h-48.528517zM342.642107 975.237237h48.528517v48.762763H342.642107z" p-id="36866"></path><path d="M342.642107 926.474474h48.528517v48.762763H342.642107zM342.642107 877.711712h48.528517v48.762762H342.642107z" fill="#1D2033" p-id="36867"></path><path d="M342.642107 828.952553h48.528517v48.759159H342.642107z" fill="#5A6989" p-id="36868"></path><path d="M342.642107 780.18979h48.528517v48.762763H342.642107zM342.642107 731.427027h48.528517v48.762763H342.642107zM342.642107 682.664264h48.528517v48.762763H342.642107zM342.642107 633.901501h48.528517v48.762763H342.642107zM342.642107 585.142342h48.528517v48.759159H342.642107zM342.642107 536.37958h48.528517v48.762762H342.642107zM342.642107 487.616817h48.528517v48.762763H342.642107zM342.642107 438.854054h48.528517v48.762763H342.642107z" fill="#1D2033" p-id="36869"></path><path d="M342.642107 390.094895h48.528517v48.759159H342.642107z" fill="#3A4266" p-id="36870"></path><path d="M342.642107 341.332132h48.528517v48.762763H342.642107zM342.642107 292.569369h48.528517v48.762763H342.642107zM342.642107 243.806606h48.528517v48.762763H342.642107z" fill="#1D2033" p-id="36871"></path><path d="M342.642107 146.284685h48.528517v48.762762H342.642107zM342.642107 97.521922h48.528517v48.762763H342.642107zM342.642107 48.759159h48.528517V97.521922H342.642107zM294.109986 975.237237h48.532121v48.762763H294.109986z" p-id="36872"></path><path d="M294.109986 926.474474h48.532121v48.762763H294.109986z" fill="#5A6989" p-id="36873"></path><path d="M294.109986 877.711712h48.532121v48.762762H294.109986z" fill="#1D2033" p-id="36874"></path><path d="M294.109986 828.952553h48.532121v48.759159H294.109986zM294.109986 780.18979h48.532121v48.762763H294.109986zM294.109986 731.427027h48.532121v48.762763H294.109986zM294.109986 682.664264h48.532121v48.762763H294.109986zM294.109986 633.901501h48.532121v48.762763H294.109986zM294.109986 585.142342h48.532121v48.759159H294.109986zM294.109986 536.37958h48.532121v48.762762H294.109986zM294.109986 487.616817h48.532121v48.762763H294.109986zM294.109986 438.854054h48.532121v48.762763H294.109986z" fill="#5A6989" p-id="36875"></path><path d="M294.109986 390.094895h48.532121v48.759159H294.109986z" fill="#3A4266" p-id="36876"></path><path d="M294.109986 341.332132h48.532121v48.762763H294.109986zM294.109986 292.569369h48.532121v48.762763H294.109986zM294.109986 243.806606h48.532121v48.762763H294.109986zM294.109986 195.047447h48.532121v48.759159H294.109986z" fill="#1D2033" p-id="36877"></path><path d="M294.109986 146.284685h48.532121v48.762762H294.109986zM245.581469 975.237237h48.528517v48.762763H245.581469z" p-id="36878"></path><path d="M245.581469 926.474474h48.528517v48.762763H245.581469z" fill="#5A6989" p-id="36879"></path><path d="M245.581469 877.711712h48.528517v48.762762H245.581469z" fill="#1D2033" p-id="36880"></path><path d="M245.581469 828.952553h48.528517v48.759159H245.581469z" fill="#5A6989" p-id="36881"></path><path d="M245.581469 780.18979h48.528517v48.762763H245.581469zM245.581469 731.427027h48.528517v48.762763H245.581469zM245.581469 682.664264h48.528517v48.762763H245.581469zM245.581469 633.901501h48.528517v48.762763H245.581469zM245.581469 585.142342h48.528517v48.759159H245.581469zM245.581469 536.37958h48.528517v48.762762H245.581469zM245.581469 487.616817h48.528517v48.762763H245.581469zM245.581469 438.854054h48.528517v48.762763H245.581469z" fill="#1D2033" p-id="36882"></path><path d="M245.581469 390.094895h48.528517v48.759159H245.581469z" fill="#3A4266" p-id="36883"></path><path d="M245.581469 341.332132h48.528517v48.762763H245.581469zM245.581469 292.569369h48.528517v48.762763H245.581469zM245.581469 243.806606h48.528517v48.762763H245.581469zM245.581469 195.047447h48.528517v48.759159H245.581469z" fill="#1D2033" p-id="36884"></path><path d="M245.581469 146.284685h48.528517v48.762762H245.581469zM197.052952 926.474474h48.528517v48.762763H197.052952z" p-id="36885"></path><path d="M197.052952 877.711712h48.528517v48.762762H197.052952z" fill="#1D2033" p-id="36886"></path><path d="M197.052952 828.952553h48.528517v48.759159H197.052952z" fill="#1D2033" p-id="36887"></path><path d="M197.052952 780.18979h48.528517v48.762763H197.052952zM197.052952 731.427027h48.528517v48.762763H197.052952zM197.052952 682.664264h48.528517v48.762763H197.052952zM197.052952 633.901501h48.528517v48.762763H197.052952zM197.052952 585.142342h48.528517v48.759159H197.052952zM197.052952 536.37958h48.528517v48.762762H197.052952zM197.052952 487.616817h48.528517v48.762763H197.052952z" fill="#C8D2DE" p-id="36888"></path><path d="M197.052952 438.854054h48.528517v48.762763H197.052952zM197.052952 390.094895h48.528517v48.759159H197.052952zM197.052952 341.332132h48.528517v48.762763H197.052952zM197.052952 292.569369h48.528517v48.762763H197.052952zM197.052952 243.806606h48.528517v48.762763H197.052952z" fill="#1D2033" p-id="36889"></path><path d="M197.052952 195.047447h48.528517v48.759159H197.052952z" fill="#525F7F" p-id="36890"></path><path d="M197.052952 146.284685h48.528517v48.762762H197.052952zM148.524435 877.711712h48.528517v48.762762H148.524435z" p-id="36891"></path><path d="M148.524435 828.952553h48.528517v48.759159H148.524435zM148.524435 780.18979h48.528517v48.762763H148.524435zM148.524435 731.427027h48.528517v48.762763H148.524435zM148.524435 682.664264h48.528517v48.762763H148.524435zM148.524435 633.901501h48.528517v48.762763H148.524435zM148.524435 585.142342h48.528517v48.759159H148.524435zM148.524435 536.37958h48.528517v48.762762H148.524435zM148.524435 487.616817h48.528517v48.762763H148.524435zM148.524435 438.854054h48.528517v48.762763H148.524435zM148.524435 390.094895h48.528517v48.759159H148.524435z" p-id="36892"></path><path d="M148.524435 341.332132h48.528517v48.762763H148.524435z" fill="#1D2033" p-id="36893"></path><path d="M148.524435 292.569369h48.528517v48.762763H148.524435zM148.524435 243.806606h48.528517v48.762763H148.524435zM148.524435 195.047447h48.528517v48.759159H148.524435z" fill="#5A6989" p-id="36894"></path><path d="M148.524435 146.284685h48.528517v48.762762H148.524435zM99.995918 341.332132h48.528517v48.762763H99.995918zM99.995918 292.569369h48.528517v48.762763H99.995918z" p-id="36895"></path><path d="M99.995918 243.806606h48.528517v48.762763H99.995918z" fill="#5A6989" p-id="36896"></path><path d="M99.995918 195.047447h48.528517v48.759159H99.995918zM51.463797 292.569369h48.532121v48.762763H51.463797zM51.463797 243.806606h48.532121v48.762763H51.463797zM51.463797 195.047447h48.532121v48.759159H51.463797z" p-id="36897"></path></svg>