<?xml version="1.0" standalone="no"?><!DOCTYPE svg PUBLIC "-//W3C//DTD SVG 1.1//EN" "http://www.w3.org/Graphics/SVG/1.1/DTD/svg11.dtd"><svg t="1661318610250" class="icon" viewBox="0 0 1024 1024" version="1.1" xmlns="http://www.w3.org/2000/svg" p-id="1172" xmlns:xlink="http://www.w3.org/1999/xlink" width="200" height="200"><defs><style type="text/css">@font-face { font-family: feedback-iconfont; src: url("//at.alicdn.com/t/font_1031158_u69w8yhxdu.woff2?t=1630033759944") format("woff2"), url("//at.alicdn.com/t/font_1031158_u69w8yhxdu.woff?t=1630033759944") format("woff"), url("//at.alicdn.com/t/font_1031158_u69w8yhxdu.ttf?t=1630033759944") format("truetype"); }
</style></defs><path d="M945.230769 393.846154h78.769231v78.769231h-78.769231zM945.230769 315.076923h78.769231v78.769231h-78.769231zM945.230769 236.307692h78.769231v78.769231h-78.769231zM945.230769 157.538462h78.769231v78.76923h-78.769231zM866.461538 393.846154h78.769231v78.769231h-78.769231zM866.461538 157.538462h78.769231v78.76923h-78.769231zM787.692308 472.615385h78.76923v78.76923h-78.76923zM787.692308 393.846154h78.76923v78.769231h-78.76923zM787.692308 315.076923h78.76923v78.769231h-78.76923zM787.692308 236.307692h78.76923v78.769231h-78.76923zM787.692308 157.538462h78.76923v78.76923h-78.76923zM787.692308 78.769231h78.76923v78.769231h-78.76923zM787.692308 0h78.76923v78.769231h-78.76923zM708.923077 945.230769h78.769231v78.769231h-78.769231zM708.923077 551.384615h78.769231v78.769231h-78.769231z" fill="#1E2028" p-id="1173"></path><path d="M708.923077 472.615385h78.769231v78.76923h-78.769231zM708.923077 393.846154h78.769231v78.769231h-78.769231zM708.923077 315.076923h78.769231v78.769231h-78.769231zM708.923077 236.307692h78.769231v78.769231h-78.769231zM708.923077 157.538462h78.769231v78.76923h-78.769231z" fill="#FF9343" p-id="1174"></path><path d="M708.923077 78.769231h78.769231v78.769231h-78.769231z" fill="#FFDD4D" p-id="1175"></path><path d="M708.923077 0h78.769231v78.769231h-78.769231zM630.153846 945.230769h78.769231v78.769231h-78.769231zM630.153846 866.461538h78.769231v78.769231h-78.769231zM630.153846 630.153846h78.769231v78.769231h-78.769231z" fill="#1E2028" p-id="1176"></path><path d="M630.153846 551.384615h78.769231v78.769231h-78.769231z" fill="#FF9343" p-id="1177"></path><path d="M630.153846 472.615385h78.769231v78.76923h-78.769231zM630.153846 393.846154h78.769231v78.769231h-78.769231zM630.153846 315.076923h78.769231v78.769231h-78.769231zM630.153846 236.307692h78.769231v78.769231h-78.769231zM630.153846 157.538462h78.769231v78.76923h-78.769231zM630.153846 78.769231h78.769231v78.769231h-78.769231z" fill="#FFDD4D" p-id="1178"></path><path d="M630.153846 0h78.769231v78.769231h-78.769231zM551.384615 945.230769h78.769231v78.769231h-78.769231z" fill="#1E2028" p-id="1179"></path><path d="M551.384615 866.461538h78.769231v78.769231h-78.769231z" fill="#FF9343" p-id="1180"></path><path d="M551.384615 787.692308h78.769231v78.76923h-78.769231zM551.384615 630.153846h78.769231v78.769231h-78.769231z" fill="#1E2028" p-id="1181"></path><path d="M551.384615 551.384615h78.769231v78.769231h-78.769231z" fill="#FF9343" p-id="1182"></path><path d="M551.384615 472.615385h78.769231v78.76923h-78.769231zM551.384615 393.846154h78.769231v78.769231h-78.769231zM551.384615 315.076923h78.769231v78.769231h-78.769231zM551.384615 236.307692h78.769231v78.769231h-78.769231zM551.384615 157.538462h78.769231v78.76923h-78.769231zM551.384615 78.769231h78.769231v78.769231h-78.769231z" fill="#FFDD4D" p-id="1183"></path><path d="M551.384615 0h78.769231v78.769231h-78.769231zM472.615385 945.230769h78.76923v78.769231h-78.76923z" fill="#1E2028" p-id="1184"></path><path d="M472.615385 866.461538h78.76923v78.769231h-78.76923z" fill="#FF9343" p-id="1185"></path><path d="M472.615385 787.692308h78.76923v78.76923h-78.76923zM472.615385 708.923077h78.76923v78.769231h-78.76923zM472.615385 630.153846h78.76923v78.769231h-78.76923z" fill="#1E2028" p-id="1186"></path><path d="M472.615385 551.384615h78.76923v78.769231h-78.76923z" fill="#FF9343" p-id="1187"></path><path d="M472.615385 472.615385h78.76923v78.76923h-78.76923zM472.615385 393.846154h78.76923v78.769231h-78.76923zM472.615385 315.076923h78.76923v78.769231h-78.76923zM472.615385 236.307692h78.76923v78.769231h-78.76923zM472.615385 157.538462h78.76923v78.76923h-78.76923zM472.615385 78.769231h78.76923v78.769231h-78.76923z" fill="#FFDD4D" p-id="1188"></path><path d="M472.615385 0h78.76923v78.769231h-78.76923zM393.846154 945.230769h78.769231v78.769231h-78.769231z" fill="#1E2028" p-id="1189"></path><path d="M393.846154 866.461538h78.769231v78.769231h-78.769231z" fill="#FFF1B6" p-id="1190"></path><path d="M393.846154 787.692308h78.769231v78.76923h-78.769231zM393.846154 630.153846h78.769231v78.769231h-78.769231z" fill="#1E2028" p-id="1191"></path><path d="M393.846154 551.384615h78.769231v78.769231h-78.769231z" fill="#FF9343" p-id="1192"></path><path d="M393.846154 472.615385h78.769231v78.76923h-78.769231zM393.846154 393.846154h78.769231v78.769231h-78.769231zM393.846154 315.076923h78.769231v78.769231h-78.769231zM393.846154 236.307692h78.769231v78.769231h-78.769231zM393.846154 157.538462h78.769231v78.76923h-78.769231zM393.846154 78.769231h78.769231v78.769231h-78.769231z" fill="#FFDD4D" p-id="1193"></path><path d="M393.846154 0h78.769231v78.769231h-78.769231zM315.076923 945.230769h78.769231v78.769231h-78.769231zM315.076923 866.461538h78.769231v78.769231h-78.769231zM315.076923 630.153846h78.769231v78.769231h-78.769231z" fill="#1E2028" p-id="1194"></path><path d="M315.076923 551.384615h78.769231v78.769231h-78.769231z" fill="#FFF1B6" p-id="1195"></path><path d="M315.076923 472.615385h78.769231v78.76923h-78.769231zM315.076923 393.846154h78.769231v78.769231h-78.769231zM315.076923 315.076923h78.769231v78.769231h-78.769231z" fill="#FFDD4D" p-id="1196"></path><path d="M315.076923 236.307692h78.769231v78.769231h-78.769231zM315.076923 157.538462h78.769231v78.76923h-78.769231z" fill="#FFFFFF" p-id="1197"></path><path d="M315.076923 78.769231h78.769231v78.769231h-78.769231z" fill="#FFDD4D" p-id="1198"></path><path d="M315.076923 0h78.769231v78.769231h-78.769231zM236.307692 945.230769h78.769231v78.769231h-78.769231zM236.307692 551.384615h78.769231v78.769231h-78.769231z" fill="#1E2028" p-id="1199"></path><path d="M236.307692 472.615385h78.769231v78.76923h-78.769231zM236.307692 393.846154h78.769231v78.769231h-78.769231zM236.307692 315.076923h78.769231v78.769231h-78.769231zM236.307692 236.307692h78.769231v78.769231h-78.769231zM236.307692 157.538462h78.769231v78.76923h-78.769231zM236.307692 78.769231h78.769231v78.769231h-78.769231z" fill="#FFF1B6" p-id="1200"></path><path d="M236.307692 0h78.769231v78.769231h-78.769231zM157.538462 472.615385h78.76923v78.76923H157.538462zM157.538462 393.846154h78.76923v78.769231H157.538462zM157.538462 315.076923h78.76923v78.769231H157.538462zM157.538462 236.307692h78.76923v78.769231H157.538462zM157.538462 157.538462h78.76923v78.76923H157.538462zM157.538462 78.769231h78.76923v78.769231H157.538462zM157.538462 0h78.76923v78.769231H157.538462zM78.769231 393.846154h78.769231v78.769231H78.769231zM78.769231 157.538462h78.769231v78.76923H78.769231zM0 393.846154h78.769231v78.769231H0zM0 315.076923h78.769231v78.769231H0zM0 236.307692h78.769231v78.769231H0zM0 157.538462h78.769231v78.76923H0z" fill="#1E2028" p-id="1201"></path></svg>