<?xml version="1.0" standalone="no"?><!DOCTYPE svg PUBLIC "-//W3C//DTD SVG 1.1//EN" "http://www.w3.org/Graphics/SVG/1.1/DTD/svg11.dtd"><svg t="1661319220292" class="icon" viewBox="0 0 1024 1024" version="1.1" xmlns="http://www.w3.org/2000/svg" p-id="72566" xmlns:xlink="http://www.w3.org/1999/xlink" width="200" height="200"><defs><style type="text/css">@font-face { font-family: feedback-iconfont; src: url("//at.alicdn.com/t/font_1031158_u69w8yhxdu.woff2?t=1630033759944") format("woff2"), url("//at.alicdn.com/t/font_1031158_u69w8yhxdu.woff?t=1630033759944") format("woff"), url("//at.alicdn.com/t/font_1031158_u69w8yhxdu.ttf?t=1630033759944") format("truetype"); }
</style></defs><path d="M807.68 730.68h59.56v59.55h-59.56z" fill="#333333" p-id="72567"></path><path d="M807.68 671.12h59.56v59.56h-59.56zM807.68 611.57h59.56v59.55h-59.56zM807.68 552h59.56v59.56h-59.56zM807.68 492.45h59.56V552h-59.56zM807.68 432.88h59.56v59.56h-59.56zM807.68 373.33h59.56v59.55h-59.56zM807.68 313.76h59.56v59.56h-59.56zM807.68 254.21h59.56v59.55h-59.56zM748.12 790.24h59.55v59.56h-59.55z" fill="#333333" p-id="72568"></path><path d="M748.12 730.68h59.55v59.55h-59.55z" fill="#07AA6F" p-id="72569"></path><path d="M748.12 671.12h59.55v59.56h-59.55zM748.12 611.57h59.55v59.55h-59.55zM748.12 552h59.55v59.56h-59.55zM748.12 492.45h59.55V552h-59.55zM748.12 432.88h59.55v59.56h-59.55zM748.12 373.33h59.55v59.55h-59.55zM748.12 313.76h59.55v59.56h-59.55zM748.12 254.21h59.55v59.55h-59.55z" fill="#07AA6F" p-id="72570"></path><path d="M748.12 194.64h59.55v59.56h-59.55zM688.56 790.24h59.56v59.56h-59.56z" fill="#333333" p-id="72571"></path><path d="M688.56 730.68h59.56v59.55h-59.56z" fill="#15BA83" p-id="72572"></path><path d="M688.56 671.12h59.56v59.56h-59.56zM688.56 611.57h59.56v59.55h-59.56zM688.56 552h59.56v59.56h-59.56zM688.56 492.45h59.56V552h-59.56zM688.56 432.88h59.56v59.56h-59.56zM688.56 373.33h59.56v59.55h-59.56zM688.56 313.76h59.56v59.56h-59.56zM688.56 254.21h59.56v59.55h-59.56zM688.56 194.64h59.56v59.56h-59.56z" fill="#15BA83" p-id="72573"></path><path d="M688.56 135.09h59.56v59.55h-59.56zM629 790.24h59.55v59.56H629z" fill="#333333" p-id="72574"></path><path d="M629 730.68h59.55v59.55H629z" fill="#5DE2B2" p-id="72575"></path><path d="M629 671.12h59.55v59.56H629zM629 611.57h59.55v59.55H629zM629 552h59.55v59.56H629zM629 492.45h59.55V552H629zM629 432.88h59.55v59.56H629zM629 373.33h59.55v59.55H629zM629 313.76h59.55v59.56H629zM629 254.21h59.55v59.55H629z" fill="#333333" p-id="72576"></path><path d="M629 194.64h59.55v59.56H629z" fill="#5DE2B2" p-id="72577"></path><path d="M629 135.09h59.55v59.55H629zM569.44 790.24H629v59.56h-59.56zM569.44 730.68H629v59.55h-59.56z" fill="#333333" p-id="72578"></path><path d="M569.44 671.12H629v59.56h-59.56zM569.44 611.57H629v59.55h-59.56zM569.44 552H629v59.56h-59.56zM569.44 492.45H629V552h-59.56zM569.44 432.88H629v59.56h-59.56zM569.44 373.33H629v59.55h-59.56zM569.44 313.76H629v59.56h-59.56zM569.44 254.21H629v59.55h-59.56z" fill="#EFEDE8" p-id="72579"></path><path d="M569.44 194.64H629v59.56h-59.56zM569.44 135.09H629v59.55h-59.56zM509.89 790.24h59.55v59.56h-59.55z" fill="#333333" p-id="72580"></path><path d="M509.89 730.68h59.55v59.55h-59.55z" fill="#EFEDE8" p-id="72581"></path><path d="M509.89 671.12h59.55v59.56h-59.55z" fill="#EFEDE8" p-id="72582"></path><path d="M509.89 611.57h59.55v59.55h-59.55zM509.89 552h59.55v59.56h-59.55z" fill="#FFFDF8" p-id="72583"></path><path d="M509.89 492.45h59.55V552h-59.55zM509.89 432.88h59.55v59.56h-59.55zM509.89 373.33h59.55v59.55h-59.55z" fill="#FF5F5F" p-id="72584"></path><path d="M509.89 313.76h59.55v59.56h-59.55zM509.89 254.21h59.55v59.55h-59.55zM509.89 194.64h59.55v59.56h-59.55z" fill="#EFEDE8" p-id="72585"></path><path d="M509.89 135.09h59.55v59.55h-59.55zM450.32 790.24h59.56v59.56h-59.56z" fill="#333333" p-id="72586"></path><path d="M450.32 730.68h59.56v59.55h-59.56z" fill="#EFEDE8" p-id="72587"></path><path d="M450.32 671.12h59.56v59.56h-59.56zM450.32 611.57h59.56v59.55h-59.56zM450.32 552h59.56v59.56h-59.56z" fill="#FFFDF8" p-id="72588"></path><path d="M450.32 492.45h59.56V552h-59.56z" fill="#FF5F5F" p-id="72589"></path><path d="M450.32 432.88h59.56v59.56h-59.56z" fill="#FFFDF8" p-id="72590"></path><path d="M450.32 373.33h59.56v59.55h-59.56z" fill="#FF7171" p-id="72591"></path><path d="M450.32 313.76h59.56v59.56h-59.56zM450.32 254.21h59.56v59.55h-59.56z" fill="#FFFDF8" p-id="72592"></path><path d="M450.32 194.64h59.56v59.56h-59.56z" fill="#EFEDE8" p-id="72593"></path><path d="M450.32 135.09h59.56v59.55h-59.56zM390.77 790.24h59.55v59.56h-59.55z" fill="#333333" p-id="72594"></path><path d="M390.77 730.68h59.55v59.55h-59.55z" fill="#EFEDE8" p-id="72595"></path><path d="M390.77 671.12h59.55v59.56h-59.55z" fill="#FFFDF8" p-id="72596"></path><path d="M390.77 611.57h59.55v59.55h-59.55zM390.77 552h59.55v59.56h-59.55z" fill="#FF5F5F" p-id="72597"></path><path d="M390.77 492.45h59.55V552h-59.55zM390.77 432.88h59.55v59.56h-59.55zM390.77 373.33h59.55v59.55h-59.55z" fill="#FF7171" p-id="72598"></path><path d="M390.77 313.76h59.55v59.56h-59.55z" fill="#FF9999" p-id="72599"></path><path d="M390.77 254.21h59.55v59.55h-59.55z" fill="#FFFDF8" p-id="72600"></path><path d="M390.77 194.64h59.55v59.56h-59.55z" fill="#EFEDE8" p-id="72601"></path><path d="M390.77 135.09h59.55v59.55h-59.55zM331.2 790.24h59.56v59.56H331.2z" fill="#333333" p-id="72602"></path><path d="M331.2 730.68h59.56v59.55H331.2z" fill="#EFEDE8" p-id="72603"></path><path d="M331.2 671.12h59.56v59.56H331.2zM331.2 611.57h59.56v59.55H331.2zM331.2 552h59.56v59.56H331.2z" fill="#FFFDF8" p-id="72604"></path><path d="M331.2 492.45h59.56V552H331.2z" fill="#FF7171" p-id="72605"></path><path d="M331.2 432.88h59.56v59.56H331.2z" fill="#FFFDF8" p-id="72606"></path><path d="M331.2 373.33h59.56v59.55H331.2z" fill="#FF9999" p-id="72607"></path><path d="M331.2 313.76h59.56v59.56H331.2zM331.2 254.21h59.56v59.55H331.2z" fill="#FFFDF8" p-id="72608"></path><path d="M331.2 194.64h59.56v59.56H331.2z" fill="#EFEDE8" p-id="72609"></path><path d="M331.2 135.09h59.56v59.55H331.2zM271.65 790.24h59.55v59.56h-59.55z" fill="#333333" p-id="72610"></path><path d="M271.65 730.68h59.55v59.55h-59.55z" fill="#FFFDF8" p-id="72611"></path><path d="M271.65 671.12h59.55v59.56h-59.55zM271.65 611.57h59.55v59.55h-59.55zM271.65 552h59.55v59.56h-59.55z" fill="#FFFDF8" p-id="72612"></path><path d="M271.65 492.45h59.55V552h-59.55z" fill="#FF7171" p-id="72613"></path><path d="M271.65 432.88h59.55v59.56h-59.55zM271.65 373.33h59.55v59.55h-59.55z" fill="#FF9999" p-id="72614"></path><path d="M271.65 313.76h59.55v59.56h-59.55zM271.65 254.21h59.55v59.55h-59.55z" fill="#FFFDF8" p-id="72615"></path><path d="M271.65 194.64h59.55v59.56h-59.55z" fill="#EFEDE8" p-id="72616"></path><path d="M271.65 135.09h59.55v59.55h-59.55zM212.08 790.24h59.56v59.56h-59.56zM212.08 730.68h59.56v59.55h-59.56z" fill="#333333" p-id="72617"></path><path d="M212.08 671.12h59.56v59.56h-59.56zM212.08 611.57h59.56v59.55h-59.56zM212.08 552h59.56v59.56h-59.56zM212.08 492.45h59.56V552h-59.56zM212.08 432.88h59.56v59.56h-59.56zM212.08 373.33h59.56v59.55h-59.56zM212.08 313.76h59.56v59.56h-59.56zM212.08 254.21h59.56v59.55h-59.56z" fill="#FFFDF8" p-id="72618"></path><path d="M212.08 194.64h59.56v59.56h-59.56zM152.53 671.12h59.55v59.56h-59.55zM152.53 611.57h59.55v59.55h-59.55zM152.53 552h59.55v59.56h-59.55zM152.53 492.45h59.55V552h-59.55zM152.53 432.88h59.55v59.56h-59.55zM152.53 373.33h59.55v59.55h-59.55zM152.53 313.76h59.55v59.56h-59.55zM152.53 254.21h59.55v59.55h-59.55z" fill="#333333" p-id="72619"></path></svg>