<?xml version="1.0" standalone="no"?><!DOCTYPE svg PUBLIC "-//W3C//DTD SVG 1.1//EN" "http://www.w3.org/Graphics/SVG/1.1/DTD/svg11.dtd"><svg t="1661318784855" class="icon" viewBox="0 0 1024 1024" version="1.1" xmlns="http://www.w3.org/2000/svg" p-id="58609" xmlns:xlink="http://www.w3.org/1999/xlink" width="200" height="200"><defs><style type="text/css">@font-face { font-family: feedback-iconfont; src: url("//at.alicdn.com/t/font_1031158_u69w8yhxdu.woff2?t=1630033759944") format("woff2"), url("//at.alicdn.com/t/font_1031158_u69w8yhxdu.woff?t=1630033759944") format("woff"), url("//at.alicdn.com/t/font_1031158_u69w8yhxdu.ttf?t=1630033759944") format("truetype"); }
</style></defs><path d="M544 672h-64v-32h64v32z m-96-64h128v32h-128v-32z m160 0h-160v-32h160v32z m64-288v64h-32v-64h32z m64-32v128h-32V288h32z m-64 128V288h32v128h-32z m-352 0V288h32v128h-32z m64-128v128h-32V288h32z m320-160V96h32v32h-32z m32-32h-96V64h96v32z m32-32v96h-32V64h32z m32 32v96h-32V96h32z m32 32v96h-32V128h32z m32 32v128h-32V160h32z m32 64v160h-32V224h32z m32 64v256h-32V288h32z m32 128v256h-32v-256h32z m-32 544v-32h32v32h-32z m64-32v-192h32v192h-32z m0-352v384h-32V576h32z m-224 416h160v32h-160v-32z m192 0h-256v-32h256v32z m-192-32h-96v-32h96v32z m-32-32h-128v-32h128v32z m-32-32h-96v-32h96v32z m0-32h-96v-32h96v32z m-64 96h-64v-32h64v32z m-64 64h-128v-32h128v32z m64-32h-256v-32h256v32z m-192-32h-64v-32h64v32z m-96 0H256v-32h96v32z m64-32H288v-32h128v32z m0-32h-96v-32h96v32z m0-32h-96v-32h96v32zM96 928h32v32H96v-32z m32 64h160v32H128v-32z m192 0H96v-32h224v32z m-256 0v-96h32v96H64z m-64-96v-160h32v160H0z m32 64V608h32v352H32z m32-224v-288h32v288H64z m32-160v-256h32v256H96z m32-128V224h32v224H128z m32-128V160h32v160H160z m32-96V160h32v64H192z m32-64h32v32H224V160zM192 128h96v32H192V128z m32-32h96v32H224V96z m160 0H256V64h128v32z m320-32H320V32h384v32z m-64-32h-256V0h256v32z" fill="#080607" p-id="58610"></path><path d="M672 96v160h-32V96h32z m0 160V128h32v128h-32z m64-96v96h-32V160h32z m0 160V160h32v160h-32z m64-96v224h-32V224h32z m-64 288v-128h32v128h-32z m-32-32v-64h32v64h-32z m-32 0v-64h32v64h-32z m-32 0v-64h32v64h-32z m-32 0V96h32v384h-32z m-32-32V96h32v352h-32z m-32-32V96h32v320h-32z" fill="#BD9772" p-id="58611"></path><path d="M736 800v64h-32v-64h32z m224 0v64h-32v-64h32z m-64 128v-288h32v288h-32z m0-416v416h-32V512h32z m-128 32v384h-32V544h32z m0 384V480h32v448h-32z m96-576v608h-32V352h32z m-64 608V256h32v704h-32zM64 864v-32h32v32H64z m64-160v224H96v-224h32z m0 256V544h32v416H128z m64-576v576H160V384h32z m128 416v96H288v-96h32z m-64 128V512h32v416H256z m0-448v480H224V480h32zM192 960V288h32v672H192z" fill="#885E3E" p-id="58612"></path><path d="M544 800h-32v-32h32v32z m-64 0h96v32h-96v-32z m128 64h-192v-32h192v32z m-192 0h192v32h-192v-32z m160 64h-128v-32h128v32z m-96 0h64v32h-64v-32z" fill="#EB1832" p-id="58613"></path><path d="M448 928h32v32h-32v-32z m96 0h32v32h-32v-32z m64 0h-32v-32h32v32z" fill="#89111B" p-id="58614"></path><path d="M672 128V96h32v32h-32zM352 128h-32V96h32v32z m64-32h-32V64h32v32z m224 0h-64V64h64v32zM224 224v64H192V224h32z m-32 96v64H160v-64h32z m-32 128v96H128v-96h32z m-32 128v128H96v-128h32z m-64 256v-96h32v96H64z m0 64v-32h32v32H64z" fill="#53463D" p-id="58615"></path><path d="M640 288V256h32v32h-32z m128-64V192h32v32h-32z m-64-64V128h32v32h-32zM224 480v-32h32v32H224z m416-64v-32h32v32h-32z m128 64v-32h32v32h-32z m-32-192h-32V256h32v32z m128 32v32h-32v-32h32z m64 288v32h-32v-32h32z m-32-160v64h-32v-64h32zM352 800v32h-32v-32h32z m352 0v32h-32v-32h32z m32 64v32h-32v-32h32z m32 64h32v32h-32v-32z m96 0h32v32h-32v-32z m96-64v32h-32v-32h32z m0-128v64h-32v-64h32z" fill="#885D3B" p-id="58616"></path><path d="M288 256h32v32H288V256z m0 128h32v32H288v-32z m-32 96h32v32H256v-32z m160 96h32v32h-32v-32z m-64 224h32v32h-32v-32z m96 0h32v32h-32v-32z m32-32h32v32h-32v-32z m160 32h32v32h-32v-32z m64-32h32v32h-32v-32z" fill="#C49986" p-id="58617"></path><path d="M736 544v-32h32v32h-32zM384 288h-64V256h64v32z m-96 96V288h32v96H288z" fill="#67423A" p-id="58618"></path><path d="M288 800v-32h32v32H288z m448-416v-64h32v64h-32z" fill="#B48D66" p-id="58619"></path><path d="M416 928v-32h32v32h-32z m480 32v-32h32v32h-32z m32-32v-32h32v32h-32z m0-192v-64h32v64h-32z m-32-128v-64h32v64h-32z m-32-160v-64h32v64h-32z m-32-128V288h32v32h-32z m-192 0V288h32v32h-32z m32-32V256h32v32h-32z m128-32V224h32v32h-32z" fill="#5E3C22" p-id="58620"></path><path d="M352 128V96h32v32h-32zM256 192V160h32v32H256z m256-96V64h32v32h-32z m0 64V128h32v32h-32zM224 256V224h32v32H224z m96 0V224h32v32h-32z m64 64V288h32v32h-32z m-96 224v-32h32v32H288z m32-96v-32h32v32h-32z m224 0v-32h32v32h-32z m32 32v-32h32v32h-32z m32 96h-192v-32h192v32z m-160 96v-32h32v32h-32z m-64 128h64v32h-64v-32z m96-64h64v32h-64v-32z m96 64h64v32h-64v-32z m128-32v-224h32v224h-32z" fill="#EFE7E5" p-id="58621"></path><path d="M224 224V192h32v32H224z m64-64V128h32v32H288z m256-64V64h32v32h-32z m-128 0V64h32v32h-32z" fill="#D8D8D8" p-id="58622"></path><path d="M512 96h-64V64h64v32zM288 768v-224h32v224H288z m96-384v-64h32v64h-32z m-160 64V256h32v192H224z" fill="#E3E3E1" p-id="58623"></path><path d="M288 256V160h32v96H288z m64-128v96h-32V128h32z m0 128V128h32v128h-32z m64-160v192h-32V96h32z m0 384V96h32v384h-32z m64-384v384h-32V96h32z m0 384V96h32v384h-32z m32-352V96h32v32h-32z m32 32v320h-32V160h32z m0 320v-32h32v32h-32z m192 32H416v-32h320v32z m-320 0h320v32H416v-32z m288 64h-96v-32h96v32z m-96 0h96v32h-96v-32z m-32 32h128v32h-128v-32z m128 64h-160v-32h160v32z m-160 96h160v32h-160v-32z m160 0h-160v-32h160v32z m-256 32v-64h32v64h-32z m0-96h256v32h-256v-32z m256 0h-256v-32h256v32z m-256-96v192h-32v-192h32z m-64 192V384h32v416h-32z m0-384v384h-32V416h32z m-64 384V448h32v352h-32z m-32-288v-96h32v96H288z m-32-32V192h32v288H256z" fill="#FDFBFC" p-id="58624"></path></svg>