<?xml version="1.0" standalone="no"?><!DOCTYPE svg PUBLIC "-//W3C//DTD SVG 1.1//EN" "http://www.w3.org/Graphics/SVG/1.1/DTD/svg11.dtd"><svg t="1661584518670" class="icon" viewBox="0 0 1024 1024" version="1.1" xmlns="http://www.w3.org/2000/svg" p-id="28959" xmlns:xlink="http://www.w3.org/1999/xlink" width="200" height="200"><path d="M389.12 20.48h61.44v61.44h-61.44zM450.56 20.48h61.44v61.44h-61.44zM512 20.48h61.44v61.44h-61.44zM573.44 20.48h61.44v61.44h-61.44zM696.32 204.8h61.44v61.44h-61.44zM634.88 204.8h61.44v61.44h-61.44zM573.44 204.8h61.44v61.44h-61.44zM512 204.8h61.44v61.44h-61.44zM450.56 204.8h61.44v61.44h-61.44zM389.12 204.8h61.44v61.44h-61.44zM327.68 204.8h61.44v61.44h-61.44zM266.24 204.8h61.44v61.44h-61.44zM204.8 204.8h61.44v61.44h-61.44zM143.36 204.8h61.44v61.44H143.36zM81.92 204.8h61.44v61.44H81.92zM757.76 204.8h61.44v61.44h-61.44zM819.2 204.8h61.44v61.44h-61.44zM880.64 204.8h61.44v61.44h-61.44zM942.08 266.24h61.44v61.44h-61.44zM942.08 327.68h61.44v61.44h-61.44zM942.08 389.12h61.44v61.44h-61.44zM942.08 450.56h61.44v61.44h-61.44zM942.08 512h61.44v61.44h-61.44zM942.08 573.44h61.44v61.44h-61.44zM942.08 634.88h61.44v61.44h-61.44zM942.08 696.32h61.44v61.44h-61.44zM942.08 757.76h61.44v61.44h-61.44zM942.08 819.2h61.44v61.44h-61.44zM942.08 880.64h61.44v61.44h-61.44zM880.64 942.08h61.44v61.44h-61.44zM819.2 942.08h61.44v61.44h-61.44zM757.76 942.08h61.44v61.44h-61.44zM696.32 942.08h61.44v61.44h-61.44zM880.64 757.76h61.44v61.44h-61.44zM819.2 819.2h61.44v61.44h-61.44zM757.76 880.64h61.44v61.44h-61.44zM696.32 266.24h61.44v61.44h-61.44zM757.76 266.24h61.44v61.44h-61.44z" fill="#553A49" p-id="28960"></path><path d="M819.2 266.24h61.44v61.44h-61.44zM880.64 266.24h61.44v61.44h-61.44z" fill="#E7EFF2" p-id="28961"></path><path d="M880.64 327.68h61.44v61.44h-61.44zM880.64 819.2h61.44v61.44h-61.44zM880.64 880.64h61.44v61.44h-61.44zM819.2 880.64h61.44v61.44h-61.44z" fill="#C0D3DA" p-id="28962"></path><path d="M819.2 327.68h61.44v61.44h-61.44zM880.64 389.12h61.44v61.44h-61.44z" fill="#553A49" p-id="28963"></path><path d="M880.64 450.56h61.44v61.44h-61.44zM819.2 450.56h61.44v61.44h-61.44zM819.2 512h61.44v61.44h-61.44zM819.2 573.44h61.44v61.44h-61.44zM819.2 389.12h61.44v61.44h-61.44zM757.76 389.12h61.44v61.44h-61.44zM757.76 327.68h61.44v61.44h-61.44zM757.76 450.56h61.44v61.44h-61.44zM757.76 512h61.44v61.44h-61.44zM757.76 573.44h61.44v61.44h-61.44zM880.64 512h61.44v61.44h-61.44zM880.64 573.44h61.44v61.44h-61.44z" fill="#FFD426" p-id="28964"></path><path d="M880.64 634.88h61.44v61.44h-61.44zM880.64 696.32h61.44v61.44h-61.44zM819.2 634.88h61.44v61.44h-61.44zM819.2 696.32h61.44v61.44h-61.44zM757.76 634.88h61.44v61.44h-61.44zM757.76 696.32h61.44v61.44h-61.44zM757.76 757.76h61.44v61.44h-61.44zM819.2 757.76h61.44v61.44h-61.44zM757.76 819.2h61.44v61.44h-61.44z" fill="#FEBD0D" p-id="28965"></path><path d="M696.32 327.68h61.44v61.44h-61.44zM696.32 389.12h61.44v61.44h-61.44zM696.32 450.56h61.44v61.44h-61.44zM696.32 512h61.44v61.44h-61.44zM696.32 573.44h61.44v61.44h-61.44zM696.32 634.88h61.44v61.44h-61.44zM634.88 634.88h61.44v61.44h-61.44zM573.44 634.88h61.44v61.44h-61.44zM512 696.32h61.44v61.44h-61.44zM512 757.76h61.44v61.44h-61.44z" fill="#553A49" p-id="28966"></path><path d="M573.44 696.32h61.44v61.44h-61.44zM573.44 757.76h61.44v61.44h-61.44zM634.88 696.32h61.44v61.44h-61.44zM634.88 757.76h61.44v61.44h-61.44z" fill="#FF512E" p-id="28967"></path><path d="M573.44 819.2h61.44v61.44h-61.44zM634.88 819.2h61.44v61.44h-61.44zM696.32 696.32h61.44v61.44h-61.44zM696.32 757.76h61.44v61.44h-61.44zM696.32 819.2h61.44v61.44h-61.44zM696.32 880.64h61.44v61.44h-61.44zM327.68 266.24h-61.44v-61.44h61.44zM266.24 266.24h-61.44v-61.44h61.44zM204.8 266.24H143.36v-61.44h61.44zM143.36 266.24H81.92v-61.44h61.44zM81.92 327.68H20.48v-61.44h61.44zM81.92 389.12H20.48v-61.44h61.44zM81.92 450.56H20.48v-61.44h61.44zM81.92 512H20.48v-61.44h61.44zM81.92 573.44H20.48v-61.44h61.44zM81.92 634.88H20.48v-61.44h61.44zM81.92 696.32H20.48v-61.44h61.44zM81.92 757.76H20.48v-61.44h61.44zM81.92 819.2H20.48v-61.44h61.44zM81.92 880.64H20.48v-61.44h61.44zM81.92 942.08H20.48v-61.44h61.44zM143.36 1003.52H81.92v-61.44h61.44zM204.8 1003.52H143.36v-61.44h61.44zM266.24 1003.52h-61.44v-61.44h61.44zM327.68 1003.52h-61.44v-61.44h61.44zM389.12 1003.52h-61.44v-61.44h61.44zM450.56 1003.52h-61.44v-61.44h61.44zM512 1003.52h-61.44v-61.44h61.44zM573.44 1003.52h-61.44v-61.44h61.44zM634.88 1003.52h-61.44v-61.44h61.44zM696.32 1003.52h-61.44v-61.44h61.44zM143.36 819.2H81.92v-61.44h61.44zM204.8 880.64H143.36v-61.44h61.44zM266.24 942.08h-61.44v-61.44h61.44zM327.68 327.68h-61.44v-61.44h61.44zM266.24 327.68h-61.44v-61.44h61.44z" fill="#553A49" p-id="28968"></path><path d="M204.8 327.68H143.36v-61.44h61.44zM143.36 327.68H81.92v-61.44h61.44z" fill="#E7EFF2" p-id="28969"></path><path d="M143.36 389.12H81.92v-61.44h61.44zM143.36 880.64H81.92v-61.44h61.44zM143.36 942.08H81.92v-61.44h61.44zM204.8 942.08H143.36v-61.44h61.44z" fill="#C0D3DA" p-id="28970"></path><path d="M204.8 389.12H143.36v-61.44h61.44zM143.36 450.56H81.92v-61.44h61.44z" fill="#553A49" p-id="28971"></path><path d="M143.36 512H81.92v-61.44h61.44zM204.8 512H143.36v-61.44h61.44zM204.8 573.44H143.36v-61.44h61.44zM204.8 634.88H143.36v-61.44h61.44zM204.8 450.56H143.36v-61.44h61.44zM266.24 450.56h-61.44v-61.44h61.44zM389.12 327.68h-61.44v-61.44h61.44zM389.12 389.12h-61.44v-61.44h61.44zM450.56 389.12h-61.44v-61.44h61.44zM512 389.12h-61.44v-61.44h61.44zM573.44 389.12h-61.44v-61.44h61.44zM634.88 389.12h-61.44v-61.44h61.44zM696.32 389.12h-61.44v-61.44h61.44zM696.32 327.68h-61.44v-61.44h61.44zM634.88 327.68h-61.44v-61.44h61.44zM573.44 327.68h-61.44v-61.44h61.44zM512 327.68h-61.44v-61.44h61.44zM450.56 327.68h-61.44v-61.44h61.44zM573.44 450.56h-61.44v-61.44h61.44zM634.88 450.56h-61.44v-61.44h61.44zM696.32 450.56h-61.44v-61.44h61.44zM696.32 512h-61.44v-61.44h61.44zM696.32 573.44h-61.44v-61.44h61.44zM696.32 634.88h-61.44v-61.44h61.44zM634.88 634.88h-61.44v-61.44h61.44zM573.44 634.88h-61.44v-61.44h61.44zM573.44 573.44h-61.44v-61.44h61.44zM573.44 512h-61.44v-61.44h61.44zM634.88 512h-61.44v-61.44h61.44zM634.88 573.44h-61.44v-61.44h61.44zM266.24 389.12h-61.44v-61.44h61.44zM266.24 512h-61.44v-61.44h61.44zM266.24 573.44h-61.44v-61.44h61.44zM266.24 634.88h-61.44v-61.44h61.44zM143.36 573.44H81.92v-61.44h61.44zM143.36 634.88H81.92v-61.44h61.44z" fill="#FFD426" p-id="28972"></path><path d="M143.36 696.32H81.92v-61.44h61.44zM143.36 757.76H81.92v-61.44h61.44zM204.8 696.32H143.36v-61.44h61.44zM204.8 757.76H143.36v-61.44h61.44zM266.24 696.32h-61.44v-61.44h61.44zM389.12 696.32h-61.44v-61.44h61.44zM450.56 696.32h-61.44v-61.44h61.44zM512 696.32h-61.44v-61.44h61.44zM573.44 696.32h-61.44v-61.44h61.44zM512 757.76h-61.44v-61.44h61.44zM450.56 757.76h-61.44v-61.44h61.44zM389.12 757.76h-61.44v-61.44h61.44zM389.12 819.2h-61.44v-61.44h61.44zM389.12 880.64h-61.44v-61.44h61.44zM389.12 942.08h-61.44v-61.44h61.44zM450.56 942.08h-61.44v-61.44h61.44zM512 942.08h-61.44v-61.44h61.44zM450.56 819.2h-61.44v-61.44h61.44zM450.56 880.64h-61.44v-61.44h61.44zM512 819.2h-61.44v-61.44h61.44zM512 880.64h-61.44v-61.44h61.44zM573.44 880.64h-61.44v-61.44h61.44zM573.44 942.08h-61.44v-61.44h61.44zM634.88 942.08h-61.44v-61.44h61.44zM696.32 942.08h-61.44v-61.44h61.44zM266.24 757.76h-61.44v-61.44h61.44zM266.24 819.2h-61.44v-61.44h61.44zM204.8 819.2H143.36v-61.44h61.44zM266.24 880.64h-61.44v-61.44h61.44z" fill="#FEBD0D" p-id="28973"></path><path d="M327.68 389.12h-61.44v-61.44h61.44zM327.68 450.56h-61.44v-61.44h61.44zM389.12 450.56h-61.44v-61.44h61.44zM450.56 450.56h-61.44v-61.44h61.44zM512 450.56h-61.44v-61.44h61.44zM512 512h-61.44v-61.44h61.44zM512 573.44h-61.44v-61.44h61.44zM512 634.88h-61.44v-61.44h61.44zM450.56 634.88h-61.44v-61.44h61.44zM389.12 634.88h-61.44v-61.44h61.44zM327.68 512h-61.44v-61.44h61.44z" fill="#553A49" p-id="28974"></path><path d="M389.12 512h-61.44v-61.44h61.44zM450.56 512h-61.44v-61.44h61.44zM450.56 573.44h-61.44v-61.44h61.44zM389.12 573.44h-61.44v-61.44h61.44z" fill="#51CB52" p-id="28975"></path><path d="M327.68 573.44h-61.44v-61.44h61.44zM327.68 634.88h-61.44v-61.44h61.44zM327.68 696.32h-61.44v-61.44h61.44zM327.68 757.76h-61.44v-61.44h61.44zM327.68 819.2h-61.44v-61.44h61.44zM327.68 880.64h-61.44v-61.44h61.44zM327.68 942.08h-61.44v-61.44h61.44zM634.88 81.92h61.44v61.44h-61.44zM634.88 143.36h61.44v61.44h-61.44zM327.68 81.92h61.44v61.44h-61.44zM327.68 143.36h61.44v61.44h-61.44z" fill="#553A49" p-id="28976"></path></svg>