<?xml version="1.0" standalone="no"?><!DOCTYPE svg PUBLIC "-//W3C//DTD SVG 1.1//EN" "http://www.w3.org/Graphics/SVG/1.1/DTD/svg11.dtd"><svg t="1661584933061" class="icon" viewBox="0 0 1024 1024" version="1.1" xmlns="http://www.w3.org/2000/svg" p-id="48728" xmlns:xlink="http://www.w3.org/1999/xlink" width="200" height="200"><path d="M1024 824c0 110-90 200-200 200H200C90 1024 0 934 0 824V200C0 90 90 0 200 0h624c110 0 200 90 200 200v624z" fill="#44A7DF" p-id="48729"></path><path d="M235.806 217.6H471.64c23.972 2.359 18.206 43.987 18.206 71.072v128.847c0 28 5.344 62.319-13.469 70.266-12.24 5.175-45.09 1.566-60.916 1.566H290.416c-28.9 0-68.372 6.803-72.815-17.953V235.563c3.236-8.791 8.905-15.138 18.205-17.963z m32.457 53.088V438.6H438.4V268.359H269.047c-0.931 0.125-0.857 1.228-0.784 2.329zM552.356 217.6h235.837c9.619 3.534 16.25 10.009 18.207 21.097v229.587c-2.156 9.513-7.213 17.66-16.613 20.285-15.381 4.272-40.969 0.781-59.368 0.781H609.35c-18.281 0-45.344 3.809-60.162-0.781-20.919-6.453-15.031-46.763-15.031-74.969V293.359c-0.001-32.584-7.238-71.221 18.199-75.759z m32.462 53.088V438.6h170.138V268.359H585.6c-0.931 0.125-0.856 1.228-0.782 2.329zM345.81 319.903c23.7-4.413 42.318 11.381 42.74 32.803 0.51 28.216-28.703 43.738-51.447 32.016-26.003-13.416-24.29-58.684 8.707-64.819z m316.552 0c55.819-10.307 54.763 76.94 0 67.928-34.837-5.712-35.969-61.306 0-67.95v0.022zM470.053 806.4H236.591c-9.691-2.95-16.241-8.957-18.991-18.744V552.625c2.306-6.888 7.606-14.919 15.825-17.193 15.5-4.294 40.797-0.781 59.372-0.781h121.069c17.913 0 43.938-3.932 60.156 0.781 21.909 6.375 15.825 46.043 15.825 74.188v124.137c0 30.393 6.622 69.918-19.794 72.643z m-201.79-218.644v167.882H438.4V585.4H269.047c-0.931 0.125-0.857 1.225-0.784 2.356zM806.4 555.713v65.605c-1.838 22.132-0.244 47.645-0.781 71.069H637.044v-38.269c-15.825-1.813-35.081-0.244-52.25-0.781-1.838 49.456-0.25 102.3-0.788 153.063h-30.862c-26.524-5.25-18.987-44.551-18.987-75.757v-121c0-18.206-3.737-45.487 0.781-60.131 5.394-17.469 28.825-14.844 52.256-14.844h114.744v103.85h53.019c0.538-34.35-1.063-70.774 0.781-103.85 25.513-1.476 49.163-1.132 50.663 21.1v-0.055z m-456.634 80.449a34.804 34.804 0 0 1 31.8 13.432 34.808 34.808 0 0 1 4.604 34.213c-13.616 36.581-78.656 22.818-66.488-23.432 3.383-12.8 13.106-22.35 30.084-24.213zM694.037 806.4h-56.969c0.52-20.044-1.05-42.176 0.781-60.919h56.188V806.4zM806.4 745.481v39.844c-2.213 11.087-8.781 17.881-18.988 21.075h-40.381c0.513-20.044-1.057-42.176 0.781-60.919H806.4z m0 0" fill="#FFFFFF" p-id="48730"></path></svg>