<?xml version="1.0" standalone="no"?><!DOCTYPE svg PUBLIC "-//W3C//DTD SVG 1.1//EN" "http://www.w3.org/Graphics/SVG/1.1/DTD/svg11.dtd"><svg t="1661318684776" class="icon" viewBox="0 0 1024 1024" version="1.1" xmlns="http://www.w3.org/2000/svg" p-id="28333" xmlns:xlink="http://www.w3.org/1999/xlink" width="200" height="200"><defs><style type="text/css">@font-face { font-family: feedback-iconfont; src: url("//at.alicdn.com/t/font_1031158_u69w8yhxdu.woff2?t=1630033759944") format("woff2"), url("//at.alicdn.com/t/font_1031158_u69w8yhxdu.woff?t=1630033759944") format("woff"), url("//at.alicdn.com/t/font_1031158_u69w8yhxdu.ttf?t=1630033759944") format("truetype"); }
</style></defs><path d="M450.56 20.48h61.44v61.44h-61.44zM512 20.48h61.44v61.44h-61.44zM450.56 143.36h61.44v61.44h-61.44z" fill="#553A49" p-id="28334"></path><path d="M389.12 143.36h61.44v61.44h-61.44zM389.12 204.8h61.44v61.44h-61.44zM389.12 266.24h61.44v61.44h-61.44zM389.12 389.12h61.44v61.44h-61.44zM389.12 512h61.44v61.44h-61.44zM266.24 512h61.44v61.44h-61.44zM204.8 512h61.44v61.44h-61.44zM143.36 512h61.44v61.44H143.36zM81.92 512h61.44v61.44H81.92z" fill="#E4F1F1" p-id="28335"></path><path d="M266.24 450.56h61.44v61.44h-61.44zM204.8 450.56h61.44v61.44h-61.44zM143.36 450.56h61.44v61.44H143.36zM81.92 450.56h61.44v61.44H81.92z" fill="#FFFFFF" p-id="28336"></path><path d="M143.36 389.12h61.44v61.44H143.36zM204.8 389.12h61.44v61.44h-61.44zM266.24 389.12h61.44v61.44h-61.44z" fill="#3FACD6" p-id="28337"></path><path d="M389.12 634.88h61.44v61.44h-61.44zM389.12 696.32h61.44v61.44h-61.44zM389.12 757.76h61.44v61.44h-61.44zM389.12 819.2h61.44v61.44h-61.44z" fill="#E4F1F1" p-id="28338"></path><path d="M327.68 819.2h61.44v61.44h-61.44zM266.24 819.2h61.44v61.44h-61.44z" fill="#3FACD6" p-id="28339"></path><path d="M512 143.36h61.44v61.44h-61.44z" fill="#553A49" p-id="28340"></path><path d="M450.56 81.92h61.44v61.44h-61.44zM512 81.92h61.44v61.44h-61.44z" fill="#FF8D67" p-id="28341"></path><path d="M573.44 81.92h61.44v61.44h-61.44zM389.12 81.92h61.44v61.44h-61.44zM327.68 143.36h61.44v61.44h-61.44zM327.68 204.8h61.44v61.44h-61.44zM327.68 266.24h61.44v61.44h-61.44zM327.68 327.68h61.44v61.44h-61.44zM266.24 327.68h61.44v61.44h-61.44zM204.8 327.68h61.44v61.44h-61.44zM143.36 327.68h61.44v61.44H143.36zM81.92 389.12h61.44v61.44H81.92zM20.48 450.56h61.44v61.44H20.48zM20.48 512h61.44v61.44H20.48zM20.48 573.44h61.44v61.44H20.48zM81.92 573.44h61.44v61.44H81.92zM143.36 573.44h61.44v61.44H143.36zM204.8 573.44h61.44v61.44h-61.44zM266.24 573.44h61.44v61.44h-61.44zM143.36 266.24h61.44v61.44H143.36zM204.8 266.24h61.44v61.44h-61.44zM389.12 327.68h61.44v61.44h-61.44zM327.68 389.12h61.44v61.44h-61.44zM327.68 450.56h61.44v61.44h-61.44zM389.12 450.56h61.44v61.44h-61.44zM327.68 512h61.44v61.44h-61.44zM327.68 573.44h61.44v61.44h-61.44zM389.12 573.44h61.44v61.44h-61.44zM327.68 634.88h61.44v61.44h-61.44zM327.68 696.32h61.44v61.44h-61.44zM327.68 757.76h61.44v61.44h-61.44zM266.24 757.76h61.44v61.44h-61.44zM204.8 819.2h61.44v61.44h-61.44zM204.8 880.64h61.44v61.44h-61.44zM266.24 880.64h61.44v61.44h-61.44zM327.68 880.64h61.44v61.44h-61.44zM389.12 880.64h61.44v61.44h-61.44z" fill="#553A49" p-id="28342"></path><path d="M634.88 204.8h-61.44V143.36h61.44zM634.88 266.24h-61.44v-61.44h61.44zM634.88 327.68h-61.44v-61.44h61.44zM634.88 450.56h-61.44v-61.44h61.44zM634.88 573.44h-61.44v-61.44h61.44zM757.76 573.44h-61.44v-61.44h61.44zM819.2 573.44h-61.44v-61.44h61.44zM880.64 573.44h-61.44v-61.44h61.44zM942.08 573.44h-61.44v-61.44h61.44z" fill="#E4F1F1" p-id="28343"></path><path d="M757.76 512h-61.44v-61.44h61.44zM819.2 512h-61.44v-61.44h61.44zM880.64 512h-61.44v-61.44h61.44zM942.08 512h-61.44v-61.44h61.44z" fill="#FFFFFF" p-id="28344"></path><path d="M880.64 450.56h-61.44v-61.44h61.44zM819.2 450.56h-61.44v-61.44h61.44zM757.76 450.56h-61.44v-61.44h61.44z" fill="#3FACD6" p-id="28345"></path><path d="M634.88 696.32h-61.44v-61.44h61.44zM634.88 757.76h-61.44v-61.44h61.44zM634.88 819.2h-61.44v-61.44h61.44zM634.88 880.64h-61.44v-61.44h61.44z" fill="#E4F1F1" p-id="28346"></path><path d="M696.32 880.64h-61.44v-61.44h61.44zM757.76 880.64h-61.44v-61.44h61.44z" fill="#3FACD6" p-id="28347"></path><path d="M634.88 143.36h-61.44V81.92h61.44zM696.32 204.8h-61.44V143.36h61.44zM696.32 266.24h-61.44v-61.44h61.44zM696.32 327.68h-61.44v-61.44h61.44zM696.32 389.12h-61.44v-61.44h61.44zM757.76 389.12h-61.44v-61.44h61.44zM819.2 389.12h-61.44v-61.44h61.44zM880.64 389.12h-61.44v-61.44h61.44zM942.08 450.56h-61.44v-61.44h61.44zM1003.52 512h-61.44v-61.44h61.44zM1003.52 573.44h-61.44v-61.44h61.44zM1003.52 634.88h-61.44v-61.44h61.44zM942.08 634.88h-61.44v-61.44h61.44zM880.64 634.88h-61.44v-61.44h61.44zM819.2 634.88h-61.44v-61.44h61.44zM757.76 634.88h-61.44v-61.44h61.44zM880.64 327.68h-61.44v-61.44h61.44zM819.2 327.68h-61.44v-61.44h61.44zM634.88 389.12h-61.44v-61.44h61.44zM696.32 450.56h-61.44v-61.44h61.44zM696.32 512h-61.44v-61.44h61.44zM634.88 512h-61.44v-61.44h61.44zM696.32 573.44h-61.44v-61.44h61.44zM696.32 634.88h-61.44v-61.44h61.44zM634.88 634.88h-61.44v-61.44h61.44zM696.32 696.32h-61.44v-61.44h61.44zM696.32 757.76h-61.44v-61.44h61.44zM696.32 819.2h-61.44v-61.44h61.44zM757.76 819.2h-61.44v-61.44h61.44zM819.2 880.64h-61.44v-61.44h61.44zM819.2 942.08h-61.44v-61.44h61.44zM757.76 942.08h-61.44v-61.44h61.44zM696.32 942.08h-61.44v-61.44h61.44zM634.88 942.08h-61.44v-61.44h61.44zM450.56 880.64h61.44v61.44h-61.44zM512 880.64h61.44v61.44h-61.44zM512 819.2h61.44v61.44h-61.44zM512 757.76h61.44v61.44h-61.44zM450.56 757.76h61.44v61.44h-61.44zM450.56 819.2h61.44v61.44h-61.44z" fill="#553A49" p-id="28348"></path><path d="M450.56 880.64h61.44v61.44h-61.44zM450.56 942.08h61.44v61.44h-61.44zM512 942.08h61.44v61.44h-61.44z" fill="#553A49" p-id="28349"></path></svg>