<?xml version="1.0" standalone="no"?><!DOCTYPE svg PUBLIC "-//W3C//DTD SVG 1.1//EN" "http://www.w3.org/Graphics/SVG/1.1/DTD/svg11.dtd"><svg t="1661319384074" class="icon" viewBox="0 0 1024 1024" version="1.1" xmlns="http://www.w3.org/2000/svg" p-id="142673" xmlns:xlink="http://www.w3.org/1999/xlink" width="200" height="200"><defs><style type="text/css">@font-face { font-family: feedback-iconfont; src: url("//at.alicdn.com/t/font_1031158_u69w8yhxdu.woff2?t=1630033759944") format("woff2"), url("//at.alicdn.com/t/font_1031158_u69w8yhxdu.woff?t=1630033759944") format("woff"), url("//at.alicdn.com/t/font_1031158_u69w8yhxdu.ttf?t=1630033759944") format("truetype"); }
</style></defs><path d="M235.52 20.48h61.44v61.44h-61.44zM235.52 81.92h61.44v61.44h-61.44zM235.52 143.36h61.44v61.44h-61.44zM174.08 204.8h61.44v61.44h-61.44z" fill="#553A49" p-id="142674"></path><path d="M235.52 204.8h61.44v61.44h-61.44zM296.96 266.24h61.44v61.44h-61.44zM604.16 327.68h61.44v61.44h-61.44zM665.6 266.24h61.44v61.44h-61.44zM727.04 204.8h61.44v61.44h-61.44zM358.4 327.68h61.44v61.44h-61.44z" fill="#F59599" p-id="142675"></path><path d="M358.4 389.12h61.44v61.44h-61.44zM296.96 389.12h61.44v61.44h-61.44zM235.52 389.12h61.44v61.44h-61.44zM174.08 389.12h61.44v61.44h-61.44zM174.08 327.68h61.44v61.44h-61.44zM174.08 266.24h61.44v61.44h-61.44zM235.52 266.24h61.44v61.44h-61.44zM235.52 327.68h61.44v61.44h-61.44zM296.96 327.68h61.44v61.44h-61.44zM604.16 389.12h61.44v61.44h-61.44zM665.6 389.12h61.44v61.44h-61.44zM665.6 327.68h61.44v61.44h-61.44zM727.04 327.68h61.44v61.44h-61.44zM727.04 266.24h61.44v61.44h-61.44zM788.48 266.24h61.44v61.44h-61.44zM788.48 327.68h61.44v61.44h-61.44zM788.48 389.12h61.44v61.44h-61.44zM727.04 389.12h61.44v61.44h-61.44z" fill="#F26E79" p-id="142676"></path><path d="M112.64 266.24h61.44v61.44h-61.44zM112.64 327.68h61.44v61.44h-61.44zM112.64 389.12h61.44v61.44h-61.44zM174.08 450.56h61.44v61.44h-61.44zM235.52 450.56h61.44v61.44h-61.44zM296.96 450.56h61.44v61.44h-61.44zM358.4 450.56h61.44v61.44h-61.44zM296.96 204.8h61.44v61.44h-61.44zM358.4 266.24h61.44v61.44h-61.44zM419.84 389.12h61.44v61.44h-61.44zM481.28 389.12h61.44v61.44h-61.44zM419.84 327.68h61.44v61.44h-61.44zM788.48 81.92h-61.44V20.48h61.44zM788.48 143.36h-61.44V81.92h61.44zM788.48 204.8h-61.44V143.36h61.44zM849.92 266.24h-61.44v-61.44h61.44zM911.36 327.68h-61.44v-61.44h61.44zM911.36 389.12h-61.44v-61.44h61.44zM911.36 450.56h-61.44v-61.44h61.44zM849.92 512h-61.44v-61.44h61.44zM788.48 512h-61.44v-61.44h61.44zM727.04 512h-61.44v-61.44h61.44zM665.6 512h-61.44v-61.44h61.44zM358.4 696.32h-61.44v-61.44h61.44zM296.96 696.32h-61.44v-61.44h61.44zM235.52 696.32h-61.44v-61.44h61.44zM174.08 696.32h-61.44v-61.44h61.44zM419.84 696.32h-61.44v-61.44h61.44z" fill="#553A49" p-id="142677"></path><path d="M358.4 696.32h-61.44v-61.44h61.44zM296.96 696.32h-61.44v-61.44h61.44zM296.96 757.76h-61.44v-61.44h61.44z" fill="#553A49" p-id="142678"></path><path d="M358.4 757.76h-61.44v-61.44h61.44zM419.84 757.76h-61.44v-61.44h61.44zM481.28 757.76h-61.44v-61.44h61.44zM542.72 757.76h-61.44v-61.44h61.44zM604.16 757.76h-61.44v-61.44h61.44zM665.6 757.76h-61.44v-61.44h61.44zM727.04 757.76h-61.44v-61.44h61.44z" fill="#F59599" p-id="142679"></path><path d="M665.6 819.2h-61.44v-61.44h61.44zM604.16 819.2h-61.44v-61.44h61.44zM542.72 819.2h-61.44v-61.44h61.44zM481.28 819.2h-61.44v-61.44h61.44zM419.84 819.2h-61.44v-61.44h61.44zM481.28 880.64h-61.44v-61.44h61.44zM542.72 880.64h-61.44v-61.44h61.44zM604.16 880.64h-61.44v-61.44h61.44zM542.72 942.08h-61.44v-61.44h61.44z" fill="#F26E79" p-id="142680"></path><path d="M358.4 819.2h-61.44v-61.44h61.44zM419.84 880.64h-61.44v-61.44h61.44zM481.28 942.08h-61.44v-61.44h61.44zM481.28 1003.52h-61.44v-61.44h61.44zM542.72 1003.52h-61.44v-61.44h61.44zM604.16 1003.52h-61.44v-61.44h61.44zM604.16 942.08h-61.44v-61.44h61.44zM665.6 880.64h-61.44v-61.44h61.44zM727.04 819.2h-61.44v-61.44h61.44zM788.48 757.76h-61.44v-61.44h61.44zM235.52 696.32h-61.44v-61.44h61.44zM665.6 696.32h-61.44v-61.44h61.44zM604.16 696.32h-61.44v-61.44h61.44zM542.72 696.32h-61.44v-61.44h61.44zM481.28 696.32h-61.44v-61.44h61.44zM911.36 696.32h-61.44v-61.44h61.44zM849.92 696.32h-61.44v-61.44h61.44zM788.48 696.32h-61.44v-61.44h61.44zM727.04 696.32h-61.44v-61.44h61.44zM727.04 266.24h-61.44v-61.44h61.44zM665.6 327.68h-61.44v-61.44h61.44zM604.16 450.56h-61.44v-61.44h61.44zM604.16 389.12h-61.44v-61.44h61.44z" fill="#553A49" p-id="142681"></path></svg>