<?xml version="1.0" standalone="no"?><!DOCTYPE svg PUBLIC "-//W3C//DTD SVG 1.1//EN" "http://www.w3.org/Graphics/SVG/1.1/DTD/svg11.dtd"><svg t="1661318680694" class="icon" viewBox="0 0 1024 1024" version="1.1" xmlns="http://www.w3.org/2000/svg" p-id="28086" xmlns:xlink="http://www.w3.org/1999/xlink" width="200" height="200"><defs><style type="text/css">@font-face { font-family: feedback-iconfont; src: url("//at.alicdn.com/t/font_1031158_u69w8yhxdu.woff2?t=1630033759944") format("woff2"), url("//at.alicdn.com/t/font_1031158_u69w8yhxdu.woff?t=1630033759944") format("woff"), url("//at.alicdn.com/t/font_1031158_u69w8yhxdu.ttf?t=1630033759944") format("truetype"); }
</style></defs><path d="M184.32 184.32h54.6816v54.6816H184.32zM239.0016 184.32h54.6816v54.6816h-54.6816z" fill="#553A49" p-id="28087"></path><path d="M293.4784 184.32H348.16v54.6816h-54.6816zM348.16 184.32h54.6816v54.6816H348.16zM348.16 129.6384h54.6816V184.32H348.16z" fill="#553A49" p-id="28088"></path><path d="M402.8416 129.6384h54.6816V184.32h-54.6816z" fill="#F2FD34" p-id="28089"></path><path d="M457.3184 129.6384H512V184.32h-54.6816zM512 129.6384h54.6816V184.32H512zM566.6816 129.6384h54.6816V184.32h-54.6816z" fill="#F2FD34" p-id="28090"></path><path d="M402.8416 75.1616h54.6816v54.6816h-54.6816z" fill="#553A49" p-id="28091"></path><path d="M457.3184 75.1616H512v54.6816h-54.6816zM512 75.1616h54.6816v54.6816H512zM566.6816 75.1616h54.6816v54.6816h-54.6816zM402.8416 184.32h54.6816v54.6816h-54.6816z" fill="#553A49" p-id="28092"></path><path d="M457.3184 184.32H512v54.6816h-54.6816zM512 184.32h54.6816v54.6816H512zM457.3184 239.0016H512v54.6816h-54.6816zM512 239.0016h54.6816v54.6816H512z" fill="#553A49" p-id="28093"></path><path d="M566.6816 239.0016h54.6816v54.6816h-54.6816z" fill="#00C3C9" p-id="28094"></path><path d="M621.1584 239.0016H675.84v54.6816h-54.6816zM675.84 239.0016h54.6816v54.6816H675.84zM730.5216 239.0016h54.6816v54.6816h-54.6816z" fill="#00C3C9" p-id="28095"></path><path d="M784.9984 239.0016H839.68v54.6816h-54.6816z" fill="#00C3C9" p-id="28096"></path><path d="M784.9984 293.4784H839.68V348.16h-54.6816zM784.9984 348.16H839.68v54.6816h-54.6816zM784.9984 402.8416H839.68v54.6816h-54.6816z" fill="#00C3C9" p-id="28097"></path><path d="M730.5216 402.8416h54.6816v54.6816h-54.6816zM675.84 402.8416h54.6816v54.6816H675.84zM621.1584 402.8416H675.84v54.6816h-54.6816z" fill="#00C3C9" p-id="28098"></path><path d="M566.6816 402.8416h54.6816v54.6816h-54.6816z" fill="#00C3C9" p-id="28099"></path><path d="M512 402.8416h54.6816v54.6816H512zM457.3184 402.8416H512v54.6816h-54.6816zM512 348.16h54.6816v54.6816H512zM457.3184 348.16H512v54.6816h-54.6816z" fill="#00E3EA" p-id="28100"></path><path d="M457.3184 348.16H512v54.6816h-54.6816z" fill="#00E3EA" p-id="28101"></path><path d="M402.8416 348.16h54.6816v54.6816h-54.6816z" fill="#00E3EA" p-id="28102"></path><path d="M402.8416 348.16h54.6816v54.6816h-54.6816zM348.16 348.16h54.6816v54.6816H348.16zM293.4784 348.16H348.16v54.6816h-54.6816z" fill="#00E3EA" p-id="28103"></path><path d="M239.0016 348.16h54.6816v54.6816h-54.6816zM239.0016 293.4784h54.6816V348.16h-54.6816z" fill="#00E3EA" p-id="28104"></path><path d="M293.4784 293.4784H348.16V348.16h-54.6816zM348.16 293.4784h54.6816V348.16H348.16zM402.8416 293.4784h54.6816V348.16h-54.6816z" fill="#00E3EA" p-id="28105"></path><path d="M457.3184 293.4784H512V348.16h-54.6816zM512 293.4784h54.6816V348.16H512zM566.6816 293.4784h54.6816V348.16h-54.6816z" fill="#00E3EA" p-id="28106"></path><path d="M621.1584 293.4784H675.84V348.16h-54.6816zM675.84 293.4784h54.6816V348.16H675.84zM730.5216 293.4784h54.6816V348.16h-54.6816zM730.5216 348.16h54.6816v54.6816h-54.6816zM675.84 348.16h54.6816v54.6816H675.84zM621.1584 348.16H675.84v54.6816h-54.6816z" fill="#00E3EA" p-id="28107"></path><path d="M566.6816 348.16h54.6816v54.6816h-54.6816z" fill="#00E3EA" p-id="28108"></path><path d="M402.8416 402.8416h54.6816v54.6816h-54.6816zM348.16 402.8416h54.6816v54.6816H348.16zM293.4784 402.8416H348.16v54.6816h-54.6816z" fill="#00C3C9" p-id="28109"></path><path d="M239.0016 402.8416h54.6816v54.6816h-54.6816zM184.32 402.8416h54.6816v54.6816H184.32zM184.32 348.16h54.6816v54.6816H184.32zM184.32 293.4784h54.6816V348.16H184.32z" fill="#00C3C9" p-id="28110"></path><path d="M184.32 239.0016h54.6816v54.6816H184.32zM239.0016 239.0016h54.6816v54.6816h-54.6816z" fill="#00C3C9" p-id="28111"></path><path d="M293.4784 239.0016H348.16v54.6816h-54.6816zM348.16 239.0016h54.6816v54.6816H348.16zM402.8416 239.0016h54.6816v54.6816h-54.6816z" fill="#00C3C9" p-id="28112"></path><path d="M566.6816 184.32h54.6816v54.6816h-54.6816z" fill="#553A49" p-id="28113"></path><path d="M621.1584 184.32H675.84v54.6816h-54.6816zM621.1584 129.6384H675.84V184.32h-54.6816zM675.84 184.32h54.6816v54.6816H675.84zM730.5216 184.32h54.6816v54.6816h-54.6816z" fill="#553A49" p-id="28114"></path><path d="M784.9984 184.32H839.68v54.6816h-54.6816zM839.68 239.0016h54.6816v54.6816H839.68z" fill="#553A49" p-id="28115"></path><path d="M839.68 293.4784h54.6816V348.16H839.68zM839.68 348.16h54.6816v54.6816H839.68zM839.68 402.8416h54.6816v54.6816H839.68z" fill="#553A49" p-id="28116"></path><path d="M839.68 457.3184h54.6816V512H839.68zM894.3616 457.3184h54.6816V512h-54.6816z" fill="#553A49" p-id="28117"></path><path d="M948.8384 402.8416H1003.52v54.6816h-54.6816zM948.8384 348.16H1003.52v54.6816h-54.6816zM894.3616 512h54.6816v54.6816h-54.6816zM948.8384 566.6816H1003.52v54.6816h-54.6816z" fill="#553A49" p-id="28118"></path><path d="M948.8384 621.1584H1003.52V675.84h-54.6816zM948.8384 675.84H1003.52v54.6816h-54.6816zM948.8384 730.5216H1003.52v54.6816h-54.6816z" fill="#553A49" p-id="28119"></path><path d="M948.8384 784.9984H1003.52V839.68h-54.6816z" fill="#553A49" p-id="28120"></path><path d="M894.3616 784.9984h54.6816V839.68h-54.6816zM894.3616 839.68h54.6816v54.6816h-54.6816zM894.3616 894.3616h54.6816v54.6816h-54.6816zM839.68 894.3616h54.6816v54.6816H839.68zM839.68 839.68h54.6816v54.6816H839.68zM839.68 784.9984h54.6816V839.68H839.68zM184.38144 293.4784h-54.6816v-54.6816h54.6816zM184.38144 348.22144h-54.6816v-54.6816h54.6816z" fill="#553A49" p-id="28121"></path><path d="M184.38144 402.78016h-54.6816v-54.6816h54.6816z" fill="#553A49" p-id="28122"></path><path d="M184.38144 457.3184h-54.6816v-54.6816h54.6816zM184.38144 512.06144h-54.6816v-54.6816h54.6816z" fill="#553A49" p-id="28123"></path><path d="M238.94016 512.06144h-54.6816v-54.6816h54.6816z" fill="#553A49" p-id="28124"></path><path d="M293.4784 512.06144h-54.6816v-54.6816h54.6816zM348.22144 512.06144h-54.6816v-54.6816h54.6816z" fill="#553A49" p-id="28125"></path><path d="M402.78016 512.06144h-54.6816v-54.6816h54.6816z" fill="#553A49" p-id="28126"></path><path d="M457.3184 512.06144h-54.6816v-54.6816h54.6816zM512.06144 512.06144h-54.6816v-54.6816h54.6816z" fill="#553A49" p-id="28127"></path><path d="M566.62016 512.06144h-54.6816v-54.6816h54.6816z" fill="#553A49" p-id="28128"></path><path d="M621.1584 512.06144h-54.6816v-54.6816h54.6816zM675.90144 512.06144h-54.6816v-54.6816h54.6816z" fill="#553A49" p-id="28129"></path><path d="M730.46016 512.06144h-54.6816v-54.6816h54.6816z" fill="#553A49" p-id="28130"></path><path d="M784.9984 512.06144h-54.6816v-54.6816h54.6816zM839.74144 512.06144h-54.6816v-54.6816h54.6816zM129.6384 512.06144H74.9568v-54.6816h54.6816zM75.10016 457.3184H20.41856v-54.6816h54.6816z" fill="#553A49" p-id="28131"></path><path d="M75.10016 402.78016H20.41856v-54.6816h54.6816zM129.6384 566.62016H74.9568v-54.6816h54.6816zM184.38144 621.1584h-54.6816v-54.6816h54.6816zM184.38144 675.90144h-54.6816v-54.6816h54.6816z" fill="#553A49" p-id="28132"></path><path d="M184.38144 730.46016h-54.6816v-54.6816h54.6816z" fill="#553A49" p-id="28133"></path><path d="M238.94016 730.46016h-54.6816v-54.6816h54.6816z" fill="#553A49" p-id="28134"></path><path d="M293.4784 730.46016h-54.6816v-54.6816h54.6816z" fill="#553A49" p-id="28135"></path><path d="M293.4784 675.90144h-54.6816v-54.6816h54.6816zM293.4784 621.1584h-54.6816v-54.6816h54.6816zM402.78016 621.1584h-54.6816v-54.6816h54.6816z" fill="#553A49" p-id="28136"></path><path d="M457.3184 621.1584h-54.6816v-54.6816h54.6816zM512.06144 621.1584h-54.6816v-54.6816h54.6816z" fill="#553A49" p-id="28137"></path><path d="M566.62016 621.1584h-54.6816v-54.6816h54.6816z" fill="#553A49" p-id="28138"></path><path d="M621.1584 621.1584h-54.6816v-54.6816h54.6816zM675.90144 621.1584h-54.6816v-54.6816h54.6816zM402.78016 730.46016h-54.6816v-54.6816h54.6816z" fill="#553A49" p-id="28139"></path><path d="M457.3184 730.46016h-54.6816v-54.6816h54.6816zM512.06144 730.46016h-54.6816v-54.6816h54.6816z" fill="#553A49" p-id="28140"></path><path d="M566.62016 730.46016h-54.6816v-54.6816h54.6816z" fill="#553A49" p-id="28141"></path><path d="M621.1584 730.46016h-54.6816v-54.6816h54.6816zM675.90144 730.46016h-54.6816v-54.6816h54.6816zM238.94016 621.1584h-54.6816v-54.6816h54.6816zM784.9984 621.1584h-54.6816v-54.6816h54.6816zM784.9984 675.90144h-54.6816v-54.6816h54.6816z" fill="#553A49" p-id="28142"></path><path d="M784.9984 730.46016h-54.6816v-54.6816h54.6816zM839.74144 730.46016h-54.6816v-54.6816h54.6816z" fill="#553A49" p-id="28143"></path><path d="M894.30016 730.46016h-54.6816v-54.6816h54.6816z" fill="#553A49" p-id="28144"></path><path d="M894.30016 675.90144h-54.6816v-54.6816h54.6816zM894.30016 621.1584h-54.6816v-54.6816h54.6816z" fill="#553A49" p-id="28145"></path><path d="M839.74144 621.1584h-54.6816v-54.6816h54.6816zM75.10016 621.1584H20.41856v-54.6816h54.6816zM75.10016 675.90144H20.41856v-54.6816h54.6816z" fill="#553A49" p-id="28146"></path><path d="M75.10016 730.46016H20.41856v-54.6816h54.6816z" fill="#553A49" p-id="28147"></path><path d="M129.6384 730.46016H74.9568v-54.6816h54.6816z" fill="#FFBB0E" p-id="28148"></path><path d="M129.6384 784.9984H74.9568v-54.6816h54.6816zM184.38144 784.9984h-54.6816v-54.6816h54.6816z" fill="#FFBB0E" p-id="28149"></path><path d="M238.94016 784.9984h-54.6816v-54.6816h54.6816z" fill="#FFBB0E" p-id="28150"></path><path d="M293.4784 784.9984h-54.6816v-54.6816h54.6816zM348.22144 784.9984h-54.6816v-54.6816h54.6816z" fill="#FFBB0E" p-id="28151"></path><path d="M402.78016 784.9984h-54.6816v-54.6816h54.6816z" fill="#FFBB0E" p-id="28152"></path><path d="M457.3184 784.9984h-54.6816v-54.6816h54.6816zM512.06144 784.9984h-54.6816v-54.6816h54.6816z" fill="#FFBB0E" p-id="28153"></path><path d="M566.62016 784.9984h-54.6816v-54.6816h54.6816z" fill="#FFBB0E" p-id="28154"></path><path d="M621.1584 784.9984h-54.6816v-54.6816h54.6816zM675.90144 784.9984h-54.6816v-54.6816h54.6816z" fill="#FFBB0E" p-id="28155"></path><path d="M730.46016 784.9984h-54.6816v-54.6816h54.6816z" fill="#FFBB0E" p-id="28156"></path><path d="M784.9984 784.9984h-54.6816v-54.6816h54.6816zM839.74144 784.9984h-54.6816v-54.6816h54.6816z" fill="#FFBB0E" p-id="28157"></path><path d="M894.30016 784.9984h-54.6816v-54.6816h54.6816z" fill="#FFBB0E" p-id="28158"></path><path d="M948.8384 784.9984h-54.6816v-54.6816h54.6816z" fill="#FFBB0E" p-id="28159"></path><path d="M948.8384 730.46016h-54.6816v-54.6816h54.6816zM730.46016 730.46016h-54.6816v-54.6816h54.6816zM348.22144 730.46016h-54.6816v-54.6816h54.6816z" fill="#FFBB0E" p-id="28160"></path><path d="M348.22144 675.90144h-54.6816v-54.6816h54.6816z" fill="#F2FD34" p-id="28161"></path><path d="M402.78016 675.90144h-54.6816v-54.6816h54.6816z" fill="#F2FD34" p-id="28162"></path><path d="M457.3184 675.90144h-54.6816v-54.6816h54.6816zM512.06144 675.90144h-54.6816v-54.6816h54.6816z" fill="#F2FD34" p-id="28163"></path><path d="M566.62016 675.90144h-54.6816v-54.6816h54.6816z" fill="#F2FD34" p-id="28164"></path><path d="M621.1584 675.90144h-54.6816v-54.6816h54.6816zM675.90144 675.90144h-54.6816v-54.6816h54.6816z" fill="#F2FD34" p-id="28165"></path><path d="M730.46016 675.90144h-54.6816v-54.6816h54.6816zM948.8384 675.90144h-54.6816v-54.6816h54.6816zM948.8384 621.1584h-54.6816v-54.6816h54.6816z" fill="#F2FD34" p-id="28166"></path><path d="M894.30016 566.62016h-54.6816v-54.6816h54.6816z" fill="#F2FD34" p-id="28167"></path><path d="M839.74144 566.62016h-54.6816v-54.6816h54.6816zM784.9984 566.62016h-54.6816v-54.6816h54.6816z" fill="#F2FD34" p-id="28168"></path><path d="M730.46016 566.62016h-54.6816v-54.6816h54.6816z" fill="#F2FD34" p-id="28169"></path><path d="M730.46016 621.1584h-54.6816v-54.6816h54.6816z" fill="#F2FD34" p-id="28170"></path><path d="M675.90144 566.62016h-54.6816v-54.6816h54.6816zM621.1584 566.62016h-54.6816v-54.6816h54.6816z" fill="#F2FD34" p-id="28171"></path><path d="M566.62016 566.62016h-54.6816v-54.6816h54.6816z" fill="#F2FD34" p-id="28172"></path><path d="M512.06144 566.62016h-54.6816v-54.6816h54.6816zM457.3184 566.62016h-54.6816v-54.6816h54.6816z" fill="#F2FD34" p-id="28173"></path><path d="M402.78016 566.62016h-54.6816v-54.6816h54.6816z" fill="#F2FD34" p-id="28174"></path><path d="M348.22144 566.62016h-54.6816v-54.6816h54.6816z" fill="#F2FD34" p-id="28175"></path><path d="M348.22144 621.1584h-54.6816v-54.6816h54.6816zM293.4784 566.62016h-54.6816v-54.6816h54.6816z" fill="#F2FD34" p-id="28176"></path><path d="M238.94016 566.62016h-54.6816v-54.6816h54.6816z" fill="#F2FD34" p-id="28177"></path><path d="M184.38144 566.62016h-54.6816v-54.6816h54.6816zM129.6384 621.1584H74.9568v-54.6816h54.6816zM129.6384 675.90144H74.9568v-54.6816h54.6816z" fill="#F2FD34" p-id="28178"></path><path d="M75.10016 784.9984H20.41856v-54.6816h54.6816zM75.10016 839.74144H20.41856v-54.6816h54.6816z" fill="#553A49" p-id="28179"></path><path d="M129.6384 839.74144H74.9568v-54.6816h54.6816z" fill="#553A49" p-id="28180"></path><path d="M129.6384 894.30016H74.9568v-54.6816h54.6816z" fill="#553A49" p-id="28181"></path><path d="M129.6384 948.8384H74.9568v-54.6816h54.6816zM184.38144 948.8384h-54.6816v-54.6816h54.6816z" fill="#553A49" p-id="28182"></path><path d="M184.38144 894.30016h-54.6816v-54.6816h54.6816z" fill="#553A49" p-id="28183"></path><path d="M184.38144 839.74144h-54.6816v-54.6816h54.6816z" fill="#553A49" p-id="28184"></path><path d="M238.94016 839.74144h-54.6816v-54.6816h54.6816z" fill="#553A49" p-id="28185"></path><path d="M293.4784 839.74144h-54.6816v-54.6816h54.6816zM348.22144 839.74144h-54.6816v-54.6816h54.6816z" fill="#553A49" p-id="28186"></path><path d="M402.78016 839.74144h-54.6816v-54.6816h54.6816z" fill="#553A49" p-id="28187"></path><path d="M457.3184 839.74144h-54.6816v-54.6816h54.6816zM512.06144 839.74144h-54.6816v-54.6816h54.6816z" fill="#553A49" p-id="28188"></path><path d="M566.62016 839.74144h-54.6816v-54.6816h54.6816z" fill="#553A49" p-id="28189"></path><path d="M621.1584 839.74144h-54.6816v-54.6816h54.6816zM675.90144 839.74144h-54.6816v-54.6816h54.6816zM784.9984 784.9984H839.68V839.68h-54.6816z" fill="#553A49" p-id="28190"></path><path d="M730.5216 784.9984h54.6816V839.68h-54.6816zM675.84 784.9984h54.6816V839.68H675.84z" fill="#553A49" p-id="28191"></path></svg>