<?xml version="1.0" standalone="no"?><!DOCTYPE svg PUBLIC "-//W3C//DTD SVG 1.1//EN" "http://www.w3.org/Graphics/SVG/1.1/DTD/svg11.dtd"><svg t="1662495299521" class="icon" viewBox="0 0 1024 1024" version="1.1" xmlns="http://www.w3.org/2000/svg" p-id="1446" xmlns:xlink="http://www.w3.org/1999/xlink" width="200" height="200"><path d="M834.80759 586.277086A218.130178 218.130178 0 1 1 616.364007 368.251377a218.025709 218.025709 0 0 1 218.443583 218.025709z" fill="#FFD800" p-id="1447"></path><path d="M662.225668 771.708631h-371.907774a8.670883 8.670883 0 1 1 0-17.237299h363.236891v-282.064884a8.670883 8.670883 0 0 1 17.341767 0V762.619873a8.670883 8.670883 0 0 1-8.670884 9.088758z" fill="" p-id="1448"></path><path d="M637.257703 746.636197H264.827586a8.670883 8.670883 0 0 1-8.670883-8.670884V248.426036a8.670883 8.670883 0 0 1 8.670883-8.670884H637.257703a8.670883 8.670883 0 0 1 8.670883 8.670884v489.539277a8.670883 8.670883 0 0 1-8.670883 8.670884z m-363.550296-17.341767h355.192817V256.992451h-355.192817z" fill="" p-id="1449"></path><path d="M684.895327 337.955519H637.257703a8.670883 8.670883 0 0 1-8.566416-8.670883v-52.234238a8.566415 8.566415 0 0 1 8.566416-8.566415h47.637624a8.566415 8.566415 0 0 1 7.521731 12.849622l-11.909407 20.893696 11.282596 20.893695a8.566415 8.566415 0 0 1 1.984901 5.536829 8.670883 8.670883 0 0 1-8.879821 9.297694z m-39.175678-17.341767h24.550092l-7.417262-13.998775a8.775352 8.775352 0 0 1 0-8.357479l6.999388-12.640685h-24.132218z" fill="" p-id="1450"></path><path d="M684.895327 390.294226H637.257703a8.670883 8.670883 0 0 1-8.566416-8.670884v-52.234238a8.670883 8.670883 0 0 1 8.566416-8.670883h47.637624a8.566415 8.566415 0 0 1 7.417262 4.283207 8.357478 8.357478 0 0 1 0 8.566415l-11.909406 20.893695 11.282595 20.893696a8.566415 8.566415 0 0 1 1.984901 5.536829 8.670883 8.670883 0 0 1-8.775352 9.402163z m-39.175678-17.341767h24.550092l-7.417262-14.103245a8.566415 8.566415 0 0 1 0-8.253009l6.999388-12.640686h-24.132218z" fill="" p-id="1451"></path><path d="M684.895327 442.528464H637.257703a8.566415 8.566415 0 0 1-8.566416-8.566415v-52.234238a8.670883 8.670883 0 0 1 8.566416-8.775352h47.637624a8.670883 8.670883 0 0 1 7.521731 12.849622l-11.909407 20.893695 11.282596 20.893696a8.87982 8.87982 0 0 1 1.984901 5.641297 8.670883 8.670883 0 0 1-8.879821 9.297695z m-39.175678-17.237299h24.550092l-7.417262-14.103244a8.566415 8.566415 0 0 1 0-8.25301l6.999388-12.640685h-24.132218z" fill="" p-id="1452"></path><path d="M568.20404 674.657417a8.670883 8.670883 0 0 1-8.566415-8.670884v-4.283207a8.670883 8.670883 0 1 1 17.237298 0v4.283207a8.670883 8.670883 0 0 1-8.670883 8.670884z m0-60.487248a8.670883 8.670883 0 0 1-8.566415-8.670883v-4.387676a8.670883 8.670883 0 0 1 17.237298 0V605.91716a8.670883 8.670883 0 0 1-8.670883 8.253009z m0-60.591716a8.670883 8.670883 0 0 1-8.566415-8.670883v-4.283208a8.670883 8.670883 0 1 1 17.237298 0v4.283208a8.670883 8.670883 0 0 1-8.670883 8.775352z" fill="" p-id="1453"></path><path d="M568.20404 549.295246a8.670883 8.670883 0 0 1-8.566415-8.670884v-292.511732a8.670883 8.670883 0 1 1 17.237298 0v292.511732a8.670883 8.670883 0 0 1-8.670883 8.670884zM818.719445 773.902469H814.854111a8.670883 8.670883 0 0 1 0-17.341767h4.387676a8.670883 8.670883 0 0 1 0 17.341767z m-60.591716 0h-4.283207a8.670883 8.670883 0 0 1 0-17.341767h4.283207a8.670883 8.670883 0 0 1 0 17.341767zM818.719445 681.134462H814.854111a8.670883 8.670883 0 0 1 0-17.237298h4.387676a8.670883 8.670883 0 1 1 0 17.237298z m-60.591716 0h-4.283207a8.670883 8.670883 0 1 1 0-17.237298h4.283207a8.670883 8.670883 0 1 1 0 17.237298zM395.935523 191.490716h-4.283207a8.670883 8.670883 0 0 1 0-17.341767h4.283207a8.670883 8.670883 0 0 1 0 17.341767z m-60.591716 0h-4.283207a8.670883 8.670883 0 1 1 0-17.341767h4.283207a8.670883 8.670883 0 0 1 0 17.341767z m-60.487247 0h-4.387676a8.670883 8.670883 0 0 1 0-17.341767h4.387676a8.670883 8.670883 0 0 1 0 17.341767zM697.953887 867.088349h-4.283208a8.670883 8.670883 0 1 1 0-17.341767h4.283208a8.670883 8.670883 0 0 1 0 17.341767zM637.257703 867.088349h-4.17874a8.670883 8.670883 0 1 1 0-17.341767h4.17874A8.670883 8.670883 0 1 1 637.257703 867.088349z m-60.487248 0h-4.283207a8.670883 8.670883 0 0 1 0-17.341767h4.387675a8.670883 8.670883 0 0 1 0 17.341767z" fill="" p-id="1454"></path><path d="M823.8384 867.088349h-125.362171a8.670883 8.670883 0 0 1 0-17.341767h125.362171a8.670883 8.670883 0 1 1 0 17.341767z" fill="" p-id="1455"></path></svg>