<?xml version="1.0" standalone="no"?><!DOCTYPE svg PUBLIC "-//W3C//DTD SVG 1.1//EN" "http://www.w3.org/Graphics/SVG/1.1/DTD/svg11.dtd"><svg t="1661598874137" class="icon" viewBox="0 0 1024 1024" version="1.1" xmlns="http://www.w3.org/2000/svg" p-id="8229" xmlns:xlink="http://www.w3.org/1999/xlink" width="200" height="200"><path d="M877.714286 682.664258h48.7607v48.764313H877.714286zM877.714286 633.903558h48.7607v48.7607H877.714286zM877.714286 585.142857h48.7607v48.760701H877.714286zM877.714286 536.382157h48.7607v48.7607H877.714286zM877.714286 487.617843h48.7607v48.764314H877.714286zM877.714286 438.857143h48.7607v48.7607H877.714286zM877.714286 390.096442h48.7607v48.760701H877.714286zM877.714286 341.332129h48.7607v48.764313H877.714286zM828.949973 731.428571h48.764313v48.760701h-48.764313zM828.949973 682.664258h48.764313v48.764313h-48.764313zM828.949973 633.903558h48.764313v48.7607h-48.764313z" fill="#231815" p-id="8230"></path><path d="M828.949973 585.142857h48.764313v48.760701h-48.764313zM828.949973 536.382157h48.764313v48.7607h-48.764313zM828.949973 487.617843h48.764313v48.764314h-48.764313zM828.949973 438.857143h48.764313v48.7607h-48.764313zM828.949973 390.096442h48.764313v48.760701h-48.764313z" fill="#FBB002" p-id="8231"></path><path d="M828.949973 341.332129h48.764313v48.764313h-48.764313zM828.949973 292.571429h48.764313v48.7607h-48.764313zM828.949973 243.810728h48.764313V292.571429h-48.764313zM780.189272 780.189272h48.760701v48.760701h-48.760701zM780.189272 731.428571h48.760701v48.760701h-48.760701z" fill="#231815" p-id="8232"></path><path d="M780.189272 682.664258h48.760701v48.764313h-48.760701zM780.189272 633.903558h48.760701v48.7607h-48.760701z" fill="#FBB002" p-id="8233"></path><path d="M780.189272 585.142857h48.760701v48.760701h-48.760701zM780.189272 536.382157h48.760701v48.7607h-48.760701zM780.189272 487.617843h48.760701v48.764314h-48.760701zM780.189272 438.857143h48.760701v48.7607h-48.760701zM780.189272 390.096442h48.760701v48.760701h-48.760701z" fill="#010101" p-id="8234"></path><path d="M780.189272 341.332129h48.760701v48.764313h-48.760701z" fill="#FBB002" p-id="8235"></path><path d="M828.949973 292.571429v48.7607h-97.521402V292.571429h97.521402z" fill="#F5F5F5" p-id="8236"></path><path d="M780.189272 243.810728h48.760701V292.571429h-48.760701zM780.189272 195.046415h48.760701v48.764313h-48.760701zM731.428571 828.949973h48.760701v48.764313h-48.760701zM731.428571 780.189272h48.760701v48.760701h-48.760701z" fill="#231815" p-id="8237"></path><path d="M731.428571 731.428571h48.760701v48.760701h-48.760701zM731.428571 682.664258h48.760701v48.764313h-48.760701z" fill="#FBB002" p-id="8238"></path><path d="M731.428571 633.903558h48.760701v48.7607h-48.760701z" fill="#010101" p-id="8239"></path><path d="M731.428571 585.142857h48.760701v48.760701h-48.760701zM731.428571 536.382157h48.760701v48.7607h-48.760701zM731.428571 487.617843h48.760701v48.764314h-48.760701zM731.428571 438.857143h48.760701v48.7607h-48.760701zM731.428571 390.096442h48.760701v48.760701h-48.760701z" fill="#EB8F01" p-id="8240"></path><path d="M731.428571 341.332129h48.760701v48.764313h-48.760701z" fill="#010101" p-id="8241"></path><path d="M731.428571 243.810728h48.760701V292.571429h-48.760701z" fill="#FBB002" p-id="8242"></path><path d="M731.428571 195.046415h48.760701v48.764313h-48.760701zM731.428571 146.285714h48.760701v48.760701h-48.760701zM682.664258 828.949973h48.764313v48.764313h-48.764313z" fill="#231815" p-id="8243"></path><path d="M682.664258 780.189272h48.764313v48.760701h-48.764313zM682.664258 731.428571h48.764313v48.760701h-48.764313z" fill="#FBB002" p-id="8244"></path><path d="M682.664258 682.664258h48.764313v48.764313h-48.764313z" fill="#010101" p-id="8245"></path><path d="M682.664258 633.903558h48.764313v48.7607h-48.764313zM682.664258 585.142857h48.764313v48.760701h-48.764313zM682.664258 536.382157h48.764313v48.7607h-48.764313zM682.664258 487.617843h48.764313v48.764314h-48.764313zM682.664258 438.857143h48.764313v48.7607h-48.764313zM682.664258 390.096442h48.764313v48.760701h-48.764313z" fill="#EB8F01" p-id="8246"></path><path d="M682.664258 341.332129h48.764313v48.764313h-48.764313z" fill="#EB8E00" p-id="8247"></path><path d="M682.664258 292.571429h48.764313v48.7607h-48.764313zM682.664258 243.810728h48.764313V292.571429h-48.764313z" fill="#010101" p-id="8248"></path><path d="M682.664258 195.046415h48.764313v48.764313h-48.764313z" fill="#FBB002" p-id="8249"></path><path d="M682.664258 146.285714h48.764313v48.760701h-48.764313zM633.903558 877.714286h48.7607v48.7607h-48.7607zM633.903558 828.949973h48.7607v48.764313h-48.7607z" fill="#231815" p-id="8250"></path><path d="M633.903558 780.189272h48.7607v48.760701h-48.7607z" fill="#FBB002" p-id="8251"></path><path d="M633.903558 731.428571h48.7607v48.760701h-48.7607z" fill="#010101" p-id="8252"></path><path d="M633.903558 682.664258h48.7607v48.764313h-48.7607z" fill="#EB8F01" p-id="8253"></path><path d="M633.903558 633.903558h48.7607v48.7607h-48.7607zM633.903558 585.142857h48.7607v48.760701h-48.7607zM633.903558 536.382157h48.7607v48.7607h-48.7607zM633.903558 487.617843h48.7607v48.764314h-48.7607z" fill="#FFEA54" p-id="8254"></path><path d="M633.903558 438.857143h48.7607v48.7607h-48.7607z" fill="#EB8F01" p-id="8255"></path><path d="M633.903558 390.096442h48.7607v48.760701h-48.7607zM633.903558 341.332129h48.7607v48.764313h-48.7607z" fill="#FFEA54" p-id="8256"></path><path d="M633.903558 292.571429h48.7607v48.7607h-48.7607z" fill="#EB8F01" p-id="8257"></path><path d="M633.903558 243.810728h48.7607V292.571429h-48.7607z" fill="#010101" p-id="8258"></path><path d="M633.903558 195.046415h48.7607v48.764313h-48.7607z" fill="#F5F5F5" p-id="8259"></path><path d="M633.903558 146.285714h48.7607v48.760701h-48.7607z" fill="#231815" p-id="8260"></path><path d="M633.903558 97.525014h48.7607v48.7607h-48.7607zM585.142857 877.714286h48.760701v48.7607H585.142857z" fill="#231815" p-id="8261"></path><path d="M585.142857 828.949973h48.760701v48.764313H585.142857z" fill="#FBB002" p-id="8262"></path><path d="M585.142857 780.189272h48.760701v48.760701H585.142857z" fill="#010101" p-id="8263"></path><path d="M585.142857 731.428571h48.760701v48.760701H585.142857z" fill="#010202" p-id="8264"></path><path d="M585.142857 682.664258h48.760701v48.764313H585.142857zM585.142857 633.903558h48.760701v48.7607H585.142857zM585.142857 585.142857h48.760701v48.760701H585.142857zM585.142857 536.382157h48.760701v48.7607H585.142857zM585.142857 487.617843h48.760701v48.764314H585.142857z" fill="#FFEA54" p-id="8265"></path><path d="M585.142857 438.857143h48.760701v48.7607H585.142857z" fill="#EB8F01" p-id="8266"></path><path d="M585.142857 390.096442h48.760701v48.760701H585.142857zM585.142857 341.332129h48.760701v48.764313H585.142857z" fill="#FFEA54" p-id="8267"></path><path d="M585.142857 292.571429h48.760701v48.7607H585.142857zM585.142857 243.810728h48.760701V292.571429H585.142857z" fill="#EB8F01" p-id="8268"></path><path d="M585.142857 195.046415h48.760701v48.764313H585.142857z" fill="#010101" p-id="8269"></path><path d="M585.142857 146.285714h48.760701v48.760701H585.142857z" fill="#FBB002" p-id="8270"></path><path d="M585.142857 97.525014h48.760701v48.7607H585.142857zM536.378544 877.714286h48.764313v48.7607h-48.764313z" fill="#231815" p-id="8271"></path><path d="M536.378544 828.949973h48.764313v48.764313h-48.764313z" fill="#FBB002" p-id="8272"></path><path d="M536.378544 780.189272h48.764313v48.760701h-48.764313z" fill="#010101" p-id="8273"></path><path d="M536.378544 731.428571h48.764313v48.760701h-48.764313z" fill="#EB8F01" p-id="8274"></path><path d="M536.378544 682.664258h48.764313v48.764313h-48.764313zM536.378544 633.903558h48.764313v48.7607h-48.764313z" fill="#FFEA54" p-id="8275"></path><path d="M536.378544 585.142857h48.764313v48.760701h-48.764313z" fill="#EB8F01" p-id="8276"></path><path d="M536.378544 536.382157h48.764313v48.7607h-48.764313zM536.378544 487.617843h48.764313v48.764314h-48.764313z" fill="#FFEA54" p-id="8277"></path><path d="M536.378544 438.857143h48.764313v48.7607h-48.764313z" fill="#EB8F01" p-id="8278"></path><path d="M536.378544 390.096442h48.764313v48.760701h-48.764313zM536.378544 341.332129h48.764313v48.764313h-48.764313z" fill="#FFEA54" p-id="8279"></path><path d="M536.378544 292.571429h48.764313v48.7607h-48.764313zM536.378544 243.810728h48.764313V292.571429h-48.764313z" fill="#EB8F01" p-id="8280"></path><path d="M536.378544 195.046415h48.764313v48.764313h-48.764313z" fill="#010101" p-id="8281"></path><path d="M536.378544 146.285714h48.764313v48.760701h-48.764313z" fill="#FBB002" p-id="8282"></path><path d="M536.378544 97.525014h48.764313v48.7607h-48.764313zM487.617843 877.714286h48.760701v48.7607h-48.760701z" fill="#231815" p-id="8283"></path><path d="M487.617843 828.949973h48.760701v48.764313h-48.760701z" fill="#FBB002" p-id="8284"></path><path d="M487.617843 780.189272h48.760701v48.760701h-48.760701z" fill="#010101" p-id="8285"></path><path d="M487.617843 731.428571h48.760701v48.760701h-48.760701z" fill="#EB8F01" p-id="8286"></path><path d="M487.617843 682.664258h48.760701v48.764313h-48.760701zM487.617843 633.903558h48.760701v48.7607h-48.760701z" fill="#FFEA54" p-id="8287"></path><path d="M487.617843 585.142857h48.760701v48.760701h-48.760701z" fill="#EB8F01" p-id="8288"></path><path d="M487.617843 536.382157h48.760701v48.7607h-48.760701zM487.617843 487.617843h48.760701v48.764314h-48.760701z" fill="#FFEA54" p-id="8289"></path><path d="M487.617843 438.857143h48.760701v48.7607h-48.760701z" fill="#EB8F01" p-id="8290"></path><path d="M487.617843 390.096442h48.760701v48.760701h-48.760701zM487.617843 341.332129h48.760701v48.764313h-48.760701z" fill="#FFEA54" p-id="8291"></path><path d="M487.617843 292.571429h48.760701v48.7607h-48.760701zM487.617843 243.810728h48.760701V292.571429h-48.760701z" fill="#EB8F01" p-id="8292"></path><path d="M487.617843 195.046415h48.760701v48.764313h-48.760701z" fill="#010101" p-id="8293"></path><path d="M487.617843 146.285714h48.760701v48.760701h-48.760701z" fill="#FBB002" p-id="8294"></path><path d="M487.617843 97.525014h48.760701v48.7607h-48.760701zM438.857143 877.714286h48.7607v48.7607h-48.7607z" fill="#231815" p-id="8295"></path><path d="M438.857143 828.949973h48.7607v48.764313h-48.7607z" fill="#FBB002" p-id="8296"></path><path d="M438.857143 780.189272h48.7607v48.760701h-48.7607z" fill="#010101" p-id="8297"></path><path d="M438.857143 731.428571h48.7607v48.760701h-48.7607z" fill="#EB8F01" p-id="8298"></path><path d="M438.857143 682.664258h48.7607v48.764313h-48.7607zM438.857143 633.903558h48.7607v48.7607h-48.7607zM438.857143 585.142857h48.7607v48.760701h-48.7607z" fill="#FFEA54" p-id="8299"></path><path d="M438.857143 536.382157h48.7607v48.7607h-48.7607zM438.857143 487.617843h48.7607v48.764314h-48.7607zM438.857143 438.857143h48.7607v48.7607h-48.7607z" fill="#EB8F01" p-id="8300"></path><path d="M438.857143 390.096442h48.7607v48.760701h-48.7607zM438.857143 341.332129h48.7607v48.764313h-48.7607z" fill="#FFEA54" p-id="8301"></path><path d="M438.857143 292.571429h48.7607v48.7607h-48.7607zM438.857143 243.810728h48.7607V292.571429h-48.7607z" fill="#EB8F01" p-id="8302"></path><path d="M438.857143 195.046415h48.7607v48.764313h-48.7607z" fill="#010101" p-id="8303"></path><path d="M438.857143 146.285714h48.7607v48.760701h-48.7607z" fill="#FBB002" p-id="8304"></path><path d="M438.857143 97.525014h48.7607v48.7607h-48.7607zM390.096442 877.714286h48.760701v48.7607h-48.760701z" fill="#231815" p-id="8305"></path><path d="M390.096442 828.949973h48.760701v48.764313h-48.760701z" fill="#FBB002" p-id="8306"></path><path d="M390.096442 780.189272h48.760701v48.760701h-48.760701z" fill="#010202" p-id="8307"></path><path d="M390.096442 731.428571h48.760701v48.760701h-48.760701z" fill="#010101" p-id="8308"></path><path d="M390.096442 682.664258h48.760701v48.764313h-48.760701zM390.096442 633.903558h48.760701v48.7607h-48.760701zM390.096442 585.142857h48.760701v48.760701h-48.760701zM390.096442 536.382157h48.760701v48.7607h-48.760701zM390.096442 487.617843h48.760701v48.764314h-48.760701zM390.096442 438.857143h48.760701v48.7607h-48.760701zM390.096442 390.096442h48.760701v48.760701h-48.760701zM390.096442 341.332129h48.760701v48.764313h-48.760701z" fill="#FFEA54" p-id="8309"></path><path d="M390.096442 292.571429h48.760701v48.7607h-48.760701zM390.096442 243.810728h48.760701V292.571429h-48.760701z" fill="#EB8F01" p-id="8310"></path><path d="M390.096442 195.046415h48.760701v48.764313h-48.760701z" fill="#010101" p-id="8311"></path><path d="M390.096442 146.285714h48.760701v48.760701h-48.760701z" fill="#FBB002" p-id="8312"></path><path d="M390.096442 97.525014h48.760701v48.7607h-48.760701zM341.332129 877.714286h48.764313v48.7607H341.332129zM341.332129 828.949973h48.764313v48.764313H341.332129z" fill="#231815" p-id="8313"></path><path d="M341.332129 780.189272h48.764313v48.760701H341.332129z" fill="#FBB002" p-id="8314"></path><path d="M341.332129 731.428571h48.764313v48.760701H341.332129z" fill="#010101" p-id="8315"></path><path d="M341.332129 682.664258h48.764313v48.764313H341.332129z" fill="#EB8F01" p-id="8316"></path><path d="M341.332129 633.903558h48.764313v48.7607H341.332129zM341.332129 585.142857h48.764313v48.760701H341.332129zM341.332129 536.382157h48.764313v48.7607H341.332129zM341.332129 487.617843h48.764313v48.764314H341.332129zM341.332129 438.857143h48.764313v48.7607H341.332129zM341.332129 390.096442h48.764313v48.760701H341.332129zM341.332129 341.332129h48.764313v48.764313H341.332129z" fill="#FFEA54" p-id="8317"></path><path d="M341.332129 292.571429h48.764313v48.7607H341.332129z" fill="#EB8F01" p-id="8318"></path><path d="M341.332129 243.810728h48.764313V292.571429H341.332129z" fill="#010101" p-id="8319"></path><path d="M341.332129 195.046415h48.764313v48.764313H341.332129z" fill="#FBB002" p-id="8320"></path><path d="M341.332129 146.285714h48.764313v48.760701H341.332129z" fill="#231815" p-id="8321"></path><path d="M341.332129 97.525014h48.764313v48.7607H341.332129zM292.571429 828.949973h48.7607v48.764313H292.571429z" fill="#231815" p-id="8322"></path><path d="M292.571429 780.189272h48.7607v48.760701H292.571429z" fill="#F5F5F5" p-id="8323"></path><path d="M292.571429 731.428571h48.7607v48.760701H292.571429z" fill="#FBB002" p-id="8324"></path><path d="M292.571429 682.664258h48.7607v48.764313H292.571429z" fill="#010101" p-id="8325"></path><path d="M292.571429 633.903558h48.7607v48.7607H292.571429z" fill="#EB8F01" p-id="8326"></path><path d="M292.571429 585.142857h48.7607v48.760701H292.571429z" fill="#EA8E01" p-id="8327"></path><path d="M292.571429 536.382157h48.7607v48.7607H292.571429zM292.571429 487.617843h48.7607v48.764314H292.571429zM292.571429 438.857143h48.7607v48.7607H292.571429z" fill="#FFEA54" p-id="8328"></path><path d="M292.571429 390.096442h48.7607v48.760701H292.571429z" fill="#EB8E00" p-id="8329"></path><path d="M292.571429 341.332129h48.7607v48.764313H292.571429zM292.571429 292.571429h48.7607v48.7607H292.571429z" fill="#EB8F01" p-id="8330"></path><path d="M292.571429 243.810728h48.7607V292.571429H292.571429z" fill="#010101" p-id="8331"></path><path d="M292.571429 195.046415h48.7607v48.764313H292.571429z" fill="#FBB002" p-id="8332"></path><path d="M292.571429 146.285714h48.7607v48.760701H292.571429zM243.810728 828.949973H292.571429v48.764313H243.810728z" fill="#231815" p-id="8333"></path><path d="M243.810728 780.189272H292.571429v48.760701H243.810728z" fill="#F5F5F5" p-id="8334"></path><path d="M243.810728 731.428571H292.571429v48.760701H243.810728zM243.810728 682.664258H292.571429v48.764313H243.810728z" fill="#FBB002" p-id="8335"></path><path d="M243.810728 633.903558H292.571429v48.7607H243.810728z" fill="#010101" p-id="8336"></path><path d="M243.810728 585.142857H292.571429v48.760701H243.810728zM243.810728 536.382157H292.571429v48.7607H243.810728zM243.810728 487.617843H292.571429v48.764314H243.810728zM243.810728 438.857143H292.571429v48.7607H243.810728zM243.810728 390.096442H292.571429v48.760701H243.810728z" fill="#EB8F01" p-id="8337"></path><path d="M243.810728 341.332129H292.571429v48.764313H243.810728zM243.810728 292.571429H292.571429v48.7607H243.810728z" fill="#010101" p-id="8338"></path><path d="M243.810728 243.810728H292.571429V292.571429H243.810728z" fill="#FBB002" p-id="8339"></path><path d="M243.810728 195.046415H292.571429v48.764313H243.810728zM243.810728 146.285714H292.571429v48.760701H243.810728zM195.046415 780.189272h48.764313v48.760701H195.046415zM195.046415 731.428571h48.764313v48.760701H195.046415z" fill="#231815" p-id="8340"></path><path d="M195.046415 682.664258h48.764313v48.764313H195.046415z" fill="#FBB002" p-id="8341"></path><path d="M195.046415 633.903558h48.764313v48.7607H195.046415z" fill="#F5F5F5" p-id="8342"></path><path d="M195.046415 585.142857h48.764313v48.760701H195.046415zM195.046415 536.382157h48.764313v48.7607H195.046415zM195.046415 487.617843h48.764313v48.764314H195.046415zM195.046415 438.857143h48.764313v48.7607H195.046415zM195.046415 390.096442h48.764313v48.760701H195.046415z" fill="#010101" p-id="8343"></path><path d="M195.046415 341.332129h48.764313v48.764313H195.046415zM195.046415 292.571429h48.764313v48.7607H195.046415z" fill="#FBB002" p-id="8344"></path><path d="M195.046415 243.810728h48.764313V292.571429H195.046415zM195.046415 195.046415h48.764313v48.764313H195.046415zM146.285714 731.428571h48.760701v48.760701H146.285714zM146.285714 682.664258h48.760701v48.764313H146.285714zM146.285714 633.903558h48.760701v48.7607H146.285714z" fill="#231815" p-id="8345"></path><path d="M146.285714 585.142857h48.760701v48.760701H146.285714zM146.285714 536.382157h48.760701v48.7607H146.285714zM146.285714 487.617843h48.760701v48.764314H146.285714zM146.285714 438.857143h48.760701v48.7607H146.285714zM146.285714 390.096442h48.760701v48.760701H146.285714z" fill="#FBB002" p-id="8346"></path><path d="M146.285714 341.332129h48.760701v48.764313H146.285714zM146.285714 292.571429h48.760701v48.7607H146.285714zM146.285714 243.810728h48.760701V292.571429H146.285714zM97.525014 682.664258h48.7607v48.764313H97.525014zM97.525014 633.903558h48.7607v48.7607H97.525014zM97.525014 585.142857h48.7607v48.760701H97.525014zM97.525014 536.382157h48.7607v48.7607H97.525014zM97.525014 487.617843h48.7607v48.764314H97.525014zM97.525014 438.857143h48.7607v48.7607H97.525014zM97.525014 390.096442h48.7607v48.760701H97.525014z" fill="#231815" p-id="8347"></path><path d="M97.525014 341.332129h48.7607v48.764313H97.525014zM97.525014 292.571429h48.7607v48.7607H97.525014z" fill="#231815" p-id="8348"></path></svg>