<?xml version="1.0" standalone="no"?><!DOCTYPE svg PUBLIC "-//W3C//DTD SVG 1.1//EN" "http://www.w3.org/Graphics/SVG/1.1/DTD/svg11.dtd"><svg t="1662495627108" class="icon" viewBox="0 0 1024 1024" version="1.1" xmlns="http://www.w3.org/2000/svg" p-id="1659" xmlns:xlink="http://www.w3.org/1999/xlink" width="200" height="200"><path d="M778.069333 161.621333L582.314667 142.677333a17.066667 17.066667 0 0 0-13.312 4.437334 17.066667 17.066667 0 0 0-5.461334 13.141333l9.557334 254.976a17.066667 17.066667 0 0 0 10.922666 15.36L707.072 477.866667a19.285333 19.285333 0 0 0 6.144 1.024 16.042667 16.042667 0 0 0 6.314667-1.194667l72.533333-28.501333a17.066667 17.066667 0 0 0 10.752-14.165334l21.162667-217.770666a51.2 51.2 0 0 0-45.909334-55.637334z" fill="#FFC670" p-id="1660"></path><path d="M563.541333 796.586667L783.291733 576.853333l64.324267 64.324267-219.767467 219.7504z" fill="#FFDEAD" p-id="1661"></path><path d="M847.650133 641.024l-64.341333-64.324267 20.8896-20.872533a39.424 39.424 0 0 1 55.7568 0l8.567467 8.567467a39.424 39.424 0 0 1 0 55.7568l-20.872534 20.872533z" fill="#F6716F" p-id="1662"></path><path d="M627.882667 861.013333l-96.597334 32.085334 32.085334-96.426667h0.170666l64.341334 64.341333z" fill="#FFDEAD" p-id="1663"></path><path d="M690.517333 261.632h-102.4a5.632 5.632 0 0 1-5.632-5.632V153.6a39.765333 39.765333 0 0 0-39.936-39.765333h-307.2a51.2 51.2 0 0 0-51.2 51.2v693.930666a51.2 51.2 0 0 0 51.2 51.2h167.594667a17.066667 17.066667 0 0 0 16.042667-11.605333l29.013333-86.528L725.333333 534.528a17.066667 17.066667 0 0 0 4.949334-12.117333V301.568a39.765333 39.765333 0 0 0-39.765334-39.936z" fill="#FFF6E6" p-id="1664"></path><path d="M380.928 241.322667H201.386667v261.632h179.541333a39.765333 39.765333 0 0 0 39.765333-39.765334V281.088a39.765333 39.765333 0 0 0-39.765333-39.765333zM705.024 283.989333a22.016 22.016 0 0 0-14.506667-5.290666h-102.4A22.698667 22.698667 0 0 1 565.418667 256V153.6a22.528 22.528 0 0 0-6.656-16.042667z" fill="#FFDEAD" p-id="1665"></path><path d="M280.917333 545.28l90.965334 0 0 90.965333-90.965334 0 0-90.965333Z" fill="#79DEB4" p-id="1666"></path><path d="M144.384 226.645333l227.498667 0 0 227.498667-227.498667 0 0-227.498667Z" fill="#79DEB4" p-id="1667"></path><path d="M402.944 876.032h-167.594667a17.066667 17.066667 0 0 1-17.066666-17.066667V471.210667h130.901333a39.765333 39.765333 0 0 0 39.765333-39.765334V249.344a39.765333 39.765333 0 0 0-39.765333-39.765333h-130.901333V165.034667a17.066667 17.066667 0 0 1 17.066666-17.066667h307.2a5.802667 5.802667 0 0 1 5.802667 5.632v102.4a39.765333 39.765333 0 0 0 39.765333 39.765333h102.4a5.632 5.632 0 0 1 5.632 5.802667v221.866667a17.066667 17.066667 0 0 0 34.133334 0v-221.866667A39.594667 39.594667 0 0 0 716.8 273.066667l-90.624-90.624 148.309333 14.336a17.066667 17.066667 0 0 1 15.189334 18.773333l-20.821334 216.405333a17.066667 17.066667 0 0 0 15.36 18.773334 17.066667 17.066667 0 0 0 18.602667-15.36l21.162667-217.770667a51.2 51.2 0 0 0-45.909334-55.978667L588.458667 143.189333l-17.066667-17.066666a39.594667 39.594667 0 0 0-28.16-11.605334h-307.2a51.2 51.2 0 0 0-51.2 51.2v44.544h-17.066667a39.936 39.936 0 0 0-39.765333 39.765334v181.418666a39.765333 39.765333 0 0 0 39.765333 39.765334h17.066667v387.754666a51.2 51.2 0 0 0 51.2 51.2h167.594667a17.066667 17.066667 0 0 0 0-34.133333z m179.541333-690.688l76.117334 76.288h-70.485334a5.632 5.632 0 0 1-5.632-5.632zM161.450667 431.445333V249.344a5.632 5.632 0 0 1 5.632-5.632h182.101333a5.632 5.632 0 0 1 5.632 5.632v182.101333a5.632 5.632 0 0 1-5.632 5.632H167.082667a5.632 5.632 0 0 1-5.632-5.632z" fill="#3D3D63" p-id="1668"></path><path d="M290.133333 529.066667a26.112 26.112 0 0 0-26.282666 26.112v72.874666A26.282667 26.282667 0 0 0 290.133333 653.312h72.704a26.112 26.112 0 0 0 26.112-26.112v-72.874667A25.941333 25.941333 0 0 0 362.837333 529.066667z m64.682667 90.965333h-56.832V563.2h56.832zM605.184 625.322667a17.066667 17.066667 0 0 0-17.066667-17.066667h-136.533333a17.066667 17.066667 0 0 0 0 34.133333h136.533333a17.066667 17.066667 0 0 0 17.066667-17.066666zM451.584 539.136a17.066667 17.066667 0 0 0 0 34.133333h56.832a17.066667 17.066667 0 0 0 0-34.133333zM582.485333 397.312a17.066667 17.066667 0 0 0-17.066666-17.066667h-113.834667a17.066667 17.066667 0 0 0 0 34.133334h113.834667a17.066667 17.066667 0 0 0 17.066666-17.066667zM451.584 345.088h56.832a17.066667 17.066667 0 0 0 0-34.133333h-56.832a17.066667 17.066667 0 0 0 0 34.133333zM290.133333 296.96l-51.2 51.2-14.677333-14.677333a17.066667 17.066667 0 0 0-24.064 0 17.066667 17.066667 0 0 0 0 24.234666l26.624 26.624a17.066667 17.066667 0 0 0 12.117333 5.12 17.066667 17.066667 0 0 0 12.117334-5.12l62.805333-62.634666A17.066667 17.066667 0 0 0 290.133333 296.96zM880.128 552.96l-8.704-8.704a56.490667 56.490667 0 0 0-79.872 0L551.424 785.066667a15.018667 15.018667 0 0 0-4.096 6.656L515.072 887.466667a17.066667 17.066667 0 0 0 21.504 21.504l96.597333-31.744a17.066667 17.066667 0 0 0 6.656-4.266667l240.298667-240.128a56.490667 56.490667 0 0 0 0-79.872zM558.250667 866.133333l12.629333-37.888L596.138667 853.333333zM627.882667 836.266667l-40.277334-40.106667 153.6-153.6L781.482667 682.666667z m177.834666-177.322667l-40.277333-40.106667 17.066667-17.066666 40.106666 40.277333z m50.176-51.2l-8.192 8.362667-40.277333-39.253334 8.362667-8.362666a22.357333 22.357333 0 0 1 31.573333 0l8.533333 8.533333a22.357333 22.357333 0 0 1 0 31.573333z" fill="#3D3D63" p-id="1669"></path></svg>