<?xml version="1.0" standalone="no"?><!DOCTYPE svg PUBLIC "-//W3C//DTD SVG 1.1//EN" "http://www.w3.org/Graphics/SVG/1.1/DTD/svg11.dtd"><svg t="1661319351177" class="icon" viewBox="0 0 1024 1024" version="1.1" xmlns="http://www.w3.org/2000/svg" p-id="136024" xmlns:xlink="http://www.w3.org/1999/xlink" width="200" height="200"><defs><style type="text/css">@font-face { font-family: feedback-iconfont; src: url("//at.alicdn.com/t/font_1031158_u69w8yhxdu.woff2?t=1630033759944") format("woff2"), url("//at.alicdn.com/t/font_1031158_u69w8yhxdu.woff?t=1630033759944") format("woff"), url("//at.alicdn.com/t/font_1031158_u69w8yhxdu.ttf?t=1630033759944") format("truetype"); }
</style></defs><path d="M146.285714 926.474986h48.760701v48.760701H146.285714zM877.714286 877.714286h48.7607v48.7607H877.714286z" fill="#09111F" p-id="136025"></path><path d="M828.949973 877.714286h48.764313v48.7607h-48.764313zM146.285714 877.714286h48.760701v48.7607H146.285714z" fill="#596988" p-id="136026"></path><path d="M97.525014 877.714286h48.7607v48.7607H97.525014zM48.760701 828.949973h48.764313v48.764313H48.760701zM926.474986 828.949973h48.760701v48.764313h-48.760701zM828.949973 926.474986h48.764313v48.760701h-48.764313zM926.474986 780.189272h48.760701v48.760701h-48.760701zM48.760701 780.189272h48.764313v48.760701H48.760701z" fill="#09111F" p-id="136027"></path><path d="M97.525014 828.949973h48.7607v48.764313H97.525014zM877.714286 828.949973h48.7607v48.764313H877.714286z" fill="#596988" p-id="136028"></path><path d="M926.474986 585.142857h48.760701v48.760701h-48.760701zM975.235687 487.617843h48.764313v48.760701h-48.764313zM975.235687 536.378544h48.764313v48.764313h-48.764313zM975.235687 438.857143h48.764313v48.7607h-48.764313zM926.474986 390.096442h48.760701v48.760701h-48.760701zM48.760701 585.142857h48.764313v48.760701H48.760701zM0 487.617843h48.760701v48.760701H0zM0 536.378544h48.760701v48.764313H0zM0 438.857143h48.760701v48.7607H0zM48.760701 390.096442h48.764313v48.760701H48.760701z" fill="#09111F" p-id="136029"></path><path d="M487.617843 146.285714h48.760701v48.760701h-48.760701zM487.617843 48.760701h48.760701v48.764313h-48.760701z" fill="#596988" p-id="136030"></path><path d="M487.617843 97.525014h48.760701v48.7607h-48.760701zM536.378544 48.760701h48.764313v48.764313h-48.764313zM536.378544 146.285714h48.764313v48.760701h-48.764313z" fill="#596988" p-id="136031"></path><path d="M536.378544 97.525014h48.764313v48.7607h-48.764313zM438.857143 146.285714h48.7607v48.760701h-48.7607zM438.857143 48.760701h48.7607v48.764313h-48.7607z" fill="#596988" p-id="136032"></path><path d="M438.857143 97.525014h48.7607v48.7607h-48.7607z" fill="#596988" p-id="136033"></path><path d="M390.096442 585.142857h48.760701v48.760701h-48.760701zM390.096442 438.857143h48.760701v48.7607h-48.760701zM390.096442 390.096442h48.760701v48.760701h-48.760701zM390.096442 536.378544h48.760701v48.764313h-48.760701zM390.096442 487.617843h48.760701v48.760701h-48.760701zM633.903558 438.857143h48.7607v48.7607h-48.7607zM633.903558 487.617843h48.7607v48.760701h-48.7607zM633.903558 390.096442h48.7607v48.760701h-48.7607zM585.142857 585.142857h48.760701v48.760701H585.142857zM633.903558 536.378544h48.7607v48.764313h-48.7607zM438.857143 585.142857h48.7607v48.760701h-48.7607zM536.378544 585.142857h48.764313v48.760701h-48.764313zM487.617843 390.096442h48.760701v48.760701h-48.760701zM585.142857 390.096442h48.760701v48.760701H585.142857zM536.378544 390.096442h48.764313v48.760701h-48.764313zM487.617843 585.142857h48.760701v48.760701h-48.760701zM438.857143 390.096442h48.7607v48.760701h-48.7607z" fill="#586787" p-id="136034"></path><path d="M585.142857 438.857143h48.760701v48.7607H585.142857zM585.142857 487.617843h48.760701v48.760701H585.142857zM585.142857 536.378544h48.760701v48.764313H585.142857zM438.857143 438.857143h48.7607v48.7607h-48.7607zM438.857143 487.617843h48.7607v48.760701h-48.7607zM536.378544 536.378544h48.764313v48.764313h-48.764313zM487.617843 536.378544h48.760701v48.764313h-48.760701zM536.378544 438.857143h48.764313v48.7607h-48.764313zM536.378544 487.617843h48.764313v48.760701h-48.764313z" fill="#2F3654" p-id="136035"></path><path d="M438.857143 536.378544h48.7607v48.764313h-48.7607z" fill="#FFFFFF" p-id="136036"></path><path d="M487.617843 487.617843h48.760701v48.760701h-48.760701zM487.617843 438.857143h48.760701v48.7607h-48.760701z" fill="#2F3654" p-id="136037"></path><path d="M682.664258 633.903558h48.764313v48.7607h-48.764313zM390.096442 633.903558h48.760701v48.7607h-48.760701zM682.664258 390.096442h48.764313v48.760701h-48.764313z" fill="#B9C5D6" p-id="136038"></path><path d="M633.903558 585.142857h48.7607v48.760701h-48.7607z" fill="#586787" p-id="136039"></path><path d="M585.142857 633.903558h48.760701v48.7607H585.142857zM682.664258 585.142857h48.764313v48.760701h-48.764313zM633.903558 633.903558h48.7607v48.7607h-48.7607zM682.664258 536.378544h48.764313v48.764313h-48.764313z" fill="#B9C5D6" p-id="136040"></path><path d="M682.664258 341.332129h48.764313v48.764313h-48.764313z" fill="#FFFFFF" p-id="136041"></path><path d="M633.903558 341.332129h48.7607v48.764313h-48.7607zM682.664258 487.617843h48.764313v48.760701h-48.764313zM682.664258 438.857143h48.764313v48.7607h-48.764313zM487.617843 633.903558h48.760701v48.7607h-48.760701zM585.142857 341.332129h48.760701v48.764313H585.142857zM536.378544 633.903558h48.764313v48.7607h-48.764313zM438.857143 633.903558h48.7607v48.7607h-48.7607zM536.378544 341.332129h48.764313v48.764313h-48.764313zM487.617843 341.332129h48.760701v48.764313h-48.760701zM438.857143 341.332129h48.7607v48.764313h-48.7607zM390.096442 341.332129h48.760701v48.764313h-48.760701zM341.332129 390.096442h48.764313v48.760701H341.332129zM341.332129 536.378544h48.764313v48.764313H341.332129zM341.332129 633.903558h48.764313v48.7607H341.332129zM341.332129 585.142857h48.764313v48.760701H341.332129zM341.332129 487.617843h48.764313v48.760701H341.332129zM341.332129 438.857143h48.764313v48.7607H341.332129zM341.332129 341.332129h48.764313v48.764313H341.332129zM292.571429 390.096442h48.7607v48.760701H292.571429zM292.571429 341.332129h48.7607v48.764313H292.571429zM292.571429 536.378544h48.7607v48.764313H292.571429zM292.571429 633.903558h48.7607v48.7607H292.571429zM292.571429 585.142857h48.7607v48.760701H292.571429zM292.571429 487.617843h48.7607v48.760701H292.571429zM292.571429 438.857143h48.7607v48.7607H292.571429zM390.096442 682.664258h48.760701v48.764313h-48.760701zM633.903558 682.664258h48.7607v48.764313h-48.7607zM585.142857 682.664258h48.760701v48.764313H585.142857zM682.664258 682.664258h48.764313v48.764313h-48.764313zM438.857143 682.664258h48.7607v48.764313h-48.7607zM536.378544 682.664258h48.764313v48.764313h-48.764313zM487.617843 682.664258h48.760701v48.764313h-48.760701zM341.332129 682.664258h48.764313v48.764313H341.332129zM731.428571 633.903558h48.760701v48.7607h-48.760701zM731.428571 585.142857h48.760701v48.760701h-48.760701zM731.428571 487.617843h48.760701v48.760701h-48.760701zM731.428571 536.378544h48.760701v48.764313h-48.760701zM731.428571 438.857143h48.760701v48.7607h-48.760701zM731.428571 390.096442h48.760701v48.760701h-48.760701zM731.428571 341.332129h48.760701v48.764313h-48.760701z" fill="#B9C5D6" p-id="136042"></path><path d="M633.903558 292.571429h48.7607v48.7607h-48.7607zM682.664258 292.571429h48.764313v48.7607h-48.764313zM585.142857 292.571429h48.760701v48.7607H585.142857zM536.378544 292.571429h48.764313v48.7607h-48.764313z" fill="#FFFFFF" p-id="136043"></path><path d="M487.617843 292.571429h48.760701v48.7607h-48.760701zM438.857143 292.571429h48.7607v48.7607h-48.7607zM390.096442 292.571429h48.760701v48.7607h-48.760701zM341.332129 292.571429h48.764313v48.7607H341.332129z" fill="#B9C5D6" p-id="136044"></path><path d="M731.428571 292.571429h48.760701v48.7607h-48.760701zM292.571429 292.571429h48.7607v48.7607H292.571429zM731.428571 682.664258h48.760701v48.764313h-48.760701zM292.571429 682.664258h48.7607v48.764313H292.571429zM292.571429 243.810728h48.7607V292.571429H292.571429zM877.714286 536.378544h48.7607v48.764313H877.714286zM877.714286 487.617843h48.7607v48.760701H877.714286zM877.714286 438.857143h48.7607v48.7607H877.714286zM828.949973 536.378544h48.764313v48.764313h-48.764313zM828.949973 438.857143h48.764313v48.7607h-48.764313zM828.949973 390.096442h48.764313v48.760701h-48.764313zM828.949973 585.142857h48.764313v48.760701h-48.764313zM828.949973 487.617843h48.764313v48.760701h-48.764313zM780.189272 341.332129h48.760701v48.764313h-48.760701zM780.189272 633.903558h48.760701v48.7607h-48.760701zM780.189272 438.857143h48.760701v48.7607h-48.760701zM780.189272 487.617843h48.760701v48.760701h-48.760701zM780.189272 390.096442h48.760701v48.760701h-48.760701zM780.189272 292.571429h48.760701v48.7607h-48.760701zM780.189272 536.378544h48.760701v48.764313h-48.760701zM780.189272 682.664258h48.760701v48.764313h-48.760701zM780.189272 585.142857h48.760701v48.760701h-48.760701zM780.189272 243.810728h48.760701V292.571429h-48.760701zM731.428571 243.810728h48.760701V292.571429h-48.760701zM682.664258 243.810728h48.764313V292.571429h-48.764313zM633.903558 243.810728h48.7607V292.571429h-48.7607zM536.378544 243.810728h48.764313V292.571429h-48.764313zM487.617843 243.810728h48.760701V292.571429h-48.760701zM585.142857 243.810728h48.760701V292.571429H585.142857zM438.857143 243.810728h48.7607V292.571429h-48.7607zM390.096442 243.810728h48.760701V292.571429h-48.760701zM341.332129 243.810728h48.764313V292.571429H341.332129zM877.714286 195.046415h48.7607v48.764313H877.714286zM828.949973 195.046415h48.764313v48.764313h-48.764313zM828.949973 243.810728h48.764313V292.571429h-48.764313zM828.949973 146.285714h48.764313v48.760701h-48.764313zM780.189272 195.046415h48.760701v48.764313h-48.760701zM780.189272 146.285714h48.760701v48.760701h-48.760701z" fill="#596988" p-id="136045"></path><path d="M780.189272 97.525014h48.760701v48.7607h-48.760701zM292.571429 195.046415h48.7607v48.764313H292.571429zM682.664258 195.046415h48.764313v48.764313h-48.764313zM731.428571 146.285714h48.760701v48.760701h-48.760701zM731.428571 195.046415h48.760701v48.764313h-48.760701zM633.903558 195.046415h48.7607v48.764313h-48.7607zM536.378544 195.046415h48.764313v48.764313h-48.764313zM487.617843 195.046415h48.760701v48.764313h-48.760701zM585.142857 195.046415h48.760701v48.764313H585.142857zM438.857143 195.046415h48.7607v48.764313h-48.7607zM390.096442 195.046415h48.760701v48.764313h-48.760701zM341.332129 195.046415h48.764313v48.764313H341.332129zM780.189272 828.949973h48.760701v48.764313h-48.760701zM731.428571 780.189272h48.760701v48.760701h-48.760701zM780.189272 780.189272h48.760701v48.760701h-48.760701zM828.949973 780.189272h48.764313v48.760701h-48.764313z" fill="#596988" p-id="136046"></path><path d="M828.949973 731.428571h48.764313v48.760701h-48.764313z" fill="#FFFFFF" p-id="136047"></path><path d="M780.189272 731.428571h48.760701v48.760701h-48.760701zM731.428571 731.428571h48.760701v48.760701h-48.760701zM682.664258 731.428571h48.764313v48.760701h-48.764313zM633.903558 731.428571h48.7607v48.760701h-48.7607zM585.142857 780.189272h48.760701v48.760701H585.142857zM585.142857 731.428571h48.760701v48.760701H585.142857zM487.617843 731.428571h48.760701v48.760701h-48.760701zM536.378544 731.428571h48.764313v48.760701h-48.764313zM536.378544 828.949973h48.764313v48.764313h-48.764313zM536.378544 780.189272h48.764313v48.760701h-48.764313zM487.617843 780.189272h48.760701v48.760701h-48.760701zM487.617843 828.949973h48.760701v48.764313h-48.760701zM536.378544 877.714286h48.764313v48.7607h-48.764313zM487.617843 877.714286h48.760701v48.7607h-48.760701zM438.857143 828.949973h48.7607v48.764313h-48.7607zM438.857143 877.714286h48.7607v48.7607h-48.7607zM438.857143 780.189272h48.7607v48.760701h-48.7607zM390.096442 780.189272h48.760701v48.760701h-48.760701zM390.096442 731.428571h48.760701v48.760701h-48.760701zM292.571429 731.428571h48.7607v48.760701H292.571429zM438.857143 731.428571h48.7607v48.760701h-48.7607zM341.332129 731.428571h48.764313v48.760701H341.332129zM195.046415 828.949973h48.764313v48.764313H195.046415zM146.285714 780.189272h48.760701v48.760701H146.285714zM195.046415 780.189272h48.764313v48.760701H195.046415zM195.046415 682.664258h48.764313v48.764313H195.046415zM146.285714 731.428571h48.760701v48.760701H146.285714zM195.046415 731.428571h48.764313v48.760701H195.046415zM243.810728 780.189272H292.571429v48.760701H243.810728zM243.810728 731.428571H292.571429v48.760701H243.810728zM243.810728 682.664258H292.571429v48.764313H243.810728zM243.810728 633.903558H292.571429v48.7607H243.810728zM146.285714 585.142857h48.760701v48.760701H146.285714zM195.046415 536.378544h48.764313v48.764313H195.046415zM146.285714 536.378544h48.760701v48.764313H146.285714z" fill="#596988" p-id="136048"></path><path d="M97.525014 536.378544h48.7607v48.764313H97.525014zM146.285714 487.617843h48.760701v48.760701H146.285714zM195.046415 487.617843h48.764313v48.760701H195.046415z" fill="#596988" p-id="136049"></path><path d="M97.525014 487.617843h48.7607v48.760701H97.525014zM243.810728 536.378544H292.571429v48.764313H243.810728zM243.810728 438.857143H292.571429v48.7607H243.810728zM243.810728 585.142857H292.571429v48.760701H243.810728zM243.810728 487.617843H292.571429v48.760701H243.810728zM195.046415 585.142857h48.764313v48.760701H195.046415zM195.046415 633.903558h48.764313v48.7607H195.046415zM243.810728 341.332129H292.571429v48.764313H243.810728zM195.046415 341.332129h48.764313v48.764313H195.046415zM195.046415 390.096442h48.764313v48.760701H195.046415zM243.810728 390.096442H292.571429v48.760701H243.810728zM146.285714 390.096442h48.760701v48.760701H146.285714zM195.046415 438.857143h48.764313v48.7607H195.046415zM146.285714 438.857143h48.760701v48.7607H146.285714z" fill="#596988" p-id="136050"></path><path d="M97.525014 438.857143h48.7607v48.7607H97.525014zM243.810728 292.571429H292.571429v48.7607H243.810728zM195.046415 292.571429h48.764313v48.7607H195.046415zM195.046415 243.810728h48.764313V292.571429H195.046415z" fill="#596988" p-id="136051"></path><path d="M243.810728 243.810728H292.571429V292.571429H243.810728z" fill="#FFFFFF" p-id="136052"></path><path d="M146.285714 243.810728h48.760701V292.571429H146.285714zM243.810728 195.046415H292.571429v48.764313H243.810728zM195.046415 195.046415h48.764313v48.764313H195.046415zM146.285714 195.046415h48.760701v48.764313H146.285714zM243.810728 146.285714H292.571429v48.760701H243.810728zM195.046415 146.285714h48.764313v48.760701H195.046415z" fill="#596988" p-id="136053"></path><path d="M195.046415 97.525014h48.764313v48.7607H195.046415zM146.285714 146.285714h48.760701v48.760701H146.285714zM97.525014 195.046415h48.7607v48.764313H97.525014z" fill="#596988" p-id="136054"></path><path d="M292.571429 146.285714h48.7607v48.760701H292.571429zM243.810728 97.525014H292.571429v48.7607H243.810728zM195.046415 48.760701h48.764313v48.764313H195.046415zM146.285714 97.525014h48.760701v48.7607H146.285714z" fill="#09111F" p-id="136055"></path><path d="M97.525014 146.285714h48.7607v48.760701H97.525014zM48.760701 195.046415h48.764313v48.764313H48.760701zM97.525014 243.810728h48.7607V292.571429H97.525014zM146.285714 341.332129h48.760701v48.764313H146.285714zM146.285714 292.571429h48.760701v48.7607H146.285714zM97.525014 390.096442h48.7607v48.760701H97.525014z" fill="#09111F" p-id="136056"></path><path d="M48.760701 487.617843h48.764313v48.760701H48.760701zM48.760701 536.378544h48.764313v48.764313H48.760701zM48.760701 438.857143h48.764313v48.7607H48.760701z" fill="#596988" p-id="136057"></path><path d="M97.525014 585.142857h48.7607v48.760701H97.525014zM146.285714 633.903558h48.760701v48.7607H146.285714zM146.285714 682.664258h48.760701v48.764313H146.285714zM97.525014 731.428571h48.7607v48.760701H97.525014z" fill="#09111F" p-id="136058"></path><path d="M97.525014 780.189272h48.7607v48.760701H97.525014zM146.285714 828.949973h48.760701v48.764313H146.285714z" fill="#596988" p-id="136059"></path><path d="M195.046415 877.714286h48.764313v48.7607H195.046415zM243.810728 828.949973H292.571429v48.764313H243.810728zM292.571429 780.189272h48.7607v48.760701H292.571429zM341.332129 780.189272h48.764313v48.760701H341.332129zM390.096442 828.949973h48.760701v48.764313h-48.760701zM390.096442 877.714286h48.760701v48.7607h-48.760701zM536.378544 926.474986h48.764313v48.760701h-48.764313zM487.617843 926.474986h48.760701v48.760701h-48.760701zM438.857143 926.474986h48.7607v48.760701h-48.7607zM585.142857 877.714286h48.760701v48.7607H585.142857zM585.142857 828.949973h48.760701v48.764313H585.142857zM633.903558 780.189272h48.7607v48.760701h-48.7607zM682.664258 780.189272h48.764313v48.760701h-48.764313zM731.428571 828.949973h48.760701v48.764313h-48.760701zM780.189272 877.714286h48.760701v48.7607h-48.760701z" fill="#09111F" p-id="136060"></path><path d="M828.949973 828.949973h48.764313v48.764313h-48.764313zM877.714286 780.189272h48.7607v48.760701H877.714286z" fill="#596988" p-id="136061"></path><path d="M877.714286 731.428571h48.7607v48.760701H877.714286zM828.949973 682.664258h48.764313v48.764313h-48.764313zM828.949973 633.903558h48.764313v48.7607h-48.764313zM877.714286 585.142857h48.7607v48.760701H877.714286z" fill="#09111F" p-id="136062"></path><path d="M926.474986 536.378544h48.760701v48.764313h-48.760701zM926.474986 487.617843h48.760701v48.760701h-48.760701zM926.474986 438.857143h48.760701v48.7607h-48.760701z" fill="#596988" p-id="136063"></path><path d="M926.474986 195.046415h48.760701v48.764313h-48.760701zM877.714286 390.096442h48.7607v48.760701H877.714286zM877.714286 243.810728h48.7607V292.571429H877.714286zM877.714286 146.285714h48.7607v48.760701H877.714286zM828.949973 341.332129h48.764313v48.764313h-48.764313zM828.949973 292.571429h48.764313v48.7607h-48.764313zM828.949973 97.525014h48.764313v48.7607h-48.764313zM780.189272 48.760701h48.760701v48.764313h-48.760701zM731.428571 97.525014h48.760701v48.7607h-48.760701zM682.664258 146.285714h48.764313v48.760701h-48.764313zM633.903558 146.285714h48.7607v48.760701h-48.7607z" fill="#09111F" p-id="136064"></path><path d="M585.142857 146.285714h48.760701v48.760701H585.142857z" fill="#596988" p-id="136065"></path><path d="M585.142857 97.525014h48.760701v48.7607H585.142857zM585.142857 48.760701h48.760701v48.764313H585.142857zM536.378544 0h48.764313v48.760701h-48.764313zM487.617843 0h48.760701v48.760701h-48.760701zM438.857143 0h48.7607v48.760701h-48.7607z" fill="#09111F" p-id="136066"></path><path d="M390.096442 146.285714h48.760701v48.760701h-48.760701z" fill="#596988" p-id="136067"></path><path d="M390.096442 97.525014h48.760701v48.7607h-48.760701zM390.096442 48.760701h48.760701v48.764313h-48.760701zM341.332129 146.285714h48.764313v48.760701H341.332129z" fill="#09111F" p-id="136068"></path></svg>