<?xml version="1.0" standalone="no"?><!DOCTYPE svg PUBLIC "-//W3C//DTD SVG 1.1//EN" "http://www.w3.org/Graphics/SVG/1.1/DTD/svg11.dtd"><svg t="1661584456617" class="icon" viewBox="0 0 1024 1024" version="1.1" xmlns="http://www.w3.org/2000/svg" p-id="7774" xmlns:xlink="http://www.w3.org/1999/xlink" width="200" height="200"><path d="M945.230769 393.846154h78.769231v78.769231h-78.769231zM945.230769 315.076923h78.769231v78.769231h-78.769231zM866.461538 472.615385h78.769231v78.76923h-78.769231z" fill="#1E2028" p-id="7775"></path><path d="M866.461538 393.846154h78.769231v78.769231h-78.769231zM866.461538 315.076923h78.769231v78.769231h-78.769231z" fill="#38B269" p-id="7776"></path><path d="M866.461538 236.307692h78.769231v78.769231h-78.769231zM787.692308 551.384615h78.76923v78.769231h-78.76923z" fill="#1E2028" p-id="7777"></path><path d="M787.692308 472.615385h78.76923v78.76923h-78.76923z" fill="#38B269" p-id="7778"></path><path d="M787.692308 393.846154h78.76923v78.769231h-78.76923z" fill="#1E2028" p-id="7779"></path><path d="M787.692308 315.076923h78.76923v78.769231h-78.76923z" fill="#60EF9A" p-id="7780"></path><path d="M787.692308 236.307692h78.76923v78.769231h-78.76923z" fill="#38B269" p-id="7781"></path><path d="M787.692308 157.538462h78.76923v78.76923h-78.76923zM708.923077 630.153846h78.769231v78.769231h-78.769231z" fill="#1E2028" p-id="7782"></path><path d="M708.923077 551.384615h78.769231v78.769231h-78.769231z" fill="#38B269" p-id="7783"></path><path d="M708.923077 472.615385h78.769231v78.76923h-78.769231z" fill="#60EF9A" p-id="7784"></path><path d="M708.923077 393.846154h78.769231v78.769231h-78.769231z" fill="#1E2028" p-id="7785"></path><path d="M708.923077 315.076923h78.769231v78.769231h-78.769231zM708.923077 236.307692h78.769231v78.769231h-78.769231z" fill="#60EF9A" p-id="7786"></path><path d="M708.923077 157.538462h78.769231v78.76923h-78.769231z" fill="#38B269" p-id="7787"></path><path d="M708.923077 78.769231h78.769231v78.769231h-78.769231zM630.153846 708.923077h78.769231v78.769231h-78.769231z" fill="#1E2028" p-id="7788"></path><path d="M630.153846 630.153846h78.769231v78.769231h-78.769231z" fill="#38B269" p-id="7789"></path><path d="M630.153846 551.384615h78.769231v78.769231h-78.769231zM630.153846 472.615385h78.769231v78.76923h-78.769231z" fill="#60EF9A" p-id="7790"></path><path d="M630.153846 393.846154h78.769231v78.769231h-78.769231z" fill="#1E2028" p-id="7791"></path><path d="M630.153846 315.076923h78.769231v78.769231h-78.769231z" fill="#60EF9A" p-id="7792"></path><path d="M630.153846 236.307692h78.769231v78.769231h-78.769231z" fill="#1E2028" p-id="7793"></path><path d="M630.153846 157.538462h78.769231v78.76923h-78.769231z" fill="#60EF9A" p-id="7794"></path><path d="M630.153846 78.769231h78.769231v78.769231h-78.769231zM551.384615 787.692308h78.769231v78.76923h-78.769231z" fill="#1E2028" p-id="7795"></path><path d="M551.384615 708.923077h78.769231v78.769231h-78.769231z" fill="#38B269" p-id="7796"></path><path d="M551.384615 630.153846h78.769231v78.769231h-78.769231zM551.384615 551.384615h78.769231v78.769231h-78.769231zM551.384615 472.615385h78.769231v78.76923h-78.769231z" fill="#60EF9A" p-id="7797"></path><path d="M551.384615 393.846154h78.769231v78.769231h-78.769231zM551.384615 315.076923h78.769231v78.769231h-78.769231z" fill="#1E2028" p-id="7798"></path><path d="M551.384615 236.307692h78.769231v78.769231h-78.769231zM551.384615 157.538462h78.769231v78.76923h-78.769231z" fill="#60EF9A" p-id="7799"></path><path d="M551.384615 78.769231h78.769231v78.769231h-78.769231zM472.615385 866.461538h78.76923v78.769231h-78.76923z" fill="#1E2028" p-id="7800"></path><path d="M472.615385 787.692308h78.76923v78.76923h-78.76923z" fill="#38B269" p-id="7801"></path><path d="M472.615385 708.923077h78.76923v78.769231h-78.76923zM472.615385 630.153846h78.76923v78.769231h-78.76923zM472.615385 551.384615h78.76923v78.769231h-78.76923zM472.615385 472.615385h78.76923v78.76923h-78.76923zM472.615385 393.846154h78.76923v78.769231h-78.76923z" fill="#1E2028" p-id="7802"></path><path d="M472.615385 315.076923h78.76923v78.769231h-78.76923zM472.615385 236.307692h78.76923v78.769231h-78.76923zM472.615385 157.538462h78.76923v78.76923h-78.76923z" fill="#60EF9A" p-id="7803"></path><path d="M472.615385 78.769231h78.76923v78.769231h-78.76923zM393.846154 787.692308h78.769231v78.76923h-78.769231z" fill="#1E2028" p-id="7804"></path><path d="M393.846154 708.923077h78.769231v78.769231h-78.769231z" fill="#AAF2C7" p-id="7805"></path><path d="M393.846154 630.153846h78.769231v78.769231h-78.769231zM393.846154 551.384615h78.769231v78.769231h-78.769231zM393.846154 472.615385h78.769231v78.76923h-78.769231z" fill="#60EF9A" p-id="7806"></path><path d="M393.846154 393.846154h78.769231v78.769231h-78.769231zM393.846154 315.076923h78.769231v78.769231h-78.769231z" fill="#1E2028" p-id="7807"></path><path d="M393.846154 236.307692h78.769231v78.769231h-78.769231zM393.846154 157.538462h78.769231v78.76923h-78.769231z" fill="#60EF9A" p-id="7808"></path><path d="M393.846154 78.769231h78.769231v78.769231h-78.769231zM315.076923 708.923077h78.769231v78.769231h-78.769231z" fill="#1E2028" p-id="7809"></path><path d="M315.076923 630.153846h78.769231v78.769231h-78.769231z" fill="#AAF2C7" p-id="7810"></path><path d="M315.076923 551.384615h78.769231v78.769231h-78.769231zM315.076923 472.615385h78.769231v78.76923h-78.769231z" fill="#60EF9A" p-id="7811"></path><path d="M315.076923 393.846154h78.769231v78.769231h-78.769231z" fill="#1E2028" p-id="7812"></path><path d="M315.076923 315.076923h78.769231v78.769231h-78.769231z" fill="#60EF9A" p-id="7813"></path><path d="M315.076923 236.307692h78.769231v78.769231h-78.769231z" fill="#1E2028" p-id="7814"></path><path d="M315.076923 157.538462h78.769231v78.76923h-78.769231z" fill="#60EF9A" p-id="7815"></path><path d="M315.076923 78.769231h78.769231v78.769231h-78.769231zM236.307692 630.153846h78.769231v78.769231h-78.769231z" fill="#1E2028" p-id="7816"></path><path d="M236.307692 551.384615h78.769231v78.769231h-78.769231z" fill="#AAF2C7" p-id="7817"></path><path d="M236.307692 472.615385h78.769231v78.76923h-78.769231z" fill="#60EF9A" p-id="7818"></path><path d="M236.307692 393.846154h78.769231v78.769231h-78.769231z" fill="#1E2028" p-id="7819"></path><path d="M236.307692 315.076923h78.769231v78.769231h-78.769231z" fill="#60EF9A" p-id="7820"></path><path d="M236.307692 236.307692h78.769231v78.769231h-78.769231z" fill="#FFFFFF" p-id="7821"></path><path d="M236.307692 157.538462h78.769231v78.76923h-78.769231z" fill="#AAF2C7" p-id="7822"></path><path d="M236.307692 78.769231h78.769231v78.769231h-78.769231zM157.538462 551.384615h78.76923v78.769231H157.538462z" fill="#1E2028" p-id="7823"></path><path d="M157.538462 472.615385h78.76923v78.76923H157.538462z" fill="#AAF2C7" p-id="7824"></path><path d="M157.538462 393.846154h78.76923v78.769231H157.538462z" fill="#1E2028" p-id="7825"></path><path d="M157.538462 315.076923h78.76923v78.769231H157.538462z" fill="#FFFFFF" p-id="7826"></path><path d="M157.538462 236.307692h78.76923v78.769231H157.538462z" fill="#AAF2C7" p-id="7827"></path><path d="M157.538462 157.538462h78.76923v78.76923H157.538462zM78.769231 472.615385h78.769231v78.76923H78.769231z" fill="#1E2028" p-id="7828"></path><path d="M78.769231 393.846154h78.769231v78.769231H78.769231zM78.769231 315.076923h78.769231v78.769231H78.769231z" fill="#AAF2C7" p-id="7829"></path><path d="M78.769231 236.307692h78.769231v78.769231H78.769231zM0 393.846154h78.769231v78.769231H0zM0 315.076923h78.769231v78.769231H0z" fill="#1E2028" p-id="7830"></path></svg>