<?xml version="1.0" standalone="no"?><!DOCTYPE svg PUBLIC "-//W3C//DTD SVG 1.1//EN" "http://www.w3.org/Graphics/SVG/1.1/DTD/svg11.dtd"><svg t="1661318765125" class="icon" viewBox="0 0 1024 1024" version="1.1" xmlns="http://www.w3.org/2000/svg" p-id="51819" xmlns:xlink="http://www.w3.org/1999/xlink" width="200" height="200"><defs><style type="text/css">@font-face { font-family: feedback-iconfont; src: url("//at.alicdn.com/t/font_1031158_u69w8yhxdu.woff2?t=1630033759944") format("woff2"), url("//at.alicdn.com/t/font_1031158_u69w8yhxdu.woff?t=1630033759944") format("woff"), url("//at.alicdn.com/t/font_1031158_u69w8yhxdu.ttf?t=1630033759944") format("truetype"); }
</style></defs><path d="M96.0512 285.0816h37.888v37.888H96.0512z" fill="#D57542" p-id="51820"></path><path d="M133.9392 285.0816h37.888v37.888H133.9392z" fill="#D57542" p-id="51821"></path><path d="M171.6224 285.0816h37.888v37.888H171.6224zM209.5104 285.0816h37.888v37.888h-37.888zM247.3984 285.0816h37.888v37.888h-37.888z" fill="#D57542" p-id="51822"></path><path d="M285.0816 285.0816h37.888v37.888h-37.888zM322.9696 285.0816h37.888v37.888h-37.888zM360.8576 285.0816h37.888v37.888h-37.888z" fill="#D57542" p-id="51823"></path><path d="M398.5408 285.0816h37.888v37.888h-37.888z" fill="#D57542" p-id="51824"></path><path d="M436.4288 285.0816h37.888v37.888h-37.888z" fill="#D57542" p-id="51825"></path><path d="M474.112 285.0816H512v37.888h-37.888zM512 285.0816h37.888v37.888H512zM549.888 285.0816h37.888v37.888h-37.888z" fill="#D57542" p-id="51826"></path><path d="M587.5712 285.0816h37.888v37.888h-37.888z" fill="#D57542" p-id="51827"></path><path d="M625.4592 285.0816h37.888v37.888h-37.888z" fill="#D57542" p-id="51828"></path><path d="M663.1424 285.0816h37.888v37.888h-37.888z" fill="#D57542" p-id="51829"></path><path d="M701.0304 285.0816h37.888v37.888h-37.888zM738.9184 285.0816h37.888v37.888h-37.888z" fill="#D57542" p-id="51830"></path><path d="M776.6016 285.0816h37.888v37.888h-37.888zM814.4896 285.0816h37.888v37.888h-37.888z" fill="#D57542" p-id="51831"></path><path d="M738.9184 247.3984h37.888v37.888h-37.888zM701.0304 247.3984h37.888v37.888h-37.888z" fill="#D57542" p-id="51832"></path><path d="M663.1424 247.3984h37.888v37.888h-37.888z" fill="#D57542" p-id="51833"></path><path d="M625.4592 247.3984h37.888v37.888h-37.888z" fill="#D57542" p-id="51834"></path><path d="M587.5712 247.3984h37.888v37.888h-37.888z" fill="#D57542" p-id="51835"></path><path d="M549.888 247.3984h37.888v37.888h-37.888z" fill="#ECE9BE" p-id="51836"></path><path d="M512 247.3984h37.888v37.888H512zM474.112 247.3984H512v37.888h-37.888z" fill="#D57542" p-id="51837"></path><path d="M436.4288 247.3984h37.888v37.888h-37.888z" fill="#D57542" p-id="51838"></path><path d="M398.5408 247.3984h37.888v37.888h-37.888z" fill="#ECE9BE" p-id="51839"></path><path d="M360.8576 247.3984h37.888v37.888h-37.888zM322.9696 247.3984h37.888v37.888h-37.888zM285.0816 247.3984h37.888v37.888h-37.888z" fill="#D57542" p-id="51840"></path><path d="M247.3984 247.3984h37.888v37.888h-37.888zM209.5104 247.3984h37.888v37.888h-37.888zM322.9696 209.5104h37.888v37.888h-37.888zM360.8576 209.5104h37.888v37.888h-37.888z" fill="#D57542" p-id="51841"></path><path d="M398.5408 209.5104h37.888v37.888h-37.888z" fill="#D57542" p-id="51842"></path><path d="M436.4288 209.5104h37.888v37.888h-37.888z" fill="#D57542" p-id="51843"></path><path d="M474.112 209.5104H512v37.888h-37.888zM512 209.5104h37.888v37.888H512zM549.888 209.5104h37.888v37.888h-37.888z" fill="#D57542" p-id="51844"></path><path d="M587.5712 209.5104h37.888v37.888h-37.888z" fill="#D57542" p-id="51845"></path><path d="M625.4592 209.5104h37.888v37.888h-37.888zM133.9392 247.3984h37.888v37.888H133.9392z" fill="#D57542" p-id="51846"></path><path d="M171.6224 247.3984h37.888v37.888H171.6224zM209.5104 209.5104h37.888v37.888h-37.888z" fill="#D57542" p-id="51847"></path><path d="M247.3984 209.5104h37.888v37.888h-37.888z" fill="#ECE9BE" p-id="51848"></path><path d="M285.0816 209.5104h37.888v37.888h-37.888z" fill="#D57542" p-id="51849"></path><path d="M322.9696 171.6224h37.888v37.888h-37.888z" fill="#ECE9BE" p-id="51850"></path><path d="M360.8576 171.6224h37.888v37.888h-37.888z" fill="#D57542" p-id="51851"></path><path d="M398.5408 171.6224h37.888v37.888h-37.888z" fill="#D57542" p-id="51852"></path><path d="M436.4288 171.6224h37.888v37.888h-37.888z" fill="#D57542" p-id="51853"></path><path d="M474.112 171.6224H512v37.888h-37.888z" fill="#ECE9BE" p-id="51854"></path><path d="M512 171.6224h37.888v37.888H512zM549.888 171.6224h37.888v37.888h-37.888z" fill="#D57542" p-id="51855"></path><path d="M587.5712 171.6224h37.888v37.888h-37.888z" fill="#ECE9BE" p-id="51856"></path><path d="M625.4592 171.6224h37.888v37.888h-37.888zM663.1424 209.5104h37.888v37.888h-37.888z" fill="#D57542" p-id="51857"></path><path d="M701.0304 209.5104h37.888v37.888h-37.888z" fill="#ECE9BE" p-id="51858"></path><path d="M738.9184 209.5104h37.888v37.888h-37.888z" fill="#D57542" p-id="51859"></path><path d="M776.6016 209.5104h37.888v37.888h-37.888z" fill="#D57542" p-id="51860"></path><path d="M776.6016 247.3984h37.888v37.888h-37.888z" fill="#ECE9BE" p-id="51861"></path><path d="M814.4896 247.3984h37.888v37.888h-37.888z" fill="#D57542" p-id="51862"></path><path d="M852.3776 247.3984h37.888v37.888h-37.888z" fill="#D57542" p-id="51863"></path><path d="M852.3776 285.0816h37.888v37.888h-37.888z" fill="#D57542" p-id="51864"></path><path d="M890.0608 285.0816h37.888v37.888h-37.888z" fill="#D57542" p-id="51865"></path><path d="M96.0512 322.9696h37.888v37.888H96.0512z" fill="#E4A874" p-id="51866"></path><path d="M133.9392 322.9696h37.888v37.888H133.9392z" fill="#E4A874" p-id="51867"></path><path d="M171.6224 322.9696h37.888v37.888H171.6224zM209.5104 322.9696h37.888v37.888h-37.888zM247.3984 322.9696h37.888v37.888h-37.888z" fill="#E4A874" p-id="51868"></path><path d="M285.0816 322.9696h37.888v37.888h-37.888zM322.9696 322.9696h37.888v37.888h-37.888zM360.8576 322.9696h37.888v37.888h-37.888z" fill="#E4A874" p-id="51869"></path><path d="M398.5408 322.9696h37.888v37.888h-37.888z" fill="#E4A874" p-id="51870"></path><path d="M436.4288 322.9696h37.888v37.888h-37.888z" fill="#E4A874" p-id="51871"></path><path d="M474.112 322.9696H512v37.888h-37.888zM512 322.9696h37.888v37.888H512zM549.888 322.9696h37.888v37.888h-37.888z" fill="#E4A874" p-id="51872"></path><path d="M587.5712 322.9696h37.888v37.888h-37.888z" fill="#E4A874" p-id="51873"></path><path d="M625.4592 322.9696h37.888v37.888h-37.888z" fill="#E4A874" p-id="51874"></path><path d="M663.1424 322.9696h37.888v37.888h-37.888z" fill="#E4A874" p-id="51875"></path><path d="M701.0304 322.9696h37.888v37.888h-37.888zM738.9184 322.9696h37.888v37.888h-37.888z" fill="#E4A874" p-id="51876"></path><path d="M776.6016 322.9696h37.888v37.888h-37.888zM814.4896 322.9696h37.888v37.888h-37.888z" fill="#E4A874" p-id="51877"></path><path d="M852.3776 322.9696h37.888v37.888h-37.888z" fill="#E4A874" p-id="51878"></path><path d="M890.0608 322.9696h37.888v37.888h-37.888zM58.368 360.8576H96.256v37.888H58.368z" fill="#E4A874" p-id="51879"></path><path d="M96.0512 360.8576h37.888v37.888H96.0512z" fill="#E4A874" p-id="51880"></path><path d="M133.9392 360.8576h37.888v37.888H133.9392z" fill="#E4A874" p-id="51881"></path><path d="M171.6224 360.8576h37.888v37.888H171.6224zM209.5104 360.8576h37.888v37.888h-37.888zM247.3984 360.8576h37.888v37.888h-37.888z" fill="#E4A874" p-id="51882"></path><path d="M285.0816 360.8576h37.888v37.888h-37.888zM322.9696 360.8576h37.888v37.888h-37.888zM360.8576 360.8576h37.888v37.888h-37.888z" fill="#E4A874" p-id="51883"></path><path d="M398.5408 360.8576h37.888v37.888h-37.888z" fill="#E4A874" p-id="51884"></path><path d="M436.4288 360.8576h37.888v37.888h-37.888z" fill="#E4A874" p-id="51885"></path><path d="M474.112 360.8576H512v37.888h-37.888zM512 360.8576h37.888v37.888H512zM549.888 360.8576h37.888v37.888h-37.888z" fill="#E4A874" p-id="51886"></path><path d="M587.5712 360.8576h37.888v37.888h-37.888z" fill="#E4A874" p-id="51887"></path><path d="M625.4592 360.8576h37.888v37.888h-37.888z" fill="#E4A874" p-id="51888"></path><path d="M663.1424 360.8576h37.888v37.888h-37.888z" fill="#E4A874" p-id="51889"></path><path d="M701.0304 360.8576h37.888v37.888h-37.888zM738.9184 360.8576h37.888v37.888h-37.888z" fill="#E4A874" p-id="51890"></path><path d="M776.6016 360.8576h37.888v37.888h-37.888zM814.4896 360.8576h37.888v37.888h-37.888z" fill="#E4A874" p-id="51891"></path><path d="M852.3776 360.8576h37.888v37.888h-37.888z" fill="#E4A874" p-id="51892"></path><path d="M890.0608 360.8576h37.888v37.888h-37.888zM927.9488 360.8576h37.888v37.888h-37.888z" fill="#E4A874" p-id="51893"></path><path d="M58.368 398.5408H96.256v37.888H58.368z" fill="#ECE9BE" p-id="51894"></path><path d="M96.0512 398.5408h37.888v37.888H96.0512z" fill="#ECE9BE" p-id="51895"></path><path d="M133.9392 398.5408h37.888v37.888H133.9392z" fill="#ECE9BE" p-id="51896"></path><path d="M171.6224 398.5408h37.888v37.888H171.6224zM209.5104 398.5408h37.888v37.888h-37.888zM247.3984 398.5408h37.888v37.888h-37.888z" fill="#ECE9BE" p-id="51897"></path><path d="M285.0816 398.5408h37.888v37.888h-37.888zM322.9696 398.5408h37.888v37.888h-37.888zM360.8576 398.5408h37.888v37.888h-37.888z" fill="#ECE9BE" p-id="51898"></path><path d="M398.5408 398.5408h37.888v37.888h-37.888z" fill="#ECE9BE" p-id="51899"></path><path d="M436.4288 398.5408h37.888v37.888h-37.888z" fill="#ECE9BE" p-id="51900"></path><path d="M474.112 398.5408H512v37.888h-37.888zM512 398.5408h37.888v37.888H512zM549.888 398.5408h37.888v37.888h-37.888z" fill="#ECE9BE" p-id="51901"></path><path d="M587.5712 398.5408h37.888v37.888h-37.888z" fill="#ECE9BE" p-id="51902"></path><path d="M625.4592 398.5408h37.888v37.888h-37.888z" fill="#ECE9BE" p-id="51903"></path><path d="M663.1424 398.5408h37.888v37.888h-37.888z" fill="#ECE9BE" p-id="51904"></path><path d="M701.0304 398.5408h37.888v37.888h-37.888zM738.9184 398.5408h37.888v37.888h-37.888z" fill="#ECE9BE" p-id="51905"></path><path d="M776.6016 398.5408h37.888v37.888h-37.888zM814.4896 398.5408h37.888v37.888h-37.888z" fill="#ECE9BE" p-id="51906"></path><path d="M852.3776 398.5408h37.888v37.888h-37.888z" fill="#ECE9BE" p-id="51907"></path><path d="M890.0608 398.5408h37.888v37.888h-37.888zM927.9488 398.5408h37.888v37.888h-37.888z" fill="#ECE9BE" p-id="51908"></path><path d="M20.48 436.4288h37.888v37.888H20.48zM58.368 436.4288H96.256v37.888H58.368z" fill="#468B4C" p-id="51909"></path><path d="M96.0512 436.4288h37.888v37.888H96.0512z" fill="#2C5C44" p-id="51910"></path><path d="M133.9392 436.4288h37.888v37.888H133.9392z" fill="#2C5C44" p-id="51911"></path><path d="M171.6224 436.4288h37.888v37.888H171.6224zM209.5104 436.4288h37.888v37.888h-37.888zM247.3984 436.4288h37.888v37.888h-37.888z" fill="#468B4C" p-id="51912"></path><path d="M285.0816 436.4288h37.888v37.888h-37.888zM322.9696 436.4288h37.888v37.888h-37.888zM360.8576 436.4288h37.888v37.888h-37.888z" fill="#468B4C" p-id="51913"></path><path d="M398.5408 436.4288h37.888v37.888h-37.888z" fill="#6DD051" p-id="51914"></path><path d="M436.4288 436.4288h37.888v37.888h-37.888z" fill="#6DD051" p-id="51915"></path><path d="M474.112 436.4288H512v37.888h-37.888zM512 436.4288h37.888v37.888H512z" fill="#2C5C44" p-id="51916"></path><path d="M549.888 436.4288h37.888v37.888h-37.888z" fill="#468B4C" p-id="51917"></path><path d="M587.5712 436.4288h37.888v37.888h-37.888z" fill="#2C5C44" p-id="51918"></path><path d="M625.4592 436.4288h37.888v37.888h-37.888z" fill="#2C5C44" p-id="51919"></path><path d="M663.1424 436.4288h37.888v37.888h-37.888z" fill="#468B4C" p-id="51920"></path><path d="M701.0304 436.4288h37.888v37.888h-37.888zM738.9184 436.4288h37.888v37.888h-37.888z" fill="#6DD051" p-id="51921"></path><path d="M776.6016 436.4288h37.888v37.888h-37.888z" fill="#6DD051" p-id="51922"></path><path d="M814.4896 436.4288h37.888v37.888h-37.888z" fill="#468B4C" p-id="51923"></path><path d="M852.3776 436.4288h37.888v37.888h-37.888z" fill="#468B4C" p-id="51924"></path><path d="M890.0608 436.4288h37.888v37.888h-37.888z" fill="#2C5C44" p-id="51925"></path><path d="M927.9488 436.4288h37.888v37.888h-37.888z" fill="#468B4C" p-id="51926"></path><path d="M965.632 436.4288H1003.52v37.888h-37.888zM58.368 663.1424H96.256v37.888H58.368z" fill="#468B4C" p-id="51927"></path><path d="M96.0512 663.1424h37.888v37.888H96.0512z" fill="#6DD051" p-id="51928"></path><path d="M133.9392 663.1424h37.888v37.888H133.9392z" fill="#6DD051" p-id="51929"></path><path d="M171.6224 663.1424h37.888v37.888H171.6224z" fill="#2C5C44" p-id="51930"></path><path d="M209.5104 663.1424h37.888v37.888h-37.888zM247.3984 663.1424h37.888v37.888h-37.888z" fill="#468B4C" p-id="51931"></path><path d="M285.0816 663.1424h37.888v37.888h-37.888zM322.9696 663.1424h37.888v37.888h-37.888z" fill="#2C5C44" p-id="51932"></path><path d="M360.8576 663.1424h37.888v37.888h-37.888z" fill="#468B4C" p-id="51933"></path><path d="M398.5408 663.1424h37.888v37.888h-37.888z" fill="#468B4C" p-id="51934"></path><path d="M436.4288 663.1424h37.888v37.888h-37.888z" fill="#6DD051" p-id="51935"></path><path d="M474.112 663.1424H512v37.888h-37.888zM512 663.1424h37.888v37.888H512z" fill="#6DD051" p-id="51936"></path><path d="M549.888 663.1424h37.888v37.888h-37.888z" fill="#468B4C" p-id="51937"></path><path d="M587.5712 663.1424h37.888v37.888h-37.888z" fill="#468B4C" p-id="51938"></path><path d="M625.4592 663.1424h37.888v37.888h-37.888z" fill="#468B4C" p-id="51939"></path><path d="M663.1424 663.1424h37.888v37.888h-37.888z" fill="#468B4C" p-id="51940"></path><path d="M701.0304 663.1424h37.888v37.888h-37.888zM738.9184 663.1424h37.888v37.888h-37.888z" fill="#468B4C" p-id="51941"></path><path d="M776.6016 663.1424h37.888v37.888h-37.888zM814.4896 663.1424h37.888v37.888h-37.888z" fill="#468B4C" p-id="51942"></path><path d="M852.3776 663.1424h37.888v37.888h-37.888z" fill="#2C5C44" p-id="51943"></path><path d="M890.0608 663.1424h37.888v37.888h-37.888zM927.9488 663.1424h37.888v37.888h-37.888z" fill="#468B4C" p-id="51944"></path><path d="M58.368 701.0304H96.256v37.888H58.368z" fill="#E4A874" p-id="51945"></path><path d="M96.0512 701.0304h37.888v37.888H96.0512z" fill="#E4A874" p-id="51946"></path><path d="M133.9392 701.0304h37.888v37.888H133.9392z" fill="#E4A874" p-id="51947"></path><path d="M171.6224 701.0304h37.888v37.888H171.6224zM209.5104 701.0304h37.888v37.888h-37.888z" fill="#D57542" p-id="51948"></path><path d="M247.3984 701.0304h37.888v37.888h-37.888z" fill="#468B4C" p-id="51949"></path><path d="M285.0816 701.0304h37.888v37.888h-37.888zM322.9696 701.0304h37.888v37.888h-37.888z" fill="#468B4C" p-id="51950"></path><path d="M360.8576 701.0304h37.888v37.888h-37.888z" fill="#E4A874" p-id="51951"></path><path d="M398.5408 701.0304h37.888v37.888h-37.888z" fill="#D57542" p-id="51952"></path><path d="M436.4288 701.0304h37.888v37.888h-37.888z" fill="#D57542" p-id="51953"></path><path d="M474.112 701.0304H512v37.888h-37.888zM512 701.0304h37.888v37.888H512z" fill="#468B4C" p-id="51954"></path><path d="M549.888 701.0304h37.888v37.888h-37.888z" fill="#D57542" p-id="51955"></path><path d="M587.5712 701.0304h37.888v37.888h-37.888z" fill="#D57542" p-id="51956"></path><path d="M625.4592 701.0304h37.888v37.888h-37.888z" fill="#E4A874" p-id="51957"></path><path d="M663.1424 701.0304h37.888v37.888h-37.888z" fill="#468B4C" p-id="51958"></path><path d="M701.0304 701.0304h37.888v37.888h-37.888z" fill="#468B4C" p-id="51959"></path><path d="M738.9184 701.0304h37.888v37.888h-37.888z" fill="#2C5C44" p-id="51960"></path><path d="M776.6016 701.0304h37.888v37.888h-37.888zM814.4896 701.0304h37.888v37.888h-37.888z" fill="#2C5C44" p-id="51961"></path><path d="M852.3776 701.0304h37.888v37.888h-37.888z" fill="#D57542" p-id="51962"></path><path d="M890.0608 701.0304h37.888v37.888h-37.888z" fill="#E4A874" p-id="51963"></path><path d="M927.9488 701.0304h37.888v37.888h-37.888z" fill="#D57542" p-id="51964"></path><path d="M58.368 738.9184H96.256v37.888H58.368z" fill="#E4A874" p-id="51965"></path><path d="M96.0512 738.9184h37.888v37.888H96.0512z" fill="#E4A874" p-id="51966"></path><path d="M133.9392 738.9184h37.888v37.888H133.9392z" fill="#E4A874" p-id="51967"></path><path d="M171.6224 738.9184h37.888v37.888H171.6224zM209.5104 738.9184h37.888v37.888h-37.888zM247.3984 738.9184h37.888v37.888h-37.888z" fill="#E4A874" p-id="51968"></path><path d="M285.0816 738.9184h37.888v37.888h-37.888zM322.9696 738.9184h37.888v37.888h-37.888zM360.8576 738.9184h37.888v37.888h-37.888z" fill="#E4A874" p-id="51969"></path><path d="M398.5408 738.9184h37.888v37.888h-37.888z" fill="#E4A874" p-id="51970"></path><path d="M436.4288 738.9184h37.888v37.888h-37.888z" fill="#E4A874" p-id="51971"></path><path d="M474.112 738.9184H512v37.888h-37.888zM512 738.9184h37.888v37.888H512zM549.888 738.9184h37.888v37.888h-37.888z" fill="#E4A874" p-id="51972"></path><path d="M587.5712 738.9184h37.888v37.888h-37.888z" fill="#E4A874" p-id="51973"></path><path d="M625.4592 738.9184h37.888v37.888h-37.888z" fill="#E4A874" p-id="51974"></path><path d="M663.1424 738.9184h37.888v37.888h-37.888z" fill="#E4A874" p-id="51975"></path><path d="M701.0304 738.9184h37.888v37.888h-37.888zM738.9184 738.9184h37.888v37.888h-37.888z" fill="#E4A874" p-id="51976"></path><path d="M776.6016 738.9184h37.888v37.888h-37.888zM814.4896 738.9184h37.888v37.888h-37.888z" fill="#E4A874" p-id="51977"></path><path d="M852.3776 738.9184h37.888v37.888h-37.888z" fill="#E4A874" p-id="51978"></path><path d="M890.0608 738.9184h37.888v37.888h-37.888zM927.9488 738.9184h37.888v37.888h-37.888z" fill="#E4A874" p-id="51979"></path><path d="M58.368 776.6016H96.256v37.888H58.368z" fill="#D57542" p-id="51980"></path><path d="M96.0512 776.6016h37.888v37.888H96.0512z" fill="#E4A874" p-id="51981"></path><path d="M133.9392 776.6016h37.888v37.888H133.9392z" fill="#E4A874" p-id="51982"></path><path d="M171.6224 776.6016h37.888v37.888H171.6224zM209.5104 776.6016h37.888v37.888h-37.888zM247.3984 776.6016h37.888v37.888h-37.888z" fill="#E4A874" p-id="51983"></path><path d="M285.0816 776.6016h37.888v37.888h-37.888zM322.9696 776.6016h37.888v37.888h-37.888zM360.8576 776.6016h37.888v37.888h-37.888z" fill="#E4A874" p-id="51984"></path><path d="M398.5408 776.6016h37.888v37.888h-37.888z" fill="#E4A874" p-id="51985"></path><path d="M436.4288 776.6016h37.888v37.888h-37.888z" fill="#E4A874" p-id="51986"></path><path d="M474.112 776.6016H512v37.888h-37.888zM512 776.6016h37.888v37.888H512zM549.888 776.6016h37.888v37.888h-37.888z" fill="#E4A874" p-id="51987"></path><path d="M587.5712 776.6016h37.888v37.888h-37.888z" fill="#E4A874" p-id="51988"></path><path d="M625.4592 776.6016h37.888v37.888h-37.888z" fill="#E4A874" p-id="51989"></path><path d="M663.1424 776.6016h37.888v37.888h-37.888z" fill="#E4A874" p-id="51990"></path><path d="M701.0304 776.6016h37.888v37.888h-37.888zM738.9184 776.6016h37.888v37.888h-37.888z" fill="#E4A874" p-id="51991"></path><path d="M776.6016 776.6016h37.888v37.888h-37.888zM814.4896 776.6016h37.888v37.888h-37.888z" fill="#E4A874" p-id="51992"></path><path d="M852.3776 776.6016h37.888v37.888h-37.888z" fill="#E4A874" p-id="51993"></path><path d="M890.0608 776.6016h37.888v37.888h-37.888z" fill="#E4A874" p-id="51994"></path><path d="M927.9488 776.6016h37.888v37.888h-37.888zM96.0512 814.4896h37.888v37.888H96.0512z" fill="#D57542" p-id="51995"></path><path d="M133.9392 814.4896h37.888v37.888H133.9392z" fill="#D57542" p-id="51996"></path><path d="M171.6224 814.4896h37.888v37.888H171.6224zM209.5104 814.4896h37.888v37.888h-37.888zM247.3984 814.4896h37.888v37.888h-37.888z" fill="#D57542" p-id="51997"></path><path d="M285.0816 814.4896h37.888v37.888h-37.888zM322.9696 814.4896h37.888v37.888h-37.888zM360.8576 814.4896h37.888v37.888h-37.888z" fill="#D57542" p-id="51998"></path><path d="M398.5408 814.4896h37.888v37.888h-37.888z" fill="#D57542" p-id="51999"></path><path d="M436.4288 814.4896h37.888v37.888h-37.888z" fill="#D57542" p-id="52000"></path><path d="M474.112 814.4896H512v37.888h-37.888zM512 814.4896h37.888v37.888H512zM549.888 814.4896h37.888v37.888h-37.888z" fill="#D57542" p-id="52001"></path><path d="M587.5712 814.4896h37.888v37.888h-37.888z" fill="#D57542" p-id="52002"></path><path d="M625.4592 814.4896h37.888v37.888h-37.888z" fill="#D57542" p-id="52003"></path><path d="M663.1424 814.4896h37.888v37.888h-37.888z" fill="#D57542" p-id="52004"></path><path d="M701.0304 814.4896h37.888v37.888h-37.888zM738.9184 814.4896h37.888v37.888h-37.888z" fill="#D57542" p-id="52005"></path><path d="M776.6016 814.4896h37.888v37.888h-37.888zM814.4896 814.4896h37.888v37.888h-37.888z" fill="#D57542" p-id="52006"></path><path d="M852.3776 814.4896h37.888v37.888h-37.888z" fill="#D57542" p-id="52007"></path><path d="M890.0608 814.4896h37.888v37.888h-37.888z" fill="#D57542" p-id="52008"></path><path d="M20.48 512h37.888v37.888H20.48zM58.368 512H96.256v37.888H58.368z" fill="#FBB031" p-id="52009"></path><path d="M96.0512 512h37.888v37.888H96.0512z" fill="#F67925" p-id="52010"></path><path d="M133.9392 512h37.888v37.888H133.9392z" fill="#F67925" p-id="52011"></path><path d="M171.6224 512h37.888v37.888H171.6224zM209.5104 512h37.888v37.888h-37.888zM247.3984 512h37.888v37.888h-37.888z" fill="#F67925" p-id="52012"></path><path d="M285.0816 512h37.888v37.888h-37.888zM322.9696 512h37.888v37.888h-37.888zM360.8576 512h37.888v37.888h-37.888z" fill="#F67925" p-id="52013"></path><path d="M398.5408 512h37.888v37.888h-37.888z" fill="#F67925" p-id="52014"></path><path d="M436.4288 512h37.888v37.888h-37.888z" fill="#F67925" p-id="52015"></path><path d="M474.112 512H512v37.888h-37.888zM512 512h37.888v37.888H512zM549.888 512h37.888v37.888h-37.888z" fill="#F67925" p-id="52016"></path><path d="M587.5712 512h37.888v37.888h-37.888z" fill="#F67925" p-id="52017"></path><path d="M625.4592 512h37.888v37.888h-37.888z" fill="#F67925" p-id="52018"></path><path d="M663.1424 512h37.888v37.888h-37.888z" fill="#F67925" p-id="52019"></path><path d="M701.0304 512h37.888v37.888h-37.888zM738.9184 512h37.888v37.888h-37.888z" fill="#F67925" p-id="52020"></path><path d="M776.6016 512h37.888v37.888h-37.888zM814.4896 512h37.888v37.888h-37.888z" fill="#F67925" p-id="52021"></path><path d="M852.3776 512h37.888v37.888h-37.888z" fill="#F67925" p-id="52022"></path><path d="M890.0608 512h37.888v37.888h-37.888z" fill="#F67925" p-id="52023"></path><path d="M927.9488 512h37.888v37.888h-37.888z" fill="#FBB031" p-id="52024"></path><path d="M965.632 512H1003.52v37.888h-37.888z" fill="#FBB031" p-id="52025"></path><path d="M20.48 549.888h37.888v37.888H20.48zM58.368 549.888H96.256v37.888H58.368z" fill="#733E38" p-id="52026"></path><path d="M96.0512 549.888h37.888v37.888H96.0512z" fill="#FBB031" p-id="52027"></path><path d="M133.9392 549.888h37.888v37.888H133.9392z" fill="#FBB031" p-id="52028"></path><path d="M171.6224 549.888h37.888v37.888H171.6224zM209.5104 549.888h37.888v37.888h-37.888zM247.3984 549.888h37.888v37.888h-37.888z" fill="#FBB031" p-id="52029"></path><path d="M285.0816 549.888h37.888v37.888h-37.888zM322.9696 549.888h37.888v37.888h-37.888zM360.8576 549.888h37.888v37.888h-37.888z" fill="#FBB031" p-id="52030"></path><path d="M398.5408 549.888h37.888v37.888h-37.888z" fill="#FBB031" p-id="52031"></path><path d="M436.4288 549.888h37.888v37.888h-37.888z" fill="#FBB031" p-id="52032"></path><path d="M474.112 549.888H512v37.888h-37.888z" fill="#FBB031" p-id="52033"></path><path d="M512 549.888h37.888v37.888H512zM549.888 549.888h37.888v37.888h-37.888z" fill="#F67925" p-id="52034"></path><path d="M587.5712 549.888h37.888v37.888h-37.888z" fill="#F67925" p-id="52035"></path><path d="M625.4592 549.888h37.888v37.888h-37.888z" fill="#F67925" p-id="52036"></path><path d="M663.1424 549.888h37.888v37.888h-37.888z" fill="#FBB031" p-id="52037"></path><path d="M701.0304 549.888h37.888v37.888h-37.888zM738.9184 549.888h37.888v37.888h-37.888z" fill="#FBB031" p-id="52038"></path><path d="M776.6016 549.888h37.888v37.888h-37.888zM814.4896 549.888h37.888v37.888h-37.888z" fill="#FBB031" p-id="52039"></path><path d="M852.3776 549.888h37.888v37.888h-37.888z" fill="#FBB031" p-id="52040"></path><path d="M890.0608 549.888h37.888v37.888h-37.888zM927.9488 549.888h37.888v37.888h-37.888z" fill="#733E38" p-id="52041"></path><path d="M965.632 549.888H1003.52v37.888h-37.888zM20.48 587.5712h37.888v37.888H20.48zM58.368 587.5712H96.256v37.888H58.368z" fill="#733E38" p-id="52042"></path><path d="M96.0512 587.5712h37.888v37.888H96.0512z" fill="#733E38" p-id="52043"></path><path d="M133.9392 587.5712h37.888v37.888H133.9392z" fill="#733E38" p-id="52044"></path><path d="M171.6224 587.5712h37.888v37.888H171.6224zM209.5104 587.5712h37.888v37.888h-37.888zM247.3984 587.5712h37.888v37.888h-37.888z" fill="#FBB031" p-id="52045"></path><path d="M285.0816 587.5712h37.888v37.888h-37.888zM322.9696 587.5712h37.888v37.888h-37.888zM360.8576 587.5712h37.888v37.888h-37.888z" fill="#FBB031" p-id="52046"></path><path d="M398.5408 587.5712h37.888v37.888h-37.888z" fill="#FBB031" p-id="52047"></path><path d="M436.4288 587.5712h37.888v37.888h-37.888z" fill="#733E38" p-id="52048"></path><path d="M474.112 587.5712H512v37.888h-37.888zM512 587.5712h37.888v37.888H512zM549.888 587.5712h37.888v37.888h-37.888z" fill="#733E38" p-id="52049"></path><path d="M587.5712 587.5712h37.888v37.888h-37.888z" fill="#733E38" p-id="52050"></path><path d="M625.4592 587.5712h37.888v37.888h-37.888z" fill="#733E38" p-id="52051"></path><path d="M663.1424 587.5712h37.888v37.888h-37.888z" fill="#FBB031" p-id="52052"></path><path d="M701.0304 587.5712h37.888v37.888h-37.888zM738.9184 587.5712h37.888v37.888h-37.888z" fill="#FBB031" p-id="52053"></path><path d="M776.6016 587.5712h37.888v37.888h-37.888zM814.4896 587.5712h37.888v37.888h-37.888z" fill="#733E38" p-id="52054"></path><path d="M852.3776 587.5712h37.888v37.888h-37.888z" fill="#733E38" p-id="52055"></path><path d="M890.0608 587.5712h37.888v37.888h-37.888zM927.9488 587.5712h37.888v37.888h-37.888z" fill="#733E38" p-id="52056"></path><path d="M965.632 587.5712H1003.52v37.888h-37.888zM20.48 625.4592h37.888v37.888H20.48zM58.368 625.4592H96.256v37.888H58.368z" fill="#733E38" p-id="52057"></path><path d="M96.0512 625.4592h37.888v37.888H96.0512z" fill="#733E38" p-id="52058"></path><path d="M133.9392 625.4592h37.888v37.888H133.9392z" fill="#733E38" p-id="52059"></path><path d="M171.6224 625.4592h37.888v37.888H171.6224zM209.5104 625.4592h37.888v37.888h-37.888zM247.3984 625.4592h37.888v37.888h-37.888z" fill="#733E38" p-id="52060"></path><path d="M285.0816 625.4592h37.888v37.888h-37.888zM322.9696 625.4592h37.888v37.888h-37.888zM360.8576 625.4592h37.888v37.888h-37.888z" fill="#733E38" p-id="52061"></path><path d="M398.5408 625.4592h37.888v37.888h-37.888z" fill="#733E38" p-id="52062"></path><path d="M436.4288 625.4592h37.888v37.888h-37.888z" fill="#733E38" p-id="52063"></path><path d="M474.112 625.4592H512v37.888h-37.888zM512 625.4592h37.888v37.888H512zM549.888 625.4592h37.888v37.888h-37.888z" fill="#733E38" p-id="52064"></path><path d="M587.5712 625.4592h37.888v37.888h-37.888z" fill="#733E38" p-id="52065"></path><path d="M625.4592 625.4592h37.888v37.888h-37.888z" fill="#733E38" p-id="52066"></path><path d="M663.1424 625.4592h37.888v37.888h-37.888z" fill="#733E38" p-id="52067"></path><path d="M701.0304 625.4592h37.888v37.888h-37.888zM738.9184 625.4592h37.888v37.888h-37.888z" fill="#733E38" p-id="52068"></path><path d="M776.6016 625.4592h37.888v37.888h-37.888zM814.4896 625.4592h37.888v37.888h-37.888z" fill="#733E38" p-id="52069"></path><path d="M852.3776 625.4592h37.888v37.888h-37.888z" fill="#733E38" p-id="52070"></path><path d="M890.0608 625.4592h37.888v37.888h-37.888zM927.9488 625.4592h37.888v37.888h-37.888z" fill="#733E38" p-id="52071"></path><path d="M965.632 625.4592H1003.52v37.888h-37.888z" fill="#733E38" p-id="52072"></path><path d="M20.48 474.112h37.888V512H20.48z" fill="#468B4C" p-id="52073"></path><path d="M58.368 474.112H96.256V512H58.368z" fill="#E23F44" p-id="52074"></path><path d="M96.0512 474.112h37.888V512H96.0512z" fill="#E23F44" p-id="52075"></path><path d="M133.9392 474.112h37.888V512H133.9392z" fill="#E23F44" p-id="52076"></path><path d="M171.6224 474.112h37.888V512H171.6224zM209.5104 474.112h37.888V512h-37.888z" fill="#E23F44" p-id="52077"></path><path d="M247.3984 474.112h37.888V512h-37.888z" fill="#A32936" p-id="52078"></path><path d="M285.0816 474.112h37.888V512h-37.888zM322.9696 474.112h37.888V512h-37.888zM360.8576 474.112h37.888V512h-37.888z" fill="#A32936" p-id="52079"></path><path d="M398.5408 474.112h37.888V512h-37.888z" fill="#A32936" p-id="52080"></path><path d="M436.4288 474.112h37.888V512h-37.888z" fill="#A32936" p-id="52081"></path><path d="M474.112 474.112H512V512h-37.888zM512 474.112h37.888V512H512zM549.888 474.112h37.888V512h-37.888z" fill="#E23F44" p-id="52082"></path><path d="M587.5712 474.112h37.888V512h-37.888z" fill="#E23F44" p-id="52083"></path><path d="M625.4592 474.112h37.888V512h-37.888z" fill="#E23F44" p-id="52084"></path><path d="M663.1424 474.112h37.888V512h-37.888z" fill="#A32936" p-id="52085"></path><path d="M701.0304 474.112h37.888V512h-37.888zM738.9184 474.112h37.888V512h-37.888z" fill="#A32936" p-id="52086"></path><path d="M776.6016 474.112h37.888V512h-37.888zM814.4896 474.112h37.888V512h-37.888z" fill="#A32936" p-id="52087"></path><path d="M852.3776 474.112h37.888V512h-37.888z" fill="#F67925" p-id="52088"></path><path d="M890.0608 474.112h37.888V512h-37.888zM927.9488 474.112h37.888V512h-37.888z" fill="#A32936" p-id="52089"></path></svg>