<?xml version="1.0" standalone="no"?><!DOCTYPE svg PUBLIC "-//W3C//DTD SVG 1.1//EN" "http://www.w3.org/Graphics/SVG/1.1/DTD/svg11.dtd"><svg t="1661318771990" class="icon" viewBox="0 0 1024 1024" version="1.1" xmlns="http://www.w3.org/2000/svg" p-id="52231" xmlns:xlink="http://www.w3.org/1999/xlink" width="200" height="200"><defs><style type="text/css">@font-face { font-family: feedback-iconfont; src: url("//at.alicdn.com/t/font_1031158_u69w8yhxdu.woff2?t=1630033759944") format("woff2"), url("//at.alicdn.com/t/font_1031158_u69w8yhxdu.woff?t=1630033759944") format("woff"), url("//at.alicdn.com/t/font_1031158_u69w8yhxdu.ttf?t=1630033759944") format("truetype"); }
</style></defs><path d="M201.5232 20.48h51.8144v51.8144H201.5232zM253.3376 20.48h51.8144v51.8144h-51.8144z" fill="#C0CCDC" p-id="52232"></path><path d="M304.9472 20.48h51.8144v51.8144h-51.8144zM356.7616 20.48h51.8144v51.8144h-51.8144z" fill="#C0CCDC" p-id="52233"></path><path d="M408.576 20.48h51.8144v51.8144h-51.8144z" fill="#C0CCDC" p-id="52234"></path><path d="M460.1856 20.48H512v51.8144h-51.8144zM512 20.48h51.8144v51.8144H512zM563.8144 20.48h51.8144v51.8144h-51.8144z" fill="#F6E7E0" p-id="52235"></path><path d="M615.424 20.48h51.8144v51.8144h-51.8144zM667.2384 20.48h51.8144v51.8144h-51.8144zM719.0528 20.48h51.8144v51.8144h-51.8144z" fill="#F6E7E0" p-id="52236"></path><path d="M770.6624 20.48h51.8144v51.8144h-51.8144zM460.1856 72.2944H512v51.8144h-51.8144zM512 72.2944h51.8144v51.8144H512zM563.8144 72.2944h51.8144v51.8144h-51.8144z" fill="#F6E7E0" p-id="52237"></path><path d="M615.424 72.2944h51.8144v51.8144h-51.8144zM667.2384 72.2944h51.8144v51.8144h-51.8144zM719.0528 72.2944h51.8144v51.8144h-51.8144z" fill="#F6E7E0" p-id="52238"></path><path d="M770.6624 72.2944h51.8144v51.8144h-51.8144zM356.7616 123.904h51.8144v51.8144h-51.8144z" fill="#F6E7E0" p-id="52239"></path><path d="M408.576 123.904h51.8144v51.8144h-51.8144z" fill="#F6E7E0" p-id="52240"></path><path d="M460.1856 123.904H512v51.8144h-51.8144zM512 123.904h51.8144v51.8144H512zM563.8144 123.904h51.8144v51.8144h-51.8144z" fill="#F6E7E0" p-id="52241"></path><path d="M615.424 123.904h51.8144v51.8144h-51.8144zM667.2384 123.904h51.8144v51.8144h-51.8144zM719.0528 123.904h51.8144v51.8144h-51.8144z" fill="#F6E7E0" p-id="52242"></path><path d="M770.6624 123.904h51.8144v51.8144h-51.8144z" fill="#F6E7E0" p-id="52243"></path><path d="M822.4768 123.904h51.8144v51.8144h-51.8144z" fill="#F6E7E0" p-id="52244"></path><path d="M874.0864 123.904h51.8144v51.8144h-51.8144zM356.7616 175.7184h51.8144v51.8144h-51.8144z" fill="#F6E7E0" p-id="52245"></path><path d="M408.576 175.7184h51.8144v51.8144h-51.8144z" fill="#F6E7E0" p-id="52246"></path><path d="M460.1856 175.7184H512v51.8144h-51.8144zM512 175.7184h51.8144v51.8144H512zM563.8144 175.7184h51.8144v51.8144h-51.8144z" fill="#F6E7E0" p-id="52247"></path><path d="M615.424 175.7184h51.8144v51.8144h-51.8144zM667.2384 175.7184h51.8144v51.8144h-51.8144zM719.0528 175.7184h51.8144v51.8144h-51.8144z" fill="#F6E7E0" p-id="52248"></path><path d="M770.6624 175.7184h51.8144v51.8144h-51.8144z" fill="#F6E7E0" p-id="52249"></path><path d="M822.4768 175.7184h51.8144v51.8144h-51.8144z" fill="#F6E7E0" p-id="52250"></path><path d="M874.0864 175.7184h51.8144v51.8144h-51.8144z" fill="#F6E7E0" p-id="52251"></path><path d="M201.5232 72.2944h51.8144v51.8144H201.5232zM253.3376 72.2944h51.8144v51.8144h-51.8144z" fill="#C0CCDC" p-id="52252"></path><path d="M304.9472 72.2944h51.8144v51.8144h-51.8144zM356.7616 72.2944h51.8144v51.8144h-51.8144z" fill="#C0CCDC" p-id="52253"></path><path d="M408.576 72.2944h51.8144v51.8144h-51.8144zM98.0992 123.904h51.8144v51.8144H98.0992zM149.9136 123.904h51.8144v51.8144H149.9136z" fill="#C0CCDC" p-id="52254"></path><path d="M201.5232 123.904h51.8144v51.8144H201.5232zM253.3376 123.904h51.8144v51.8144h-51.8144z" fill="#C0CCDC" p-id="52255"></path><path d="M304.9472 123.904h51.8144v51.8144h-51.8144zM98.0992 175.7184h51.8144v51.8144H98.0992zM149.9136 175.7184h51.8144v51.8144H149.9136z" fill="#C0CCDC" p-id="52256"></path><path d="M201.5232 175.7184h51.8144v51.8144H201.5232zM253.3376 175.7184h51.8144v51.8144h-51.8144z" fill="#C0CCDC" p-id="52257"></path><path d="M304.9472 175.7184h51.8144v51.8144h-51.8144z" fill="#C0CCDC" p-id="52258"></path><path d="M356.7616 227.5328h51.8144v51.8144h-51.8144z" fill="#D77643" p-id="52259"></path><path d="M408.576 227.5328h51.8144v51.8144h-51.8144z" fill="#D77643" p-id="52260"></path><path d="M460.1856 227.5328H512v51.8144h-51.8144zM512 227.5328h51.8144v51.8144H512zM563.8144 227.5328h51.8144v51.8144h-51.8144z" fill="#D77643" p-id="52261"></path><path d="M615.424 227.5328h51.8144v51.8144h-51.8144zM667.2384 227.5328h51.8144v51.8144h-51.8144zM719.0528 227.5328h51.8144v51.8144h-51.8144z" fill="#D77643" p-id="52262"></path><path d="M770.6624 227.5328h51.8144v51.8144h-51.8144z" fill="#D77643" p-id="52263"></path><path d="M822.4768 227.5328h51.8144v51.8144h-51.8144z" fill="#D77643" p-id="52264"></path><path d="M874.0864 227.5328h51.8144v51.8144h-51.8144zM149.9136 227.5328h51.8144v51.8144H149.9136z" fill="#D77643" p-id="52265"></path><path d="M201.5232 227.5328h51.8144v51.8144H201.5232zM253.3376 227.5328h51.8144v51.8144h-51.8144z" fill="#D77643" p-id="52266"></path><path d="M304.9472 227.5328h51.8144v51.8144h-51.8144zM149.9136 279.1424h51.8144v51.8144H149.9136z" fill="#D77643" p-id="52267"></path><path d="M201.5232 279.1424h51.8144v51.8144H201.5232zM253.3376 279.1424h51.8144v51.8144h-51.8144z" fill="#D77643" p-id="52268"></path><path d="M304.9472 279.1424h51.8144v51.8144h-51.8144zM149.9136 330.9568h51.8144v51.8144H149.9136z" fill="#D77643" p-id="52269"></path><path d="M201.5232 330.9568h51.8144v51.8144H201.5232zM253.3376 330.9568h51.8144v51.8144h-51.8144z" fill="#D77643" p-id="52270"></path><path d="M304.9472 330.9568h51.8144v51.8144h-51.8144zM149.9136 382.5664h51.8144v51.8144H149.9136z" fill="#D77643" p-id="52271"></path><path d="M201.5232 382.5664h51.8144v51.8144H201.5232zM253.3376 382.5664h51.8144v51.8144h-51.8144z" fill="#D77643" p-id="52272"></path><path d="M304.9472 382.5664h51.8144v51.8144h-51.8144zM149.9136 434.3808h51.8144v51.8144H149.9136z" fill="#D77643" p-id="52273"></path><path d="M201.5232 434.3808h51.8144v51.8144H201.5232zM253.3376 434.3808h51.8144v51.8144h-51.8144z" fill="#D77643" p-id="52274"></path><path d="M304.9472 434.3808h51.8144v51.8144h-51.8144z" fill="#D77643" p-id="52275"></path><path d="M667.2384 279.1424h51.8144v51.8144h-51.8144zM719.0528 279.1424h51.8144v51.8144h-51.8144z" fill="#E4A570" p-id="52276"></path><path d="M770.6624 279.1424h51.8144v51.8144h-51.8144z" fill="#E4A570" p-id="52277"></path><path d="M822.4768 279.1424h51.8144v51.8144h-51.8144zM667.2384 330.9568h51.8144v51.8144h-51.8144zM719.0528 330.9568h51.8144v51.8144h-51.8144z" fill="#E4A570" p-id="52278"></path><path d="M770.6624 330.9568h51.8144v51.8144h-51.8144z" fill="#E4A570" p-id="52279"></path><path d="M822.4768 330.9568h51.8144v51.8144h-51.8144zM667.2384 382.5664h51.8144v51.8144h-51.8144zM719.0528 382.5664h51.8144v51.8144h-51.8144z" fill="#E4A570" p-id="52280"></path><path d="M770.6624 382.5664h51.8144v51.8144h-51.8144z" fill="#E4A570" p-id="52281"></path><path d="M822.4768 382.5664h51.8144v51.8144h-51.8144zM667.2384 434.3808h51.8144v51.8144h-51.8144zM719.0528 434.3808h51.8144v51.8144h-51.8144z" fill="#E4A570" p-id="52282"></path><path d="M770.6624 434.3808h51.8144v51.8144h-51.8144z" fill="#E4A570" p-id="52283"></path><path d="M822.4768 434.3808h51.8144v51.8144h-51.8144zM874.0864 279.1424h51.8144v51.8144h-51.8144zM874.0864 330.9568h51.8144v51.8144h-51.8144z" fill="#E4A570" p-id="52284"></path><path d="M874.0864 382.5664h51.8144v51.8144h-51.8144zM874.0864 434.3808h51.8144v51.8144h-51.8144zM460.1856 279.1424H512v51.8144h-51.8144z" fill="#E4A570" p-id="52285"></path><path d="M408.576 279.1424h51.8144v51.8144h-51.8144zM408.576 330.9568h51.8144v51.8144h-51.8144z" fill="#E4A570" p-id="52286"></path><path d="M408.576 382.5664h51.8144v51.8144h-51.8144z" fill="#E4A570" p-id="52287"></path><path d="M408.576 434.3808h51.8144v51.8144h-51.8144z" fill="#733E3A" p-id="52288"></path><path d="M408.576 486.1952h51.8144v51.8144h-51.8144z" fill="#733E3A" p-id="52289"></path><path d="M408.576 537.8048h51.8144v51.8144h-51.8144z" fill="#733E3A" p-id="52290"></path><path d="M408.576 589.6192h51.8144v51.8144h-51.8144zM408.576 641.4336h51.8144v51.8144h-51.8144z" fill="#733E3A" p-id="52291"></path><path d="M408.576 693.0432h51.8144v51.8144h-51.8144z" fill="#733E3A" p-id="52292"></path><path d="M356.7616 279.1424h51.8144v51.8144h-51.8144zM356.7616 330.9568h51.8144v51.8144h-51.8144z" fill="#E4A570" p-id="52293"></path><path d="M356.7616 382.5664h51.8144v51.8144h-51.8144zM356.7616 434.3808h51.8144v51.8144h-51.8144z" fill="#E4A570" p-id="52294"></path><path d="M356.7616 486.1952h51.8144v51.8144h-51.8144z" fill="#733E3A" p-id="52295"></path><path d="M356.7616 537.8048h51.8144v51.8144h-51.8144z" fill="#733E3A" p-id="52296"></path><path d="M356.7616 589.6192h51.8144v51.8144h-51.8144zM356.7616 641.4336h51.8144v51.8144h-51.8144z" fill="#733E3A" p-id="52297"></path><path d="M356.7616 693.0432h51.8144v51.8144h-51.8144z" fill="#E4A570" p-id="52298"></path><path d="M356.7616 744.8576h51.8144v51.8144h-51.8144z" fill="#E4A570" p-id="52299"></path><path d="M356.7616 796.4672h51.8144v51.8144h-51.8144zM356.7616 848.2816h51.8144v51.8144h-51.8144zM356.7616 900.096h51.8144v51.8144h-51.8144z" fill="#E4A570" p-id="52300"></path><path d="M356.7616 951.7056h51.8144V1003.52h-51.8144zM512 279.1424h51.8144v51.8144H512zM563.8144 279.1424h51.8144v51.8144h-51.8144z" fill="#E4A570" p-id="52301"></path><path d="M615.424 279.1424h51.8144v51.8144h-51.8144zM460.1856 330.9568H512v51.8144h-51.8144zM512 330.9568h51.8144v51.8144H512zM563.8144 330.9568h51.8144v51.8144h-51.8144z" fill="#E4A570" p-id="52302"></path><path d="M615.424 330.9568h51.8144v51.8144h-51.8144z" fill="#E4A570" p-id="52303"></path><path d="M460.1856 382.5664H512v51.8144h-51.8144zM512 382.5664h51.8144v51.8144H512zM563.8144 382.5664h51.8144v51.8144h-51.8144z" fill="#733E3A" p-id="52304"></path><path d="M615.424 382.5664h51.8144v51.8144h-51.8144z" fill="#E4A570" p-id="52305"></path><path d="M460.1856 434.3808H512v51.8144h-51.8144z" fill="#733E3A" p-id="52306"></path><path d="M512 434.3808h51.8144v51.8144H512z" fill="#452733" p-id="52307"></path><path d="M563.8144 434.3808h51.8144v51.8144h-51.8144z" fill="#733E3A" p-id="52308"></path><path d="M615.424 434.3808h51.8144v51.8144h-51.8144zM460.1856 486.1952H512v51.8144h-51.8144z" fill="#733E3A" p-id="52309"></path><path d="M512 486.1952h51.8144v51.8144H512z" fill="#452733" p-id="52310"></path><path d="M563.8144 486.1952h51.8144v51.8144h-51.8144z" fill="#733E3A" p-id="52311"></path><path d="M615.424 486.1952h51.8144v51.8144h-51.8144zM460.1856 537.8048H512v51.8144h-51.8144z" fill="#733E3A" p-id="52312"></path><path d="M512 537.8048h51.8144v51.8144H512z" fill="#452733" p-id="52313"></path><path d="M563.8144 537.8048h51.8144v51.8144h-51.8144z" fill="#733E3A" p-id="52314"></path><path d="M615.424 537.8048h51.8144v51.8144h-51.8144zM460.1856 589.6192H512v51.8144h-51.8144z" fill="#733E3A" p-id="52315"></path><path d="M512 589.6192h51.8144v51.8144H512z" fill="#452733" p-id="52316"></path><path d="M563.8144 589.6192h51.8144v51.8144h-51.8144z" fill="#733E3A" p-id="52317"></path><path d="M615.424 589.6192h51.8144v51.8144h-51.8144zM460.1856 641.4336H512v51.8144h-51.8144z" fill="#733E3A" p-id="52318"></path><path d="M512 641.4336h51.8144v51.8144H512z" fill="#452733" p-id="52319"></path><path d="M563.8144 641.4336h51.8144v51.8144h-51.8144z" fill="#733E3A" p-id="52320"></path><path d="M615.424 641.4336h51.8144v51.8144h-51.8144zM667.2384 486.1952h51.8144v51.8144h-51.8144z" fill="#733E3A" p-id="52321"></path><path d="M719.0528 486.1952h51.8144v51.8144h-51.8144z" fill="#E4A570" p-id="52322"></path><path d="M770.6624 486.1952h51.8144v51.8144h-51.8144z" fill="#E4A570" p-id="52323"></path><path d="M667.2384 537.8048h51.8144v51.8144h-51.8144z" fill="#733E3A" p-id="52324"></path><path d="M719.0528 537.8048h51.8144v51.8144h-51.8144z" fill="#E4A570" p-id="52325"></path><path d="M770.6624 537.8048h51.8144v51.8144h-51.8144z" fill="#E4A570" p-id="52326"></path><path d="M667.2384 589.6192h51.8144v51.8144h-51.8144z" fill="#733E3A" p-id="52327"></path><path d="M719.0528 589.6192h51.8144v51.8144h-51.8144z" fill="#E4A570" p-id="52328"></path><path d="M770.6624 589.6192h51.8144v51.8144h-51.8144z" fill="#E4A570" p-id="52329"></path><path d="M667.2384 641.4336h51.8144v51.8144h-51.8144z" fill="#733E3A" p-id="52330"></path><path d="M719.0528 641.4336h51.8144v51.8144h-51.8144z" fill="#E4A570" p-id="52331"></path><path d="M770.6624 641.4336h51.8144v51.8144h-51.8144z" fill="#E4A570" p-id="52332"></path><path d="M460.1856 693.0432H512v51.8144h-51.8144z" fill="#733E3A" p-id="52333"></path><path d="M512 693.0432h51.8144v51.8144H512z" fill="#452733" p-id="52334"></path><path d="M563.8144 693.0432h51.8144v51.8144h-51.8144z" fill="#733E3A" p-id="52335"></path><path d="M615.424 693.0432h51.8144v51.8144h-51.8144z" fill="#733E3A" p-id="52336"></path><path d="M667.2384 693.0432h51.8144v51.8144h-51.8144zM719.0528 693.0432h51.8144v51.8144h-51.8144z" fill="#E4A570" p-id="52337"></path><path d="M770.6624 693.0432h51.8144v51.8144h-51.8144zM822.4768 486.1952h51.8144v51.8144h-51.8144z" fill="#E4A570" p-id="52338"></path><path d="M822.4768 537.8048h51.8144v51.8144h-51.8144z" fill="#E4A570" p-id="52339"></path><path d="M822.4768 589.6192h51.8144v51.8144h-51.8144zM822.4768 641.4336h51.8144v51.8144h-51.8144z" fill="#E4A570" p-id="52340"></path><path d="M822.4768 693.0432h51.8144v51.8144h-51.8144zM408.576 744.8576h51.8144v51.8144h-51.8144z" fill="#E4A570" p-id="52341"></path><path d="M460.1856 744.8576H512v51.8144h-51.8144zM512 744.8576h51.8144v51.8144H512zM563.8144 744.8576h51.8144v51.8144h-51.8144z" fill="#733E3A" p-id="52342"></path><path d="M615.424 744.8576h51.8144v51.8144h-51.8144zM667.2384 744.8576h51.8144v51.8144h-51.8144zM719.0528 744.8576h51.8144v51.8144h-51.8144zM408.576 796.4672h51.8144v51.8144h-51.8144z" fill="#E4A570" p-id="52343"></path><path d="M460.1856 796.4672H512v51.8144h-51.8144zM512 796.4672h51.8144v51.8144H512zM563.8144 796.4672h51.8144v51.8144h-51.8144z" fill="#E4A570" p-id="52344"></path><path d="M615.424 796.4672h51.8144v51.8144h-51.8144zM667.2384 796.4672h51.8144v51.8144h-51.8144zM719.0528 796.4672h51.8144v51.8144h-51.8144zM408.576 848.2816h51.8144v51.8144h-51.8144z" fill="#E4A570" p-id="52345"></path><path d="M460.1856 848.2816H512v51.8144h-51.8144zM512 848.2816h51.8144v51.8144H512zM563.8144 848.2816h51.8144v51.8144h-51.8144z" fill="#E4A570" p-id="52346"></path><path d="M615.424 848.2816h51.8144v51.8144h-51.8144zM667.2384 848.2816h51.8144v51.8144h-51.8144zM719.0528 848.2816h51.8144v51.8144h-51.8144zM408.576 900.096h51.8144v51.8144h-51.8144z" fill="#E4A570" p-id="52347"></path><path d="M460.1856 900.096H512v51.8144h-51.8144zM512 900.096h51.8144v51.8144H512zM563.8144 900.096h51.8144v51.8144h-51.8144z" fill="#E4A570" p-id="52348"></path><path d="M615.424 900.096h51.8144v51.8144h-51.8144zM667.2384 900.096h51.8144v51.8144h-51.8144zM719.0528 900.096h51.8144v51.8144h-51.8144zM408.576 951.7056h51.8144V1003.52h-51.8144z" fill="#E4A570" p-id="52349"></path><path d="M460.1856 951.7056H512V1003.52h-51.8144zM512 951.7056h51.8144V1003.52H512zM563.8144 951.7056h51.8144V1003.52h-51.8144z" fill="#E4A570" p-id="52350"></path><path d="M615.424 951.7056h51.8144V1003.52h-51.8144zM667.2384 951.7056h51.8144V1003.52h-51.8144zM719.0528 951.7056h51.8144V1003.52h-51.8144zM770.6624 744.8576h51.8144v51.8144h-51.8144z" fill="#E4A570" p-id="52351"></path><path d="M770.6624 796.4672h51.8144v51.8144h-51.8144zM770.6624 848.2816h51.8144v51.8144h-51.8144zM770.6624 900.096h51.8144v51.8144h-51.8144z" fill="#E4A570" p-id="52352"></path><path d="M770.6624 951.7056h51.8144V1003.52h-51.8144z" fill="#E4A570" p-id="52353"></path><path d="M201.5232 486.1952h51.8144v51.8144H201.5232zM253.3376 486.1952h51.8144v51.8144h-51.8144z" fill="#D77643" p-id="52354"></path><path d="M304.9472 486.1952h51.8144v51.8144h-51.8144zM201.5232 537.8048h51.8144v51.8144H201.5232z" fill="#D77643" p-id="52355"></path><path d="M253.3376 537.8048h51.8144v51.8144h-51.8144z" fill="#D77643" p-id="52356"></path><path d="M304.9472 537.8048h51.8144v51.8144h-51.8144zM201.5232 589.6192h51.8144v51.8144H201.5232z" fill="#D77643" p-id="52357"></path><path d="M253.3376 589.6192h51.8144v51.8144h-51.8144z" fill="#D77643" p-id="52358"></path><path d="M304.9472 589.6192h51.8144v51.8144h-51.8144zM201.5232 641.4336h51.8144v51.8144H201.5232zM253.3376 641.4336h51.8144v51.8144h-51.8144z" fill="#D77643" p-id="52359"></path><path d="M304.9472 641.4336h51.8144v51.8144h-51.8144zM201.5232 693.0432h51.8144v51.8144H201.5232z" fill="#D77643" p-id="52360"></path><path d="M253.3376 693.0432h51.8144v51.8144h-51.8144z" fill="#D77643" p-id="52361"></path><path d="M304.9472 693.0432h51.8144v51.8144h-51.8144z" fill="#D77643" p-id="52362"></path><path d="M253.3376 744.8576h51.8144v51.8144h-51.8144z" fill="#D77643" p-id="52363"></path><path d="M304.9472 744.8576h51.8144v51.8144h-51.8144z" fill="#D77643" p-id="52364"></path><path d="M253.3376 796.4672h51.8144v51.8144h-51.8144z" fill="#D77643" p-id="52365"></path><path d="M304.9472 796.4672h51.8144v51.8144h-51.8144zM253.3376 848.2816h51.8144v51.8144h-51.8144z" fill="#D77643" p-id="52366"></path><path d="M304.9472 848.2816h51.8144v51.8144h-51.8144zM253.3376 900.096h51.8144v51.8144h-51.8144z" fill="#D77643" p-id="52367"></path><path d="M304.9472 900.096h51.8144v51.8144h-51.8144z" fill="#D77643" p-id="52368"></path><path d="M253.3376 951.7056h51.8144V1003.52h-51.8144z" fill="#D77643" p-id="52369"></path><path d="M304.9472 951.7056h51.8144V1003.52h-51.8144z" fill="#D77643" p-id="52370"></path></svg>